<?xml version="1.0" encoding="utf-8"?>
<!-- Generator: Adobe Illustrator 22.0.1, SVG Export Plug-In . SVG Version: 6.00 Build 0)  -->
<svg version="1.1" id="Layer_1" xmlns="http://www.w3.org/2000/svg" xmlns:xlink="http://www.w3.org/1999/xlink" x="0px" y="0px"
	 viewBox="-49 141 512 512" style="enable-background:new -49 141 512 512;" xml:space="preserve">
<style type="text/css">
	.st0{fill:#1A2C3A;}
</style>
<g>
	<path class="st0" d="M388.3,141H25.7c-5.9,0-10.7,4.8-10.7,10.7v480c0,5.9,4.8,10.7,10.7,10.7h10.7c0,5.9,4.8,10.7,10.7,10.7
		c5.9,0,10.7-4.8,10.7-10.7h298.7c0,5.9,4.8,10.7,10.7,10.7c5.9,0,10.7-4.8,10.7-10.7h10.7c5.9,0,10.7-4.8,10.7-10.7v-480
		C399,145.8,394.2,141,388.3,141z M36.3,621V514.3H47h64h64h21.3V621H36.3z M132.3,258.3h-64V237h64V258.3z M153.7,279.7h64h42.7
		h21.3H303h21.3H367h10.7v96H367V333H260.3v42.7H153.7v-85.3H111H89.7H47v85.3H36.3v-96H47H153.7z M345.7,258.3h-21.3v-64h21.3
		V258.3z M303,258.3h-21.3v-64H303V258.3z M260.3,258.3H239v-64h21.3V258.3z M345.7,375.7h-64v-21.3h64V375.7z M89.7,375.7H68.3v-64
		h21.3V375.7z M132.3,375.7H111v-64h21.3V375.7z M89.7,493H68.3v-64h21.3V493z M196.3,493v-21.3h64V493H196.3z M260.3,450.3h-64V429
		h64V450.3z M281.7,471.7v-21.3V429H303v64h-21.3V471.7z M345.7,493h-21.3v-64h21.3V493z M324.3,407.7H303h-21.3h-21.3H175v42.7
		v21.3V493h-64v-85.3H47V493H36.3v-96H47h42.7H111h42.7h106.7H367h10.7v96H367v-85.3H324.3z M377.7,162.3v96H367V173h-42.7H303
		h-21.3h-21.3h-42.7v85.3h-64v-42.7H47v42.7H36.3v-96H377.7z M217.7,621V514.3h42.7h21.3H303h21.3H367h10.7V621H217.7z"/>
	<path class="st0" d="M175,546.3c-5.9,0-10.7,4.8-10.7,10.7v21.3c0,5.9,4.8,10.7,10.7,10.7c5.9,0,10.7-4.8,10.7-10.7V557
		C185.7,551.1,180.9,546.3,175,546.3z"/>
	<path class="st0" d="M239,546.3c-5.9,0-10.7,4.8-10.7,10.7v21.3c0,5.9,4.8,10.7,10.7,10.7c5.9,0,10.7-4.8,10.7-10.7V557
		C249.7,551.1,244.9,546.3,239,546.3z"/>
</g>
</svg>
