<?xml version="1.0" encoding="utf-8"?>
<!-- Generator: Adobe Illustrator 22.0.1, SVG Export Plug-In . SVG Version: 6.00 Build 0)  -->
<svg version="1.1" id="Capa_1" xmlns="http://www.w3.org/2000/svg" xmlns:xlink="http://www.w3.org/1999/xlink" x="0px" y="0px"
	 viewBox="-49 141 382 382" style="enable-background:new -49 141 382 382;" xml:space="preserve">
<style type="text/css">
	.st0{fill:#1A2C3A;}
</style>
<path class="st0" d="M325,220.6h-77c0.3-7.3,0-14.6-1.8-21.7c-6.3-25.2-24.7-45.1-49.4-53.3l-2.2-0.7c-7.7-2.6-15.7-3.9-25.1-3.9
	c-24.9,0-48.1,12.2-62.2,32.7L-28.7,368.9c-2.1,2.7-4,5.4-5.8,8.3l-1,1.4l0.1,0.1c-8.6,14.3-13.6,31-13.6,48.9
	c0,52.7,42.8,95.5,95.5,95.5H134H150c4.4,0,8-3.6,8-8c0-4.4-3.6-8-8-8h-1.7l19.5-31.8h14.1c4.4,0,8-3.6,8-8c0-4.4-3.6-8-8-8h-4.4
	l19.5-31.8h16.8c4.4,0,8-3.6,8-8c0-4.4-3.6-8-8-8h-7l19.5-31.8h11.5c4.4,0,8-3.6,8-8c0-4.4-3.6-8-8-8h-1.7l19.5-31.8h14.1
	c4.4,0,8-3.6,8-8c0-4.4-3.6-8-8-8H265l19.5-31.8h8.8c4.4,0,8-3.6,8-8c0-4.1-3.1-7.4-7.1-7.8l19.6-32H325c4.4,0,8-3.6,8-8
	C333,224.1,329.4,220.6,325,220.6z M120.5,182.7c11.1-16.2,29.5-25.8,50.3-25.8c6.4,0,12.8,1,18.8,3.1l2.2,0.7
	c19.4,6.5,34,22.2,38.9,42c3.9,15.5,1.3,32.3-7.2,45.8L125.4,405c-3.4-40.7-37.3-73-78.9-73c-12.3,0-24,2.4-34.7,6.6L120.5,182.7z
	 M129.6,507.1H46.5c-43.9,0-79.6-35.7-79.6-79.6c0-15.7,4.7-30.3,12.6-42.7l2.8-4c14.5-19.9,37.8-32.9,64.2-32.9
	c35.1,0,63.7,28.6,63.7,63.7s-28.6,63.7-63.7,63.7c-26.3,0-47.8-21.4-47.8-47.8s21.4-47.8,47.8-47.8c2.1,0,4.2,0.2,6.2,0.6L42.1,396
	c-15.5,2.1-27.4,15.5-27.4,31.5c0,17.5,14.3,31.8,31.8,31.8c26.3,0,47.8-21.4,47.8-47.8c0-26.3-21.4-47.8-47.8-47.8
	c-35.1,0-63.7,28.6-63.7,63.7s28.6,63.7,63.7,63.7c30.9,0,57.4-17.9,70.6-43.7l0.3,0.2L237.2,257c3.9-6.4,6.5-13.3,8.4-20.5h49.4
	L129.6,507.1z M53.1,408.1l14.1-20.7c6.8,5.8,11.1,14.5,11.1,24.2c0,17.5-14.3,31.8-31.8,31.8c-8.8,0-15.9-7.1-15.9-15.9
	s7.1-15.9,15.9-15.9C49.1,411.6,51.6,410.3,53.1,408.1z"/>
</svg>
