<?xml version="1.0" encoding="utf-8"?>
<!-- Generator: Adobe Illustrator 22.0.1, SVG Export Plug-In . SVG Version: 6.00 Build 0)  -->
<svg version="1.1" id="Capa_1" xmlns="http://www.w3.org/2000/svg" xmlns:xlink="http://www.w3.org/1999/xlink" x="0px" y="0px"
	 viewBox="-65 237 345.8 230.5" style="enable-background:new -65 237 345.8 230.5;" xml:space="preserve">
<style type="text/css">
	.st0{fill:#1A2C3A;}
</style>
<path class="st0" d="M44.5,237h-92.2c-9.5,0-17.3,7.7-17.3,17.3v195.9c0,9.5,7.7,17.3,17.3,17.3h92.2c9.5,0,17.3-7.7,17.3-17.3
	V254.3C61.8,244.7,54,237,44.5,237z M50.3,450.2c0,3.2-2.6,5.8-5.8,5.8h-92.2c-3.2,0-5.8-2.6-5.8-5.8V254.3c0-3.2,2.6-5.8,5.8-5.8
	h92.2c3.2,0,5.8,2.6,5.8,5.8V450.2z"/>
<path class="st0" d="M-1.6,363.8c-22.3,0-40.3,18.1-40.3,40.3c0,22.3,18.1,40.3,40.3,40.3c22.3,0,40.3-18.1,40.3-40.3
	S20.7,363.8-1.6,363.8z M-1.6,432.9c-15.9,0-28.8-12.9-28.8-28.8c0-15.9,12.9-28.8,28.8-28.8c15.9,0,28.8,12.9,28.8,28.8
	S14.3,432.9-1.6,432.9z"/>
<path class="st0" d="M-1.6,260.1c-12.7,0-23.1,10.3-23.1,23.1c0,12.7,10.3,23.1,23.1,23.1s23.1-10.3,23.1-23.1
	C21.4,270.4,11.1,260.1-1.6,260.1z M-1.6,294.6c-6.4,0-11.5-5.2-11.5-11.5c0-6.4,5.2-11.5,11.5-11.5s11.5,5.2,11.5,11.5
	C9.9,289.5,4.8,294.6-1.6,294.6z"/>
<path class="st0" d="M263.5,237h-92.2c-9.5,0-17.3,7.7-17.3,17.3v195.9c0,9.5,7.7,17.3,17.3,17.3h92.2c9.5,0,17.3-7.7,17.3-17.3
	V254.3C280.8,244.7,273,237,263.5,237z M269.2,450.2c0,3.2-2.6,5.8-5.8,5.8h-92.2c-3.2,0-5.8-2.6-5.8-5.8V254.3
	c0-3.2,2.6-5.8,5.8-5.8h92.2c3.2,0,5.8,2.6,5.8,5.8V450.2z"/>
<path class="st0" d="M217.4,363.8c-22.3,0-40.3,18.1-40.3,40.3s18.1,40.3,40.3,40.3s40.3-18.1,40.3-40.3
	C257.7,381.9,239.6,363.8,217.4,363.8z M217.4,432.9c-15.9,0-28.8-12.9-28.8-28.8s12.9-28.8,28.8-28.8s28.8,12.9,28.8,28.8
	C246.2,420,233.3,432.9,217.4,432.9z"/>
<path class="st0" d="M217.4,260.1c-12.7,0-23.1,10.3-23.1,23.1c0,12.7,10.3,23.1,23.1,23.1s23.1-10.3,23.1-23.1
	C240.4,270.4,230.1,260.1,217.4,260.1z M217.4,294.6c-6.4,0-11.5-5.2-11.5-11.5c0-6.4,5.2-11.5,11.5-11.5s11.5,5.2,11.5,11.5
	C228.9,289.5,223.7,294.6,217.4,294.6z"/>
<path class="st0" d="M136.7,352.3H79.1c-3.2,0-5.8,2.6-5.8,5.8v103.7c0,3.2,2.6,5.8,5.8,5.8h57.6c3.2,0,5.8-2.6,5.8-5.8V358
	C142.5,354.8,139.9,352.3,136.7,352.3z M130.9,456H84.8v-92.2h46.1V456z"/>
<rect x="96.4" y="375.3" class="st0" width="23.1" height="11.5"/>
<rect x="102.1" y="421.4" class="st0" width="11.5" height="23.1"/>
<circle class="st0" cx="-1.6" cy="404.1" r="5.8"/>
<circle class="st0" cx="217.4" cy="404.1" r="5.8"/>
<rect x="102.1" y="398.4" class="st0" width="11.5" height="11.5"/>
</svg>
