<?xml version="1.0" encoding="utf-8"?>
<!-- Generator: Adobe Illustrator 22.0.1, SVG Export Plug-In . SVG Version: 6.00 Build 0)  -->
<svg version="1.1" id="Capa_1" xmlns="http://www.w3.org/2000/svg" xmlns:xlink="http://www.w3.org/1999/xlink" x="0px" y="0px"
	 viewBox="-33 157 366.7 348.4" style="enable-background:new -33 157 366.7 348.4;" xml:space="preserve">
<style type="text/css">
	.st0{fill:#1A2C3A;}
</style>
<g>
	<path class="st0" d="M330.4,261.6L330.4,261.6l-162-83.9c0.1-0.8,0.2-1.6,0.3-2.4c0-10.1-8.2-18.3-18.3-18.3
		c-10.1,0-18.3,8.2-18.3,18.3c0,0.8,0.1,1.6,0.3,2.4l-162,83.8v0.1c-2,1-3.3,3.1-3.3,5.4v232.2c0,3.4,2.7,6.1,6.1,6.1h354.5
		c3.4,0,6.1-2.7,6.1-6.1V267C333.7,264.7,332.4,262.7,330.4,261.6z M137.8,188.7c7,6.6,18,6.6,25,0l139.6,72.2H-1.8L137.8,188.7z
		 M150.4,169.2c3.4,0,6.1,2.8,6.1,6.2c0,0.9-0.2,1.9-0.6,2.7c-1.8,3-5.8,4-8.8,2.2c-0.9-0.5-1.6-1.2-2.1-2.1
		c-0.4-0.9-0.7-1.8-0.7-2.8C144.2,172,147,169.2,150.4,169.2L150.4,169.2z M321.5,493.1H-20.8v-220h342.3V493.1z"/>
	<path class="st0" d="M-2.4,480.9h305.6c3.4,0,6.1-2.7,6.1-6.1V291.5c0-3.4-2.7-6.1-6.1-6.1H-2.4c-3.4,0-6.1,2.7-6.1,6.1v183.4
		C-8.6,478.2-5.8,480.9-2.4,480.9z M3.7,468.7V464c4.8-3.6,13.1-10.8,28.2-24.4l10.6,9.2c2.4,2.1,6.1,2,8.3-0.3l7.9-7.9l7.9,7.9
		c2.1,2.1,5.3,2.4,7.7,0.8l17.8-11.9l11.2,11.2c1.1,1.1,2.7,1.8,4.3,1.8h36.7v-12.2h-34.1l-15.3-15.3l25.7-25.7l14.2,9.4
		c1.8,1.2,4.2,1.4,6.1,0.4l9.5-4.7l9.5,4.7c0.8,0.4,1.8,0.6,2.7,0.6c1.3,0,2.6-0.4,3.7-1.2l13.2-9.9l15.5,15.5
		c1.1,1.1,2.7,1.8,4.3,1.8h48.9v-12.2h-46.4L188.2,388l10.8-13.2l13.7,18.2c1.2,1.5,3,2.4,4.9,2.4H297v73.3L3.7,468.7z M83.3,428.6
		l-11.6,7.8l-8.7-8.7c-2.4-2.4-6.3-2.4-8.6,0l-8.2,8.2l-5.2-4.5c6.8-6.1,14.5-13.1,23.6-21.4L83.3,428.6z M129.4,388.3l21-21
		l20.4,20.4l-8.8,6.6l-8.8-4.5c-1.7-0.9-3.7-0.9-5.5,0l-9.1,4.5L129.4,388.3z M297,297.6v85.6h-76.4l-16.5-22
		c-1.1-1.5-2.9-2.4-4.8-2.4c-1.9,0-3.7,0.8-4.9,2.2l-14.9,18.3l-24.9-24.9c-2.4-2.4-6.3-2.4-8.6,0l-59.8,59.8l-17.1-17.1
		c-2.3-2.3-6-2.4-8.4-0.2c-17.5,15.9-43.2,39.1-57,51.3V297.6H297z"/>
	<path class="st0" d="M278.7,328.1c0-10.1-8.2-18.3-18.3-18.3V322c3.4,0,6.1,2.7,6.1,6.1s-2.7,6.1-6.1,6.1h-36.7v12.2h36.7
		C270.5,346.5,278.7,338.3,278.7,328.1z"/>
	<path class="st0" d="M64.8,352.6c10.1,0,18.3-8.2,18.3-18.3c0-10.1-8.2-18.3-18.3-18.3s-18.3,8.2-18.3,18.3
		C46.5,344.4,54.7,352.6,64.8,352.6z M64.8,328.1c3.4,0,6.1,2.7,6.1,6.1c0,3.4-2.7,6.1-6.1,6.1c-3.4,0-6.1-2.7-6.1-6.1
		C58.7,330.9,61.4,328.1,64.8,328.1z"/>
</g>
</svg>
