<?xml version="1.0" encoding="utf-8"?>
<!-- Generator: Adobe Illustrator 22.0.1, SVG Export Plug-In . SVG Version: 6.00 Build 0)  -->
<svg version="1.1" id="Layer_1" xmlns="http://www.w3.org/2000/svg" xmlns:xlink="http://www.w3.org/1999/xlink" x="0px" y="0px"
	 viewBox="-49 141 512 512" style="enable-background:new -49 141 512 512;" xml:space="preserve">
<style type="text/css">
	.st0{fill:#1A2C3A;}
</style>
<path class="st0" d="M309.4,141H104.6c-4.7,0-8.5,3.8-8.5,8.5v93.9c0,4.7,3.8,8.5,8.5,8.5h76.8v162.1c0,37.2-4.9,60.2-10.6,86.7
	c-7,33-15,70.4-15,143.7c0,4.7,3.8,8.5,8.5,8.5h85.3c4.7,0,8.5-3.8,8.5-8.5c0-73.3-8-110.7-15-143.7c-5.7-26.6-10.6-49.5-10.6-86.7
	V251.9h76.8c4.7,0,8.5-3.8,8.5-8.5v-93.9C317.9,144.8,314.1,141,309.4,141z M226.5,504.4c6.6,30.8,14,65.6,14.6,131.6h-68.2
	c0.6-65.9,8-100.7,14.6-131.6c5.6-26.4,11-51.3,11-90.3V251.9h17.1v162.1C215.5,453.1,220.9,478,226.5,504.4z M300.9,234.9H113.1
	v-76.8h187.7V234.9z"/>
</svg>
