<?xml version="1.0" encoding="utf-8"?>
<!-- Generator: Adobe Illustrator 22.0.1, SVG Export Plug-In . SVG Version: 6.00 Build 0)  -->
<svg version="1.1" id="Слой_1" xmlns="http://www.w3.org/2000/svg" xmlns:xlink="http://www.w3.org/1999/xlink" x="0px" y="0px"
	 viewBox="0 0 87.7 69.2" style="enable-background:new 0 0 87.7 69.2;" xml:space="preserve">
<style type="text/css">
	.st0{fill:#B8B8B8;}
</style>
<g>
	<path class="st0" d="M86.3,0h-85C0.6,0,0,0.6,0,1.4v66.4c0,0.8,0.6,1.4,1.4,1.4h85c0.8,0,1.4-0.6,1.4-1.4V1.4
		C87.7,0.6,87.1,0,86.3,0L86.3,0z M79.4,58.1L60.3,38.3c-0.2-0.2-0.6-0.2-0.8,0L46.2,50L29.3,29.1c-0.1-0.1-0.3-0.2-0.5-0.2
		c-0.2,0-0.3,0.1-0.4,0.2L8.3,56V8.3h71.1V58.1z M79.4,58.1"/>
	<path class="st0" d="M58.4,28.4c3.8,0,6.8-3.1,6.8-6.8c0-3.8-3.1-6.8-6.8-6.8c-3.8,0-6.8,3.1-6.8,6.8
		C51.6,25.4,54.6,28.4,58.4,28.4L58.4,28.4z M58.4,28.4"/>
</g>
</svg>
