<?xml version="1.0" encoding="utf-8"?>
<!-- Generator: Adobe Illustrator 22.0.1, SVG Export Plug-In . SVG Version: 6.00 Build 0)  -->
<svg version="1.1" id="Capa_1" xmlns="http://www.w3.org/2000/svg" xmlns:xlink="http://www.w3.org/1999/xlink" x="0px" y="0px"
	 viewBox="72.5 295.6 265.6 198.1" style="enable-background:new 72.5 295.6 265.6 198.1;" xml:space="preserve">
<style type="text/css">
	.st0{fill:#1A2C3A;}
</style>
<path class="st0" d="M129.4,493.7c-3.5,0-6.3-2.8-6.3-6.3c0-22.1,18-40,40-40h84.3c22.1,0,40,18,40,40c0,3.5-2.8,6.3-6.3,6.3H129.4z
	 M274.4,481.1l-1-2.8c-3.9-10.9-14.3-18.3-25.9-18.3h-84.3c-11.6,0-22,7.3-25.9,18.3l-1,2.8H274.4z"/>
<path class="st0" d="M78.8,341.9c-3.5,0-6.3-2.8-6.3-6.3v-33.7c0-3.5,2.8-6.3,6.3-6.3h253c3.5,0,6.3,2.8,6.3,6.3v33.7
	c0,3.5-2.8,6.3-6.3,6.3H78.8z M325.5,329.3v-21.1H85.1v21.1H325.5z"/>
<path class="st0" d="M196.9,460c-3.1,0-5.8-2.3-6.2-5.4l-16.9-118.1c-0.2-1.7,0.2-3.3,1.2-4.7c1-1.3,2.5-2.2,4.2-2.5
	c0.3,0,0.6-0.1,0.9-0.1c3.1,0,5.8,2.3,6.3,5.4l16.1,112.7h5.9l16.1-112.7c0.4-3.1,3.1-5.4,6.2-5.4c0.3,0,0.6,0,0.9,0.1
	c3.4,0.5,5.8,3.7,5.4,7.1L220,454.6c-0.4,3.1-3.1,5.4-6.2,5.4H196.9z"/>
</svg>
