<?xml version="1.0" encoding="utf-8"?>
<!-- Generator: Adobe Illustrator 22.0.1, SVG Export Plug-In . SVG Version: 6.00 Build 0)  -->
<svg version="1.1" id="Слой_1" xmlns="http://www.w3.org/2000/svg" xmlns:xlink="http://www.w3.org/1999/xlink" x="0px" y="0px"
	 viewBox="0 0 50.3 28.5" style="enable-background:new 0 0 50.3 28.5;" xml:space="preserve">
<style type="text/css">
	.st0{fill:#2D3B46;}
</style>
<g>
	<path class="st0" d="M49.5,8.8c-0.3-0.4-0.7-0.7-1.2-0.9C48,3.5,44.4,0,39.9,0H28.7c-1.2,0-2.4,0.3-3.6,0.7C24,0.3,22.8,0,21.6,0
		H10.9C6.6,0,3,3.4,2.6,7.6C1.8,7.8,1.2,8.2,0.7,8.9c-0.6,0.9-0.9,1.9-0.6,2.9L2,21.3l0,0.1c0.4,1.2,1.6,2,2.9,2H5v5h4l1.7-5h29.8
		l1.7,5h4v-5c1.2-0.1,2.3-1,2.7-2.2l1.5-9.6C50.4,10.6,50.2,9.6,49.5,8.8L49.5,8.8z M39.9,1.7c3.4,0,6.2,2.6,6.7,5.9
		c-0.1,0-0.2,0-0.3,0.1c-0.1,0-0.3,0-0.4,0.1c-0.2,0-0.3,0.1-0.4,0.1c-0.1,0-0.3,0.1-0.4,0.1c-0.1,0.1-0.3,0.1-0.4,0.2
		c-0.1,0.1-0.2,0.1-0.3,0.2c-0.1,0.1-0.3,0.2-0.4,0.3c-0.1,0.1-0.2,0.1-0.3,0.2c-0.1,0.1-0.3,0.3-0.4,0.4c-0.1,0.1-0.1,0.1-0.2,0.2
		C43,9.7,42.9,9.8,42.8,10c0,0.1-0.1,0.1-0.1,0.2c-0.1,0.2-0.2,0.5-0.3,0.8c0,0,0,0,0,0c-0.1,0.3-0.1,0.6-0.2,0.9L42,15.1H26V2.2
		c0.9-0.4,1.8-0.6,2.7-0.6H39.9z M10.9,1.7h10.7c0.9,0,1.9,0.2,2.7,0.6v12.9H8.6l-0.5-3.5c0-0.3-0.1-0.5-0.2-0.8
		c0-0.1-0.1-0.2-0.1-0.2c-0.1-0.2-0.1-0.3-0.2-0.5c0-0.1-0.1-0.2-0.2-0.3C7.3,9.7,7.2,9.5,7.1,9.4C7.1,9.3,7,9.2,6.9,9.2
		C6.8,9,6.7,8.9,6.6,8.8C6.5,8.8,6.4,8.7,6.4,8.6C6.2,8.5,6.1,8.4,6,8.3C5.9,8.3,5.8,8.2,5.7,8.2C5.6,8.1,5.4,8,5.2,7.9
		C5.2,7.9,5.1,7.9,5,7.8C4.8,7.7,4.5,7.7,4.3,7.6C4.7,4.3,7.5,1.7,10.9,1.7L10.9,1.7z M5,21.8c-0.6,0-1.1-0.3-1.3-0.9l-1.9-9.5
		c-0.1-0.5,0-1.1,0.3-1.5c0.3-0.4,0.8-0.7,1.4-0.7c1.5,0,2.8,1.1,3,2.6l1.1,10H5z M7.8,26.8H6.7v-3.4h2.2L7.8,26.8z M11.2,21.8h-2
		l-0.4-5h33.1l-0.2,5H11.2z M44.4,26.8h-1.1l-1.1-3.4h2.2V26.8z M48.6,11.3l-1.4,9.5c-0.2,0.6-0.7,1-1.3,1h-2.5l0.5-9.8
		c0.1-1.6,1.4-2.8,3-2.8c0.5,0,1,0.2,1.3,0.6C48.5,10.2,48.7,10.8,48.6,11.3L48.6,11.3z M48.6,11.3"/>
</g>
<path class="st0" d="M12,11.5c0.2,0.2,0.4,0.2,0.6,0.2c0.2,0,0.4-0.1,0.6-0.2l0.8-0.8c0.4,0.2,0.8,0.3,1.1,0.3
	c0.4,0,0.8-0.1,1.1-0.3l0.8,0.8c0.2,0.2,0.4,0.2,0.6,0.2c0.2,0,0.4-0.1,0.6-0.2c0.3-0.3,0.3-0.9,0-1.2l-0.8-0.8
	c0.4-0.7,0.4-1.6,0-2.3l0.8-0.8c0.3-0.3,0.3-0.9,0-1.2c-0.3-0.3-0.9-0.3-1.2,0L16.2,6c-0.7-0.4-1.6-0.4-2.3,0l-0.8-0.8
	c-0.3-0.3-0.9-0.3-1.2,0c-0.3,0.3-0.3,0.9,0,1.2l0.8,0.8c-0.4,0.7-0.4,1.6,0,2.3L12,10.3C11.7,10.6,11.7,11.2,12,11.5L12,11.5z
	 M15.7,7.7c0.4,0.4,0.4,1,0,1.3c-0.4,0.4-1,0.4-1.3,0c-0.4-0.4-0.4-1,0-1.3c0.2-0.2,0.4-0.3,0.7-0.3C15.3,7.4,15.6,7.5,15.7,7.7
	L15.7,7.7z M15.7,7.7"/>
<path class="st0" d="M32.1,11.5c0.2,0.2,0.4,0.2,0.6,0.2c0.2,0,0.4-0.1,0.6-0.2l0.8-0.8c0.4,0.2,0.8,0.3,1.1,0.3
	c0.4,0,0.8-0.1,1.1-0.3l0.8,0.8c0.2,0.2,0.4,0.2,0.6,0.2c0.2,0,0.4-0.1,0.6-0.2c0.3-0.3,0.3-0.9,0-1.2l-0.8-0.8
	c0.4-0.7,0.4-1.6,0-2.3l0.8-0.8c0.3-0.3,0.3-0.9,0-1.2c-0.3-0.3-0.9-0.3-1.2,0L36.3,6c-0.7-0.4-1.6-0.4-2.3,0l-0.8-0.8
	c-0.3-0.3-0.9-0.3-1.2,0c-0.3,0.3-0.3,0.9,0,1.2l0.8,0.8c-0.4,0.7-0.4,1.6,0,2.3l-0.8,0.8C31.8,10.6,31.8,11.2,32.1,11.5L32.1,11.5z
	 M35.9,7.7c0.4,0.4,0.4,1,0,1.3c-0.4,0.4-1,0.4-1.3,0c-0.4-0.4-0.4-1,0-1.3c0.2-0.2,0.4-0.3,0.7-0.3C35.4,7.4,35.7,7.5,35.9,7.7
	L35.9,7.7z M35.9,7.7"/>
</svg>
