<?xml version="1.0" encoding="utf-8"?>
<!-- Generator: Adobe Illustrator 22.0.1, SVG Export Plug-In . SVG Version: 6.00 Build 0)  -->
<svg version="1.1" id="Layer_1" xmlns="http://www.w3.org/2000/svg" xmlns:xlink="http://www.w3.org/1999/xlink" x="0px" y="0px"
	 viewBox="-49 141 512 512" style="enable-background:new -49 141 512 512;" xml:space="preserve">
<style type="text/css">
	.st0{fill:#1A2C3A;}
</style>
<path class="st0" d="M431,290.3h-10.7V237c0-29.4-23.9-53.3-53.3-53.3H47c-29.4,0-53.3,23.9-53.3,53.3v53.3H-17
	c-17.6,0-32,14.4-32,32v213.3c0,17.6,14.4,32,32,32h10.7v32c0,5.9,4.8,10.7,10.7,10.7h85.3c5.9,0,10.7-4.8,10.7-10.7v-32h213.3v32
	c0,5.9,4.8,10.7,10.7,10.7h85.3c5.9,0,10.7-4.8,10.7-10.7v-32H431c17.6,0,32-14.4,32-32V322.3C463,304.7,448.6,290.3,431,290.3z
	 M15,237c0-17.6,14.4-32,32-32h320c17.6,0,32,14.4,32,32v53.3h-10.7c-17.6,0-32,14.4-32,32V397H57.7v-74.7c0-17.6-14.4-32-32-32H15
	V237z M57.7,418.3h298.7V461H57.7V418.3z M79,589H15v-21.3h64V589z M399,589h-64v-21.3h64V589z M441.7,535.7
	c0,5.9-4.8,10.7-10.7,10.7h-21.3h-85.3H89.7H4.3H-17c-5.9,0-10.7-4.8-10.7-10.7V322.3c0-5.9,4.8-10.7,10.7-10.7h42.7
	c5.9,0,10.7,4.8,10.7,10.7v85.3v64c0,5.9,4.8,10.7,10.7,10.7h320c5.9,0,10.7-4.8,10.7-10.7v-64v-85.3c0-5.9,4.8-10.7,10.7-10.7H431
	c5.9,0,10.7,4.8,10.7,10.7V535.7z"/>
</svg>
