<?xml version="1.0" encoding="utf-8"?>
<!-- Generator: Adobe Illustrator 22.0.1, SVG Export Plug-In . SVG Version: 6.00 Build 0)  -->
<svg version="1.1" id="Capa_1" xmlns="http://www.w3.org/2000/svg" xmlns:xlink="http://www.w3.org/1999/xlink" x="0px" y="0px"
	 viewBox="-49 141 512 512" style="enable-background:new -49 141 512 512;" xml:space="preserve">
<style type="text/css">
	.st0{fill:#1A2C3A;}
</style>
<path class="st0" d="M324.3,397h-9.6l19.4-193.7c12.8-4.2,22.2-16.1,22.2-30.3c0-17.6-14.4-32-32-32H89.7c-17.6,0-32,14.4-32,32
	c0,14.2,9.4,26.1,22.2,30.3L99.2,397h-9.6c-17.6,0-32,14.4-32,32c0,13.9,8.9,25.6,21.3,30v183.3c0,5.9,4.8,10.7,10.7,10.7
	s10.7-4.8,10.7-10.7V525h213.3v117.3c0,5.9,4.8,10.7,10.7,10.7s10.7-4.8,10.7-10.7V459c12.4-4.4,21.3-16.1,21.3-30
	C356.3,411.4,342,397,324.3,397z M266.2,397l9.6-192h36.8l-19.2,192H266.2z M169.1,397l-9.6-192h36.8v192H169.1z M217.7,205h36.8
	l-9.6,192h-27.2V205z M89.7,162.3h234.7c5.9,0,10.7,4.8,10.7,10.7s-4.8,10.7-10.7,10.7H89.7c-5.9,0-10.7-4.8-10.7-10.7
	S83.8,162.3,89.7,162.3z M101.4,205h36.8l9.6,192h-27.2L101.4,205z M100.3,503.7V461h213.3v42.7H100.3z M324.3,439.7H89.7
	c-5.9,0-10.7-4.8-10.7-10.7c0-5.9,4.8-10.7,10.7-10.7h234.7c5.9,0,10.7,4.8,10.7,10.7C335,434.9,330.2,439.7,324.3,439.7z"/>
</svg>
