<?xml version="1.0" encoding="utf-8"?>
<!-- Generator: Adobe Illustrator 22.0.1, SVG Export Plug-In . SVG Version: 6.00 Build 0)  -->
<svg version="1.1" id="Capa_1" xmlns="http://www.w3.org/2000/svg" xmlns:xlink="http://www.w3.org/1999/xlink" x="0px" y="0px"
	 viewBox="-49 141 430.2 430.2" style="enable-background:new -49 141 430.2 430.2;" xml:space="preserve">
<style type="text/css">
	.st0{fill:#1A2C3A;}
</style>
<path class="st0" d="M372.3,194.8H-40c-5,0-9-4-9-9V150c0-5,4-9,9-9h412.3c5,0,9,4,9,9v35.9C381.2,190.8,377.2,194.8,372.3,194.8z
	 M-31.1,176.9h394.4v-17.9H-31.1V176.9z"/>
<path class="st0" d="M327.5,535.4H4.8c-14.4,0.4-26.5-10.9-26.9-25.4c0-0.5,0-1,0-1.5V212.7h17.9v295.8c-0.4,4.5,2.9,8.5,7.4,9
	c0.5,0.1,1.1,0.1,1.6,0h322.7c4.5,0.4,8.5-2.9,9-7.4c0.1-0.5,0.1-1.1,0-1.6V212.7h17.9v295.8c0.4,14.4-10.9,26.5-25.4,26.9
	C328.5,535.4,328,535.4,327.5,535.4z"/>
<path class="st0" d="M49.6,571.2H13.7c-5,0-9-4-9-9v-35.9c0-5,4-9,9-9h35.9c5,0,9,4,9,9v35.9C58.6,567.2,54.5,571.2,49.6,571.2z
	 M22.7,553.3h17.9v-17.9H22.7V553.3z"/>
<path class="st0" d="M318.5,571.2h-35.9c-5,0-9-4-9-9v-35.9c0-5,4-9,9-9h35.9c5,0,9,4,9,9v35.9C327.5,567.2,323.4,571.2,318.5,571.2
	z M291.6,553.3h17.9v-17.9h-17.9V553.3z"/>
<path class="st0" d="M-13.1,347.2h358.5v17.9H-13.1V347.2z"/>
<path class="st0" d="M309.5,329.2h-17.9v-98.6h-251v98.6H22.7V221.7c0-5,4-9,9-9h268.9c5,0,9,4,9,9V329.2z"/>
<path class="st0" d="M309.5,499.5h-17.9v-98.6h-251v98.6H22.7V392c0-5,4-9,9-9h268.9c5,0,9,4,9,9V499.5z"/>
<path class="st0" d="M148.2,275.4H184v17.9h-35.9V275.4z"/>
<path class="st0" d="M148.2,445.7H184v17.9h-35.9V445.7z"/>
</svg>
