<?xml version="1.0" encoding="utf-8"?>
<!-- Generator: Adobe Illustrator 22.0.1, SVG Export Plug-In . SVG Version: 6.00 Build 0)  -->
<svg version="1.1" id="Слой_1" xmlns="http://www.w3.org/2000/svg" xmlns:xlink="http://www.w3.org/1999/xlink" x="0px" y="0px"
	 viewBox="0 0 18.8 18.3" style="enable-background:new 0 0 18.8 18.3;" xml:space="preserve">
<style type="text/css">
	.st0{fill:#4D5BA3;}
</style>
<g>
	<path class="st0" d="M6.5,0c0.5,0,1.2,0,2.2,0.1v3.7c-3,0-4.5,1.4-4.5,4.1l0,1.7h3.1v8.7H0V8.8C0,2.9,2.2,0,6.5,0L6.5,0z M18.8,3.8
		V0.1C18,0,17.4,0,17,0c-4.3,0-6.5,2.9-6.5,8.8v9.4h7.3V9.5h-3.1l0-1.7C14.7,5.3,16.1,3.9,18.8,3.8L18.8,3.8z M18.8,3.8"/>
</g>
</svg>
