<?xml version="1.0" encoding="utf-8"?>
<!-- Generator: Adobe Illustrator 22.0.1, SVG Export Plug-In . SVG Version: 6.00 Build 0)  -->
<svg version="1.1" id="Слой_1" xmlns="http://www.w3.org/2000/svg" xmlns:xlink="http://www.w3.org/1999/xlink" x="0px" y="0px"
	 viewBox="0 0 190.5 182.6" style="enable-background:new 0 0 190.5 182.6;" xml:space="preserve">
<style type="text/css">
	.st0{opacity:0.3;fill:#FFC26B;}
</style>
<path class="st0" d="M45.6,182.5c-3.2,0-6.2-1-8.8-2.9c-4.6-3.4-6.9-9-5.9-14.6l7.7-45.2c0.2-1.4-0.2-2.9-1.3-3.9l-32.8-32
	C0.4,79.9-1,74,0.7,68.6c1.8-5.4,6.4-9.3,12.1-10.2l45.4-6.6c1.4-0.2,2.7-1.1,3.3-2.4L81.8,8.3C84.3,3.2,89.5,0,95.2,0
	c5.7,0,10.9,3.2,13.4,8.3l20.3,41.2c0.6,1.3,1.9,2.2,3.3,2.4l45.4,6.6c5.7,0.8,10.3,4.7,12.1,10.2c1.8,5.4,0.3,11.3-3.8,15.3
	l-32.8,32c-1,1-1.5,2.5-1.3,3.9l7.8,45.2c1,5.6-1.3,11.2-5.9,14.6c-2.6,1.9-5.6,2.9-8.8,2.9c-2.4,0-4.8-0.6-7-1.7l-40.6-21.4
	c-0.6-0.3-1.3-0.5-2.1-0.5c-0.7,0-1.4,0.2-2.1,0.5l-40.6,21.3C50.4,181.9,48,182.5,45.6,182.5z"/>
</svg>
