<?xml version="1.0" encoding="utf-8"?>
<!-- Generator: Adobe Illustrator 22.0.1, SVG Export Plug-In . SVG Version: 6.00 Build 0)  -->
<svg version="1.1" id="Capa_1" xmlns="http://www.w3.org/2000/svg" xmlns:xlink="http://www.w3.org/1999/xlink" x="0px" y="0px"
	 viewBox="-33 157 480 480" style="enable-background:new -33 157 480 480;" xml:space="preserve">
<style type="text/css">
	.st0{fill:#3F51B5;}
</style>
<rect x="199" y="557" class="st0" width="16" height="16"/>
<path class="st0" d="M439,573h-8V285c0-17.7-14.3-32-32-32h-48v-64c0-17.7-14.3-32-32-32H95c-17.7,0-32,14.3-32,32v64H15
	c-17.7,0-32,14.3-32,32v288h-8c-4.4,0-8,3.6-8,8v24c0,17.7,14.3,32,32,32h416c17.7,0,32-14.3,32-32v-24C447,576.6,443.4,573,439,573
	z M95,501h224c17.7,0,32-14.3,32-32V301h32v224H31V301h32v168C63,486.7,77.3,501,95,501z M79,237h256v232c0,8.8-7.2,16-16,16H95
	c-8.8,0-16-7.2-16-16V237z M95,173h224c8.8,0,16,7.2,16,16v32H79v-32C79,180.2,86.2,173,95,173z M-1,285c0-8.8,7.2-16,16-16h48v16
	H23c-4.4,0-8,3.6-8,8v240c0,4.4,3.6,8,8,8h368c4.4,0,8-3.6,8-8V293c0-4.4-3.6-8-8-8h-40v-16h48c8.8,0,16,7.2,16,16v288H279
	c-2.1,0-4.2,0.8-5.7,2.3L259.7,589H154.3l-13.7-13.7c-1.5-1.5-3.5-2.3-5.7-2.3H-1V285z M431,605c0,8.8-7.2,16-16,16H-1
	c-8.8,0-16-7.2-16-16v-16h148.7l13.7,13.7c1.5,1.5,3.5,2.3,5.7,2.3h112c2.1,0,4.2-0.8,5.7-2.3l13.7-13.7H431V605z"/>
<rect x="134.5" y="377" class="st0" width="147.5" height="16"/>
<rect x="134.5" y="313" class="st0" width="147.5" height="16"/>
<rect x="159.1" y="281" class="st0" width="122.9" height="16"/>
<rect x="134.5" y="409" class="st0" width="136.2" height="16"/>
<rect x="159.1" y="345" class="st0" width="122.9" height="16"/>
<rect x="95" y="189" class="st0" width="16" height="16"/>
<rect x="127" y="189" class="st0" width="16" height="16"/>
<rect x="159" y="189" class="st0" width="16" height="16"/>
<rect x="132" y="345" class="st0" width="17.3" height="16"/>
<rect x="132" y="281" class="st0" width="17.3" height="16"/>
</svg>
