<?xml version="1.0" encoding="utf-8"?>
<!-- Generator: Adobe Illustrator 22.0.1, SVG Export Plug-In . SVG Version: 6.00 Build 0)  -->
<svg version="1.1" id="Capa_1" xmlns="http://www.w3.org/2000/svg" xmlns:xlink="http://www.w3.org/1999/xlink" x="0px" y="0px"
	 viewBox="0 0 480 480" style="enable-background:new 0 0 480 480;" xml:space="preserve">
<style type="text/css">
	.st0{fill:#3F51B5;}
</style>
<path class="st0" d="M125.7,456.7c-14.2,0-25.7-11.5-25.7-25.7V157.2c0-14.2,11.5-25.7,25.7-25.7h328.6c14.2,0,25.7,11.5,25.7,25.7
	V431c0,14.2-11.5,25.7-25.7,25.7H125.7z M125.7,146.4c-6,0-10.8,4.9-10.8,10.8V431c0,6,4.9,10.8,10.8,10.8h328.6
	c6,0,10.8-4.9,10.8-10.8V157.2c0-6-4.9-10.8-10.8-10.8L125.7,146.4L125.7,146.4z"/>
<path class="st0" d="M76.4,418c-14.2,0-25.7-11.5-25.7-25.7v-292c0-14.2,11.5-25.7,25.7-25.7h346.8c14.2,0,25.7,11.5,25.7,25.7v7.4
	H434v-7.4c0-6-4.9-10.8-10.8-10.8H76.4c-6,0-10.8,4.9-10.8,10.8v292.1c0,6,4.9,10.8,10.8,10.8h7.4V418H76.4z"/>
<path class="st0" d="M25.3,365.4c-14.2,0-25.7-11.5-25.7-25.7v-292C-0.4,33.5,11.1,22,25.3,22h346.8c14.2,0,25.7,11.5,25.7,25.7v7.4
	H383v-7.4c0-6-4.9-10.8-10.8-10.8H25.3c-6,0-10.8,4.9-10.8,10.8v292.1c0,6,4.9,10.8,10.8,10.8h7.4v14.8L25.3,365.4L25.3,365.4z"/>
<path class="st0" d="M244.4,277.2L113.9,407.7l-10.5-10.5l135.7-135.7c1.4-1.4,3.3-2.2,5.2-2.2c2,0,3.8,0.8,5.2,2.2l144.8,144.8
	L384,416.8L244.4,277.2z"/>
<path class="st0" d="M372.2,277.2L333,316.4l-10.5-10.5l44.4-44.4c1.4-1.4,3.3-2.2,5.2-2.2c2,0,3.8,0.8,5.2,2.2l99.2,99.2L466,371.2
	L372.2,277.2z"/>
<path class="st0" d="M308.3,255.9c-24.2,0-43.9-19.7-43.9-43.9s19.7-43.9,43.9-43.9s43.9,19.7,43.9,43.9
	C352.2,236.2,332.5,255.9,308.3,255.9L308.3,255.9z M308.3,182.9c-16,0-29.1,13.1-29.1,29.1s13.1,29.1,29.1,29.1
	s29.1-13.1,29.1-29.1S324.3,182.9,308.3,182.9z"/>
</svg>
