<?xml version="1.0" encoding="utf-8"?>
<!-- Generator: Adobe Illustrator 22.0.1, SVG Export Plug-In . SVG Version: 6.00 Build 0)  -->
<svg version="1.1" id="Capa_1" xmlns="http://www.w3.org/2000/svg" xmlns:xlink="http://www.w3.org/1999/xlink" x="0px" y="0px"
	 viewBox="-33 157 480 480" style="enable-background:new -33 157 480 480;" xml:space="preserve">
<style type="text/css">
	.st0{fill:#3F51B5;}
</style>
<path class="st0" d="M268.9,203.6h-38.7v-15.5h-49.1c-6.5-18.3-24-31-43.8-31s-37.3,12.7-43.8,31H44.4v15.5H5.7
	c-21.3,0-38.7,17.4-38.7,38.7v356.1c0,21.3,17.4,38.7,38.7,38.7h263.2c21.3,0,38.7-17.4,38.7-38.7V242.3
	C307.6,220.9,290.3,203.6,268.9,203.6z M230.2,265.5V250h31v340.6H13.5V250h31v15.5H230.2z M59.9,203.6h45.8l1.3-6.2
	c2.9-14.3,15.7-24.8,30.3-24.8c14.7,0,27.4,10.4,30.3,24.8l1.3,6.2h45.8V250H59.9V203.6z M292.2,598.4c0,12.8-10.4,23.2-23.2,23.2
	H5.7c-12.8,0-23.2-10.4-23.2-23.2V242.3c0-12.8,10.4-23.2,23.2-23.2h38.7v15.5H-2v371.6h278.7V234.5h-46.5V219h38.7
	c12.8,0,23.2,10.4,23.2,23.2V598.4z"/>
<rect x="48.3" y="505.5" class="st0" width="147.4" height="15.5"/>
<rect x="48.3" y="474.5" class="st0" width="174.2" height="15.5"/>
<rect x="48.3" y="443.6" class="st0" width="174.2" height="15.5"/>
<rect x="48.3" y="412.6" class="st0" width="174.2" height="15.5"/>
<rect x="48.3" y="381.6" class="st0" width="174.2" height="15.5"/>
<rect x="48.3" y="350.6" class="st0" width="174.2" height="15.5"/>
<rect x="48.3" y="319.7" class="st0" width="174.2" height="15.5"/>
<path class="st0" d="M423.8,281c-2.7,0-5.3,0.6-7.7,1.4v-9.2c0-21.3-17.4-38.7-38.7-38.7s-38.7,17.4-38.7,38.7v295.6l21,56
	c2.7,7.3,9.9,12.3,17.7,12.3c7.8,0,15-4.9,17.7-12.3l21-56V434.4c2.4,0.9,5,1.4,7.7,1.4c12.8,0,23.2-10.4,23.2-23.2V304.2
	C447,291.4,436.6,281,423.8,281z M423.8,296.5c4.3,0,7.7,3.5,7.7,7.7v7.7H416v-7.7C416,299.9,419.5,296.5,423.8,296.5z M400.5,559.7
	h-15.5h-15.5h-15.5V342.9h15.5h15.5h15.5v69.7V559.7z M354.1,327.4v-15.5h46.5v15.5H354.1z M377.3,250c12.8,0,23.2,10.4,23.2,23.2
	v23.2h-46.5v-23.2C354.1,260.4,364.5,250,377.3,250z M380.5,619.4c-1,2.7-5.4,2.7-6.4,0l-16.6-44.2h39.6L380.5,619.4z M423.8,420.3
	c-4.3,0-7.7-3.5-7.7-7.7v-85.2h15.5v85.2C431.5,416.9,428,420.3,423.8,420.3z"/>
<rect x="209.1" y="505.5" class="st0" width="13.4" height="15.5"/>
</svg>
