<?xml version="1.0" encoding="utf-8"?>
<!-- Generator: Adobe Illustrator 22.0.1, SVG Export Plug-In . SVG Version: 6.00 Build 0)  -->
<svg version="1.1" id="Capa_1" xmlns="http://www.w3.org/2000/svg" xmlns:xlink="http://www.w3.org/1999/xlink" x="0px" y="0px"
	 viewBox="0 0 480 480" style="enable-background:new 0 0 480 480;" xml:space="preserve">
<style type="text/css">
	.st0{fill:#FFFFFF;}
</style>
<path class="st0" d="M301.9,46.6h-38.7V31.1h-49.1c-6.5-18.3-24-31-43.8-31s-37.3,12.7-43.8,31H77.4v15.5H38.7
	C17.4,46.6,0,64,0,85.3v356.1c0,21.3,17.4,38.7,38.7,38.7h263.2c21.3,0,38.7-17.4,38.7-38.7V85.3C340.6,63.9,323.3,46.6,301.9,46.6z
	 M263.2,108.5V93h31v340.6H46.5V93h31v15.5H263.2z M92.9,46.6h45.8l1.3-6.2c2.9-14.3,15.7-24.8,30.3-24.8
	c14.7,0,27.4,10.4,30.3,24.8l1.3,6.2h45.8V93H92.9V46.6z M325.2,441.4c0,12.8-10.4,23.2-23.2,23.2H38.7c-12.8,0-23.2-10.4-23.2-23.2
	V85.3c0-12.8,10.4-23.2,23.2-23.2h38.7v15.5H31v371.6h278.7V77.5h-46.5V62h38.7c12.8,0,23.2,10.4,23.2,23.2L325.2,441.4L325.2,441.4
	z"/>
<rect x="81.3" y="348.5" class="st0" width="147.4" height="15.5"/>
<rect x="81.3" y="317.5" class="st0" width="174.2" height="15.5"/>
<rect x="81.3" y="286.6" class="st0" width="174.2" height="15.5"/>
<rect x="81.3" y="255.6" class="st0" width="174.2" height="15.5"/>
<rect x="81.3" y="224.6" class="st0" width="174.2" height="15.5"/>
<rect x="81.3" y="193.6" class="st0" width="174.2" height="15.5"/>
<rect x="81.3" y="162.7" class="st0" width="174.2" height="15.5"/>
<path class="st0" d="M456.8,124c-2.7,0-5.3,0.6-7.7,1.4v-9.2c0-21.3-17.4-38.7-38.7-38.7s-38.7,17.4-38.7,38.7v295.6l21,56
	c2.7,7.3,9.9,12.3,17.7,12.3c7.8,0,15-4.9,17.7-12.3l21-56V277.4c2.4,0.9,5,1.4,7.7,1.4c12.8,0,23.2-10.4,23.2-23.2V147.2
	C480,134.4,469.6,124,456.8,124z M456.8,139.5c4.3,0,7.7,3.5,7.7,7.7v7.7H449v-7.7C449,142.9,452.5,139.5,456.8,139.5z M433.5,402.7
	H418h-15.5H387V185.9h15.5H418h15.5v69.7V402.7z M387.1,170.4v-15.5h46.5v15.5H387.1z M410.3,93c12.8,0,23.2,10.4,23.2,23.2v23.2
	H387v-23.2C387.1,103.4,397.5,93,410.3,93z M413.5,462.4c-1,2.7-5.4,2.7-6.4,0l-16.6-44.2h39.6L413.5,462.4z M456.8,263.3
	c-4.3,0-7.7-3.5-7.7-7.7v-85.2h15.5v85.2C464.5,259.9,461,263.3,456.8,263.3z"/>
<rect x="242.1" y="348.5" class="st0" width="13.4" height="15.5"/>
</svg>
