<?xml version="1.0" encoding="utf-8"?>
<!-- Generator: Adobe Illustrator 22.0.1, SVG Export Plug-In . SVG Version: 6.00 Build 0)  -->
<svg version="1.1" id="Слой_1" xmlns="http://www.w3.org/2000/svg" xmlns:xlink="http://www.w3.org/1999/xlink" x="0px" y="0px"
	 viewBox="0 0 100 100" style="enable-background:new 0 0 100 100;" xml:space="preserve">
<style type="text/css">
	.st0{fill:#A6A6A6;}
</style>
<g>
	<path class="st0" d="M90.2,14.4H69.4V11c0-6.1-4.9-11-11-11H38.7c-6.1,0-11,4.9-11,11v3.4H6.8c-1.5,0-2.8,1.2-2.8,2.8
		s1.2,2.8,2.8,2.8h5v65.2c0,8.2,6.7,14.8,14.8,14.8h43.7c8.2,0,14.8-6.7,14.8-14.8V19.9h5c1.5,0,2.8-1.2,2.8-2.8
		S91.8,14.4,90.2,14.4L90.2,14.4z M33.2,11c0-3,2.4-5.4,5.4-5.4h19.8c3,0,5.4,2.4,5.4,5.4v3.4H33.2V11z M79.7,85.2
		c0,5.1-4.2,9.3-9.3,9.3H26.7c-5.1,0-9.3-4.2-9.3-9.3V19.9h62.3L79.7,85.2L79.7,85.2z M79.7,85.2"/>
	<path class="st0" d="M48.5,84.5c1.5,0,2.8-1.2,2.8-2.8V32.7c0-1.5-1.2-2.8-2.8-2.8c-1.5,0-2.8,1.2-2.8,2.8v49
		C45.8,83.2,47,84.5,48.5,84.5L48.5,84.5z M48.5,84.5"/>
	<path class="st0" d="M30.4,81.4c1.5,0,2.8-1.2,2.8-2.8V35.7c0-1.5-1.2-2.8-2.8-2.8s-2.8,1.2-2.8,2.8v42.9
		C27.7,80.2,28.9,81.4,30.4,81.4L30.4,81.4z M30.4,81.4"/>
	<path class="st0" d="M66.7,81.4c1.5,0,2.8-1.2,2.8-2.8V35.7c0-1.5-1.2-2.8-2.8-2.8c-1.5,0-2.8,1.2-2.8,2.8v42.9
		C63.9,80.2,65.1,81.4,66.7,81.4L66.7,81.4z M66.7,81.4"/>
</g>
</svg>
