<?xml version="1.0" encoding="utf-8"?>
<!-- Generator: Adobe Illustrator 22.0.1, SVG Export Plug-In . SVG Version: 6.00 Build 0)  -->
<svg version="1.1" id="Режим_изоляции"
	 xmlns="http://www.w3.org/2000/svg" xmlns:xlink="http://www.w3.org/1999/xlink" x="0px" y="0px" viewBox="0 0 19.2 19.2"
	 style="enable-background:new 0 0 19.2 19.2;" xml:space="preserve">
<style type="text/css">
	.st0{fill:#3BB885;}
</style>
<g>
	<g>
		<path class="st0" d="M19.2,6.5c-0.1-1.5-0.7-3-1.7-4c-2.1-2.1-5.6-2.3-7.7-0.3l0,0l-8.6,8.6c-1.6,1.6-1.5,4.3,0.2,5.9
			c0.8,0.8,1.8,1.2,2.9,1.2c0,0,0,0,0.1,0c1,0,1.9-0.3,2.6-1l0,0l8.4-8.4c1-1,1-2.7,0-3.7C14.8,4.3,14.1,4,13.4,4S12,4.3,11.5,4.8
			l-7.3,7.3l1.2,1.2L12.7,6c0.4-0.4,1-0.4,1.4,0c0.4,0.4,0.4,1,0,1.4l-8.2,8.2c-0.4,0.5-1.1,0.7-1.7,0.7c-0.7,0-1.3-0.3-1.7-0.7
			c-1-1-1.1-2.7-0.2-3.6l8.4-8.4c1.5-1.5,4.1-1.4,5.6,0.2c0.7,0.7,1.2,1.8,1.3,2.9c0.1,1.1-0.3,2.1-1,2.8l0.6,0.6l-0.6-0.6l-7.8,7.8
			l1.2,1.2l7.8-7.8C18.7,9.5,19.3,8.1,19.2,6.5L19.2,6.5z M19.2,6.5"/>
	</g>
</g>
</svg>
