<?xml version="1.0" encoding="utf-8"?>
<!-- Generator: Adobe Illustrator 22.0.1, SVG Export Plug-In . SVG Version: 6.00 Build 0)  -->
<svg version="1.1" id="Режим_изоляции"
	 xmlns="http://www.w3.org/2000/svg" xmlns:xlink="http://www.w3.org/1999/xlink" x="0px" y="0px" viewBox="0 0 19.2 19.2"
	 style="enable-background:new 0 0 19.2 19.2;" xml:space="preserve">
<style type="text/css">
	.st0{fill:#3BB885;}
	.st1{fill:#FFFFFF;}
</style>
<path class="st0" d="M19.2,9.6c0,5.3-4.3,9.6-9.6,9.6C4.3,19.2,0,14.9,0,9.6C0,4.3,4.3,0,9.6,0C14.9,0,19.2,4.3,19.2,9.6L19.2,9.6z
	 M19.2,9.6"/>
<path class="st1" d="M12.4,5.6L9.6,8.5L6.8,5.6C6.5,5.3,6,5.3,5.6,5.6C5.3,6,5.3,6.5,5.6,6.8l2.8,2.8l-2.8,2.8
	c-0.3,0.3-0.3,0.8,0,1.1c0.3,0.3,0.8,0.3,1.1,0l2.8-2.8l2.8,2.8c0.3,0.3,0.8,0.3,1.1,0c0.3-0.3,0.3-0.8,0-1.1l-2.8-2.8l2.8-2.8
	c0.3-0.3,0.3-0.8,0-1.1C13.2,5.3,12.7,5.3,12.4,5.6L12.4,5.6z M12.4,5.6"/>
</svg>
