<?xml version="1.0" encoding="utf-8"?>
<!-- Generator: Adobe Illustrator 22.0.1, SVG Export Plug-In . SVG Version: 6.00 Build 0)  -->
<svg version="1.1" id="Режим_изоляции"
	 xmlns="http://www.w3.org/2000/svg" xmlns:xlink="http://www.w3.org/1999/xlink" x="0px" y="0px" viewBox="0 0 19.2 19.2"
	 style="enable-background:new 0 0 19.2 19.2;" xml:space="preserve">
<style type="text/css">
	.st0{fill:#3BB885;}
</style>
<g>
	<path class="st0" d="M17.9,4.8c-0.9-1.5-2-2.6-3.5-3.5C12.9,0.4,11.3,0,9.6,0C7.9,0,6.3,0.4,4.8,1.3c-1.5,0.9-2.6,2-3.5,3.5
		C0.4,6.3,0,7.9,0,9.6c0,1.7,0.4,3.3,1.3,4.8c0.9,1.5,2,2.6,3.5,3.5c1.5,0.9,3.1,1.3,4.8,1.3c1.7,0,3.3-0.4,4.8-1.3
		c1.5-0.9,2.6-2,3.5-3.5c0.9-1.5,1.3-3.1,1.3-4.8C19.2,7.9,18.8,6.3,17.9,4.8L17.9,4.8z M14.5,7.7l-5.7,5.7
		c-0.1,0.1-0.3,0.2-0.5,0.2c-0.2,0-0.3-0.1-0.5-0.2L4,9.6C3.9,9.5,3.9,9.4,3.9,9.2C3.9,9,3.9,8.8,4,8.7l1-0.9
		c0.1-0.1,0.3-0.2,0.5-0.2c0.2,0,0.3,0.1,0.5,0.2l2.4,2.4l4.3-4.3c0.1-0.1,0.3-0.2,0.5-0.2c0.2,0,0.3,0.1,0.5,0.2l1,0.9
		c0.1,0.1,0.2,0.3,0.2,0.5C14.7,7.5,14.6,7.6,14.5,7.7L14.5,7.7z M15.8,8.1"/>
</g>
</svg>
