<?xml version="1.0" encoding="utf-8"?>
<!-- Generator: Adobe Illustrator 22.0.1, SVG Export Plug-In . SVG Version: 6.00 Build 0)  -->
<svg version="1.1" id="Capa_1" xmlns="http://www.w3.org/2000/svg" xmlns:xlink="http://www.w3.org/1999/xlink" x="0px" y="0px"
	 viewBox="-49 141 512 512" style="enable-background:new -49 141 512 512;" xml:space="preserve">
<style type="text/css">
	.st0{fill:#FFFFFF;}
</style>
<path class="st0" d="M337.7,574.5c-35.6,0-64.5-29-64.5-64.5s29-64.5,64.5-64.5s64.5,29,64.5,64.5
	C402.2,545.5,373.3,574.5,337.7,574.5z M337.7,477.7c-17.8,0-32.3,14.5-32.3,32.3s14.5,32.3,32.3,32.3s32.3-14.5,32.3-32.3
	S355.5,477.7,337.7,477.7z"/>
<path class="st0" d="M117.2,574.5c-35.6,0-64.5-29-64.5-64.5s29-64.5,64.5-64.5s64.5,29,64.5,64.5
	C181.7,545.5,152.8,574.5,117.2,574.5z M117.2,477.7c-17.8,0-32.3,14.5-32.3,32.3s14.5,32.3,32.3,32.3s32.3-14.5,32.3-32.3
	S135,477.7,117.2,477.7z"/>
<path class="st0" d="M400.7,371.4l-43.9-87.4h-75v-32.3h85c6.1,0,11.7,3.4,14.4,8.9l48.4,96.3L400.7,371.4z"/>
<rect x="167.2" y="494.3" class="st0" width="122.1" height="32.3"/>
<path class="st0" d="M68.8,526.6H12.8c-8.9,0-16.1-7.2-16.1-16.1c0-8.9,7.2-16.1,16.1-16.1h55.9c8.9,0,16.1,7.2,16.1,16.1
	C84.9,519.4,77.7,526.6,68.8,526.6z"/>
<path class="st0" d="M446.9,526.6h-60.8c-8.9,0-16.1-7.2-16.1-16.1c0-8.9,7.2-16.1,16.1-16.1h44.6v-83.2l-23.5-30.3H281.8
	c-8.9,0-16.1-7.2-16.1-16.1V251.8H12.8c-8.9,0-16.1-7.2-16.1-16.1s7.2-16.1,16.1-16.1h268.9c8.9,0,16.1,7.2,16.1,16.1v112.9h117.2
	c5,0,9.7,2.3,12.7,6.2l31.7,40.9c2.2,2.8,3.4,6.3,3.4,9.9v104.9C463,519.4,455.8,526.6,446.9,526.6z"/>
<path class="st0" d="M67.7,444.9H-6.5c-8.9,0-16.1-7.2-16.1-16.1c0-8.9,7.2-16.1,16.1-16.1h74.2c8.9,0,16.1,7.2,16.1,16.1
	C83.8,437.6,76.6,444.9,67.7,444.9z"/>
<path class="st0" d="M104.8,381.4H-32.9c-8.9,0-16.1-7.2-16.1-16.1c0-8.9,7.2-16.1,16.1-16.1h137.7c8.9,0,16.1,7.2,16.1,16.1
	C120.9,374.2,113.7,381.4,104.8,381.4z"/>
<path class="st0" d="M131.2,317.9H-6.5c-8.9,0-16.1-7.2-16.1-16.1s7.2-16.1,16.1-16.1h137.7c8.9,0,16.1,7.2,16.1,16.1
	S140.1,317.9,131.2,317.9z"/>
</svg>
