<?xml version="1.0" encoding="utf-8"?>
<!-- Generator: Adobe Illustrator 22.0.1, SVG Export Plug-In . SVG Version: 6.00 Build 0)  -->
<svg version="1.1" id="Capa_1" xmlns="http://www.w3.org/2000/svg" xmlns:xlink="http://www.w3.org/1999/xlink" x="0px" y="0px"
	 viewBox="238.7 455 80.4 54.2" style="enable-background:new 238.7 455 80.4 54.2;" xml:space="preserve">
<style type="text/css">
	.st0{fill:#3F51B5;}
</style>
<path class="st0" d="M277.7,496.4l-26.2-27.2c-2.9-2.9-7.7-2.9-10.6,0c-2.9,2.9-2.9,7.7,0,10.6l26.2,27.2c2.9,2.9,7.7,2.9,10.6,0
	S280.7,499.3,277.7,496.4z"/>
<path class="st0" d="M306.4,457.2l-39.2,39.2c-2.9,2.9-2.9,7.7,0,10.6c2.9,2.9,7.7,2.9,10.6,0l39.2-39.2c2.9-2.9,2.9-7.7,0-10.6
	C314.1,454.3,309.3,454.3,306.4,457.2z"/>
</svg>
