<?xml version="1.0" encoding="utf-8"?>
<!-- Generator: Adobe Illustrator 22.0.1, SVG Export Plug-In . SVG Version: 6.00 Build 0)  -->
<svg version="1.1" id="Capa_1" xmlns="http://www.w3.org/2000/svg" xmlns:xlink="http://www.w3.org/1999/xlink" x="0px" y="0px"
	 viewBox="-51.5 141 516.9 512" style="enable-background:new -51.5 141 516.9 512;" xml:space="preserve">
<style type="text/css">
	.st0{fill:#FFFFFF;}
</style>
<path class="st0" d="M457.6,291.7L417,239.8c-7-8.9-17.7-14-29.4-14c-6.9,0-13.6,1.9-19.3,5.4l-39.6,24.6c-3.9,2.5-10.6,4.1-16.8,4
	c-4.8,0-9.6-0.9-12.8-2.5l-38.7-18.8c-6.2-3-13.3-4.5-21.3-4.5c-11.4,0.1-21.8,3-29.9,8.6l-3.3,2.3c-3-1.5-6.9-3.4-11.3-5.6
	l-2.8-1.4c-7.3-3.6-16.2-5.4-26.3-5.4c-9.1,0-17.2,1.5-24.1,4.4l-26.4,11.3c-4,1.8-10.6,2.9-16.9,2.8c-6.3,0-12.8-1.1-16.9-2.8
	L54.7,237c-4.9-2.1-10.3-3.1-16.1-3.1c-6.2,0-12.3,1.2-18.1,3.5C14.4,240,9.2,243.5,5.2,248l-48.1,53.8c-5.6,6.2-8.6,14.2-8.6,22.5
	c0,9.9,4.3,19.3,11.9,25.7l42.8,36.5l-19.4,20.3c-6.1,6.4-9.5,14.8-9.5,23.6c0,9.4,3.9,18.4,10.7,24.8l4.3,4.1
	c3.5,3.3,7.6,5.7,12.2,7.4c-1.9,4.4-2.9,9-2.9,13.5c0,5.2,1.2,10.3,3.4,14.9l11.6,14c6.4,6.1,14.8,9.4,23.7,9.4c0,0,0,0,0,0
	c3.6,0,7.3-0.6,10.8-1.7c1.8,5.3,4.8,10.1,8.8,13.9l4.3,4.1c6.4,6.1,14.8,9.4,23.7,9.4c0,0,0,0,0.1,0c5.7,0,11.3-1.4,16.3-4.1
	c1.8,4.6,4.5,8.5,7.9,11.7l4.3,4.1c6.4,6.1,14.8,9.4,23.7,9.4c0,0,0,0,0,0c9.4,0,18.4-3.9,24.9-10.6l17.1-17.9l23.7,22
	c6.4,5.9,14.6,9.1,23.3,9.1c0,0,0.1,0,0.1,0c9.5,0,18.7-4,25.1-10.9l4.1-4.4c2.7-2.9,4.9-6.3,6.4-10.2l7.1,6.5
	c6.4,5.9,14.7,9.1,23.4,9.1c0,0,0,0,0.1,0c9.5,0,18.7-4,25.2-10.9l4-4.4c4.2-4.5,7.1-10.1,8.3-16.2c2.1,0.4,4.1,0.6,5.9,0.6
	c9.5,0,18.7-4,25.2-10.9l4.1-4.4c5.9-6.4,9.2-14.6,9.2-23.3c0-1.6-0.1-3.3-0.4-5.1c7-1.4,13.2-4.9,18-10l4.1-4.4
	c5.9-6.3,9.2-14.6,9.2-23.3c0-9.5-4-18.7-11-25.1l-5.8-5.4l67.2-74.3c6.2-6.9,9.7-16.2,9.7-26v0
	C465.5,306.5,462.8,298.3,457.6,291.7z M273.2,410.5l75.2,69.7c2.4,2.3,3.8,5.4,3.8,8.7c0,3.1-1.1,5.9-3.2,8.1l-4,4.4
	c-2.3,2.4-5.4,3.8-8.8,3.8c-3.1,0-6-1.1-8.2-3.2L257.6,437l-15.3,16.3l62.6,57.9c2.4,2.3,3.7,5.3,3.7,8.6c0,3.1-1.1,5.9-3.2,8.1
	l-4.1,4.4c-2.3,2.4-5.4,3.8-8.8,3.8c-3.1,0-5.9-1.1-8.2-3.2l-60.7-56.1l-1.8-1.8l-13.6,14.6l-1.6,1.7l1.6,1.7l30.7,28.4
	c2.2,2.2,3.3,5.1,3.3,8.2c0,3.1-1.1,5.9-3.2,8.1l-4.1,4.4c-2.3,2.4-5.4,3.8-8.8,3.8c-3.1,0-5.9-1.1-8.2-3.2l-25.1-23.3
	c2-4.5,3-9.2,3-13.8c0-9.3-3.9-18.4-10.6-24.8l-4.3-4.1c-6.3-6-14.5-9.3-23.2-9.4c-1.3-9-9.7-21.6-10.1-22.2l-0.2-0.2l-4.5-4.3
	c-4.1-3.9-9.1-6.7-14.6-8.2c0.8-2.9,1.2-5.8,1.2-8.7c0-9.4-3.9-18.4-10.6-24.8l-4.3-4.1c-6.4-6.1-14.8-9.4-23.7-9.4
	c-0.2,0-0.3,0-0.5,0c-0.8-7.7-4.2-14.8-9.6-20.3l-5.1-4.9c-6.4-6.1-14.8-9.4-23.7-9.4c0,0,0,0,0,0c-9.4,0-18.4,3.9-24.9,10.6l-8.7,9
	L-25,333.2c-2.6-2.2-4-5.3-4-8.7c0-2.9,1-5.5,2.9-7.7l48.1-53.8c1.7-1.9,4.2-3.6,7.1-4.8c3-1.2,6.4-1.9,9.6-1.9c0,0,0,0,0,0
	c2.7,0,5.2,0.5,7.2,1.3l26.4,11.3c7.2,3.1,15.9,4.6,25.7,4.6c9.8,0,18.5-1.6,25.7-4.7l26.4-11.3c3.8-1.7,9.7-2.6,15.3-2.6
	c6.1,0,12.6,1.2,16.3,3.1c1.1,0.6,2.2,1.1,3.3,1.6l-23.5,16.5c-9,6.3-14.4,16.6-14.4,27.5c0,7.2,2.4,14.3,6.7,20.1l0,0l3.6,4.8
	c6.9,9.1,18,14.6,29.8,14.6c6.7,0,13.1-1.8,18.7-5.1l16.1-9.7c3-1.8,7.4-2.9,11.9-2.9c0,0,0.1,0,0.1,0c5.3,0,10.9,1.5,14.3,4
	l44.5,31.9c9.9,7.1,25.8,20.1,34.7,28.4l51.5,47.6c2.4,2.3,3.8,5.4,3.8,8.7c0,3.1-1.1,5.9-3.2,8.1l-4.1,4.4
	c-2.3,2.4-5.4,3.8-8.8,3.8c-3.1,0-5.9-1.1-8.2-3.2l-70.4-65.1L273.2,410.5z M0,422.3l43.6-45.5c2.3-2.4,5.4-3.7,8.7-3.7
	c3.1,0,6.1,1.2,8.3,3.3l4.1,3.9c1.7,2.5,3.9,6.8,3.9,8.8c0,2.4-0.7,4.6-2,6.6c-2.6,2.7-33.1,34.5-46.7,48.7c-2,1.4-4.4,2.1-6.8,2.1
	c-3.1,0-6.1-1.2-8.3-3.3l-4.3-4.1l0,0c-2.4-2.2-3.7-5.3-3.7-8.6C-3.3,427.4-2.1,424.6,0,422.3z M24.3,472.1
	c16.9-17.6,55.7-58,58.5-61c2.2-2.1,5.2-3.3,8.3-3.3c3.2,0,6,1.1,8.3,3.3l4.3,4.1c2.4,2.2,3.7,5.3,3.7,8.6c0,3.1-1.2,6-3.3,8.2
	L46,492.7c-2.3,2.4-5.4,3.7-8.7,3.7c-3.1,0-6.1-1.2-8.3-3.3l-4.3-4.1l-0.2-0.1c-2.3-2.2-3.5-5.2-3.5-8.5
	C21,477.2,22.1,474.4,24.3,472.1z M71.2,498.7l40.3-42.1c2.2-2,5-3.1,8-3.1c3.2,0,6,1.1,8.3,3.3l4.3,4.1c2.4,2.2,3.7,5.3,3.7,8.6
	c0,3.1-1.2,6-3.3,8.2l-38.9,40.6c-2.3,2.4-5.3,3.7-8.7,3.7c-3.2,0-6-1.1-8.3-3.3l-4.3-4.1c-2.4-2.3-3.7-5.3-3.7-8.6
	C68.6,503.4,69.5,500.8,71.2,498.7z M124.2,519l24.5-25.6c2.3-2.4,5.4-3.7,8.7-3.7c3.1,0,6.1,1.2,8.3,3.3l4.3,4.1
	c2.4,2.2,3.7,5.3,3.7,8.6c0,3.1-1.2,6-3.3,8.2l-24.5,25.6l0,0c-2.3,2.4-5.3,3.7-8.7,3.7c-3.2,0-6-1.1-8.3-3.3l-4.3-4.1
	c-2.4-2.2-3.7-5.3-3.7-8.6C120.9,524.1,122.1,521.2,124.2,519z M439.2,326.5l-67,74l-29.3-27.1c-9.9-9.1-26.1-22.3-36.9-30.1
	l-44.5-31.9c-7.5-5.3-16.9-8.1-27.4-8.2c-8.8,0-17,2.1-23.6,6.1l-16.1,9.7c-2,1.2-4.5,1.9-7.1,1.9c-4.7,0-9.3-2.2-11.8-5.6l-3.5-4.8
	l-0.1-0.1c-1.5-2-2.2-4.3-2.2-6.7c0-3.8,1.8-7.1,4.9-9.3l47.6-33.5c3.7-2.7,10.5-4.5,16.7-4.5c0.1,0,0.3,0,0.4,0
	c4.2,0,8.5,0.8,11.3,2.3l38.7,18.8c6.5,3.1,14.1,4.7,22.6,4.7c10.9-0.1,20.9-2.6,28.7-7.4l39.6-24.6c2.1-1.3,4.7-2,7.4-2
	c0,0,0,0,0,0c4.6,0,9.2,2.1,11.7,5.4l40.6,51.9c2,2.6,3.2,6.2,3.2,10C443.1,319.6,441.7,323.8,439.2,326.5z"/>
</svg>
