<?xml version="1.0" encoding="utf-8"?>
<!-- Generator: Adobe Illustrator 22.0.1, SVG Export Plug-In . SVG Version: 6.00 Build 0)  -->
<svg version="1.1" id="Capa_1" xmlns="http://www.w3.org/2000/svg" xmlns:xlink="http://www.w3.org/1999/xlink" x="0px" y="0px"
	 viewBox="-51.5 141 516.9 512" style="enable-background:new -51.5 141 516.9 512;" xml:space="preserve">
<style type="text/css">
	.st0{fill:#FFFFFF;stroke:#FFFDF8;stroke-width:0.5;stroke-miterlimit:10;}
</style>
<g>
	<g>
		<path class="st0" d="M442.3,141.7H35.1c-12.7,0-23.1,10.4-23.1,23.1v38.9h-38.5c-12.7,0-23.1,10.4-23.1,23.1v309.8
			c0,12.7,10.4,23.1,23.1,23.1h98.1l-38.7,65.9c-3.6,6.3-4.2,12-1.4,16.8c2.3,4,6.6,6.5,11.4,6.5c3.1,0,6.4-1,9.9-3l153.2-86.2
			h174.7c12.7,0,23.1-10.4,23.1-23.1v-38.9h38.6c12.7,0,23.1-10.4,23.1-23.1V164.9C465.4,152.1,455,141.7,442.3,141.7L442.3,141.7z
			 M380.6,536.6H202.9c-2,0-3.9,0.5-5.7,1.5L68.6,610.4l33.1-56.5c2.1-3.6,2.1-8,0.1-11.5c-2-3.6-5.9-5.9-10-5.9H-26.6V226.9h407.1
			L380.6,536.6L380.6,536.6z M442.3,474.6h-38.6V226.9c0-12.7-10.4-23.1-23.1-23.1H35.1v-38.9h407.1V474.6z M442.3,474.6"/>
	</g>
	<path class="st0" d="M63.3,408.9c19.3,0,35-15.7,35-35c0-19.3-15.7-35.1-35-35.1c-19.3,0-35,15.7-35,35.1
		C28.3,393.2,44,408.9,63.3,408.9L63.3,408.9z M63.3,355c10.4,0,18.9,8.4,18.9,18.9c0,10.5-8.4,18.9-18.9,18.9
		c-10.5,0-18.9-8.4-18.9-18.9C44.4,363.4,52.8,355,63.3,355L63.3,355z M63.3,355"/>
	<path class="st0" d="M175.1,408.9c19.3,0,35-15.7,35-35c0-19.3-15.7-35.1-35-35.1c-19.3,0-35.1,15.7-35.1,35.1
		C140,393.2,155.8,408.9,175.1,408.9L175.1,408.9z M175.1,355c10.4,0,18.9,8.4,18.9,18.9c0,10.5-8.5,18.9-18.9,18.9
		c-10.4,0-18.9-8.4-18.9-18.9C156.1,363.4,164.6,355,175.1,355L175.1,355z M175.1,355"/>
	<path class="st0" d="M286.8,408.9c19.3,0,35-15.7,35-35c0-19.3-15.7-35.1-35-35.1s-35,15.7-35,35.1
		C251.8,393.2,267.5,408.9,286.8,408.9L286.8,408.9z M286.8,355c10.5,0,18.9,8.4,18.9,18.9c0,10.5-8.4,18.9-18.9,18.9
		c-10.4,0-18.9-8.4-18.9-18.9C267.9,363.4,276.4,355,286.8,355L286.8,355z M286.8,355"/>
</g>
</svg>
