<?xml version="1.0" encoding="utf-8"?>
<!-- Generator: Adobe Illustrator 22.0.1, SVG Export Plug-In . SVG Version: 6.00 Build 0)  -->
<svg version="1.1" id="Capa_1" xmlns="http://www.w3.org/2000/svg" xmlns:xlink="http://www.w3.org/1999/xlink" x="0px" y="0px"
	 viewBox="-49 141 512 514" style="enable-background:new -49 141 512 514;" xml:space="preserve">
<style type="text/css">
	.st0{fill:#FFFFFF;}
</style>
<path class="st0" d="M448,141H-34c-8.3,0-15,6.7-15,15v30c0,19.6,12.5,36.2,30,42.4V457c0,24.8,20.2,45,45,45h166v63.6
	c-17.5,6.2-30,22.9-30,42.4c0,24.8,20.2,45,45,45s45-20.2,45-45c0-19.6-12.5-36.2-30-42.4V502h32.1c7.2,51.4,51.1,91,103.9,91
	c57.9,0,105-47.6,105-106c0-28.5-11.5-54.5-30-73.4V228.4c17.5-6.2,30-22.9,30-42.4v-30C463,147.7,456.3,141,448,141z M207,623
	c-8.3,0-15-6.7-15-15s6.7-15,15-15s15,6.7,15,15S215.3,623,207,623z M11,457V231h392v161.1c-13.6-6.5-28.9-10.1-45-10.1
	c-52.8,0-96.6,39.2-103.9,90H26C17.7,472,11,465.3,11,457z M358,563c-41.4,0-75-34.1-75-76c0-41.4,33.6-75,75-75s75,33.6,75,75
	C433,528.9,399.4,563,358,563z M433,186c0,8.3-6.7,15-15,15H-4c-8.3,0-15-6.7-15-15v-15h452V186z"/>
<path class="st0" d="M388,472h-15v-15c0-8.3-6.7-15-15-15s-15,6.7-15,15v30c0,8.3,6.7,15,15,15h30c8.3,0,15-6.7,15-15
	S396.3,472,388,472z"/>
<path class="st0" d="M217.6,407.6l96.4-96.4c2.1,5.7,7.6,9.8,14,9.8c8.3,0,15-6.7,15-15v-30c0-8.3-6.7-15-15-15h-30
	c-8.3,0-15,6.7-15,15c0,6.4,4.1,11.9,9.8,14l-85.7,85.7l-49.4-50.2c-2.8-2.9-6.6-4.5-10.6-4.5c0,0,0,0-0.1,0c-4,0-7.8,1.6-10.6,4.4
	l-61,61c-5.9,5.9-5.9,15.4,0,21.2c2.9,2.9,6.8,4.4,10.6,4.4s7.7-1.5,10.6-4.4l50.3-50.3l49.4,50.2c2.8,2.9,6.6,4.5,10.6,4.5
	c0,0,0,0,0.1,0C211,412,214.8,410.4,217.6,407.6z"/>
</svg>
