<?xml version="1.0" encoding="utf-8"?>
<!-- Generator: Adobe Illustrator 19.2.1, SVG Export Plug-In . SVG Version: 6.00 Build 0)  -->
<svg version="1.1" id="Layer_1" xmlns="http://www.w3.org/2000/svg" xmlns:xlink="http://www.w3.org/1999/xlink" x="0px" y="0px"
	 viewBox="0 0 470 470" style="enable-background:new 0 0 470 470;" xml:space="preserve">
<style type="text/css">
	.st0{fill:#3BB885;}
</style>
<g>
	<path class="st0" d="M441.3,0H28.8c-4.1,0-7.5,3.4-7.5,7.5v120c0,4.1,3.4,7.5,7.5,7.5h412.5c4.1,0,7.5-3.4,7.5-7.5V7.5
		C448.8,3.4,445.4,0,441.3,0z M36.3,15h277.5v105H36.3V15z M433.8,120h-105V15h105V120z"/>
	<path class="st0" d="M148.8,398H280c4.1,0,7.5-3.4,7.5-7.5s-3.4-7.5-7.5-7.5H148.8c-4.1,0-7.5,3.4-7.5,7.5S144.6,398,148.8,398z"/>
	<path class="st0" d="M411.3,343H148.8c-4.1,0-7.5,3.4-7.5,7.5s3.4,7.5,7.5,7.5h262.5c4.1,0,7.5-3.4,7.5-7.5S415.4,343,411.3,343z"
		/>
	<path class="st0" d="M148.8,263H280c4.1,0,7.5-3.4,7.5-7.5s-3.4-7.5-7.5-7.5H148.8c-4.1,0-7.5,3.4-7.5,7.5S144.6,263,148.8,263z"/>
	<path class="st0" d="M148.8,223h262.5c4.1,0,7.5-3.4,7.5-7.5s-3.4-7.5-7.5-7.5H148.8c-4.1,0-7.5,3.4-7.5,7.5S144.6,223,148.8,223z"
		/>
	<path class="st0" d="M441.3,168H28.8c-4.1,0-7.5,3.4-7.5,7.5v120c0,4.1,3.4,7.5,7.5,7.5h412.5c4.1,0,7.5-3.4,7.5-7.5v-120
		C448.8,171.4,445.4,168,441.3,168z M433.8,288H36.3V183h397.5V288z"/>
	<path class="st0" d="M352.7,82.3c5.8,5.8,13.5,9,21.7,9c5.6,0,11-1.5,15.7-4.3l15.9,15.8c1.5,1.5,3.4,2.2,5.3,2.2s3.8-0.7,5.3-2.2
		c2.9-2.9,2.9-7.7,0-10.6l-15.9-15.8c2.8-4.7,4.3-10.1,4.3-15.7c0-8.2-3.2-15.9-9-21.7s-13.5-9-21.7-9s-15.9,3.2-21.7,9
		C340.8,50.9,340.8,70.4,352.7,82.3L352.7,82.3z M363.3,49.6c3-3,6.9-4.6,11.1-4.6s8.1,1.6,11.1,4.6s4.6,6.9,4.6,11.1
		s-1.6,8.1-4.6,11.1s-6.9,4.6-11.1,4.6s-8.1-1.6-11.1-4.6C357.2,65.6,357.2,55.7,363.3,49.6z"/>
	<path class="st0" d="M118.8,333h-60c-4.1,0-7.5,3.4-7.5,7.5v60c0,4.1,3.4,7.5,7.5,7.5h60c4.1,0,7.5-3.4,7.5-7.5v-60
		C126.3,336.4,122.9,333,118.8,333z M111.3,393h-45v-45h45V393z"/>
	<path class="st0" d="M58.8,273h60c4.1,0,7.5-3.4,7.5-7.5v-60c0-4.1-3.4-7.5-7.5-7.5h-60c-4.1,0-7.5,3.4-7.5,7.5v60
		C51.3,269.6,54.6,273,58.8,273z M66.3,213h45v45h-45V213z"/>
</g>
</svg>
