<?xml version="1.0" encoding="utf-8"?>
<!-- Generator: Adobe Illustrator 22.0.1, SVG Export Plug-In . SVG Version: 6.00 Build 0)  -->
<svg version="1.1" id="Capa_1" xmlns="http://www.w3.org/2000/svg" xmlns:xlink="http://www.w3.org/1999/xlink" x="0px" y="0px"
	 viewBox="0 0 72.3 81.6" style="enable-background:new 0 0 72.3 81.6;" xml:space="preserve">
<style type="text/css">
	.st0{fill:#3F51B5;}
</style>
<g>
	<path class="st0" d="M67.7,29.2h-2v-9.5c0-0.1,0-0.1,0-0.2c0-0.4-0.1-0.7-0.4-1l-15.7-18c0,0,0,0,0,0c-0.1-0.1-0.2-0.2-0.3-0.3
		c0,0-0.1,0-0.1-0.1c-0.1-0.1-0.2-0.1-0.3-0.1c0,0-0.1,0-0.1,0c-0.1,0-0.2,0-0.4,0H9.7C8,0,6.5,1.4,6.5,3.2v26h-2
		c-2.5,0-4.6,2-4.6,4.6v23.8c0,2.5,2,4.6,4.6,4.6h2v16.3c0,1.8,1.4,3.2,3.2,3.2h52.8c1.8,0,3.2-1.4,3.2-3.2V62.1h2
		c2.5,0,4.6-2.1,4.6-4.6V33.8C72.3,31.2,70.2,29.2,67.7,29.2L67.7,29.2z M9.7,3.2h37.1v16.4c0,0.9,0.7,1.6,1.6,1.6h14.1v8H9.7V3.2z
		 M48.1,44.4c0,7.3-4.4,11.7-10.9,11.7c-6.6,0-10.4-5-10.4-11.3c0-6.6,4.2-11.6,10.8-11.6C44.4,33.1,48.1,38.2,48.1,44.4L48.1,44.4z
		 M4.9,55.6V33.8c1.8-0.3,4.2-0.5,6.8-0.5c4.2,0,6.9,0.8,9.1,2.4c2.3,1.7,3.8,4.4,3.8,8.4c0,4.2-1.5,7.2-3.7,9
		c-2.3,1.9-5.9,2.9-10.2,2.9C8,55.9,6.2,55.7,4.9,55.6L4.9,55.6z M62.5,77.5H9.7V62.1h52.8V77.5z M62.8,51.9c1.5,0,3.2-0.3,4.2-0.7
		l0.8,3.9c-0.9,0.5-3,1-5.7,1c-7.7,0-11.6-4.8-11.6-11.1c0-7.6,5.4-11.8,12.1-11.8c2.6,0,4.6,0.5,5.5,1l-1,4c-1-0.4-2.4-0.8-4.2-0.8
		c-4,0-7.1,2.4-7.1,7.3C55.7,49.1,58.3,51.9,62.8,51.9L62.8,51.9z M62.8,51.9"/>
	<path class="st0" d="M19.2,44.2c0-4.6-2.7-7-7-7c-1.1,0-1.8,0.1-2.3,0.2v14.5c0.4,0.1,1.1,0.1,1.7,0.1C16.2,52,19.2,49.5,19.2,44.2
		L19.2,44.2z M19.2,44.2"/>
	<path class="st0" d="M32.1,44.6c0,4.3,2,7.4,5.4,7.4c3.4,0,5.3-3.2,5.3-7.5c0-4-1.9-7.4-5.4-7.4C34.1,37.1,32.1,40.3,32.1,44.6
		L32.1,44.6z M32.1,44.6"/>
</g>
</svg>
