<?xml version="1.0" encoding="utf-8"?>
<!-- Generator: Adobe Illustrator 22.0.1, SVG Export Plug-In . SVG Version: 6.00 Build 0)  -->
<svg version="1.1" id="Capa_1" xmlns="http://www.w3.org/2000/svg" xmlns:xlink="http://www.w3.org/1999/xlink" x="0px" y="0px"
	 viewBox="0 0 72.3 81.6" style="enable-background:new 0 0 72.3 81.6;" xml:space="preserve">
<style type="text/css">
	.st0{fill:#3F51B5;}
</style>
<g>
	<path class="st0" d="M19.1,41.8c0-2.2-1.5-3.5-4.2-3.5c-1.1,0-1.8,0.1-2.2,0.2v7.1c0.5,0.1,1,0.1,1.8,0.1
		C17.3,45.7,19.1,44.3,19.1,41.8L19.1,41.8z M19.1,41.8"/>
	<path class="st0" d="M35.8,38.4c-1.2,0-2,0.1-2.4,0.2v15.6c0.5,0.1,1.2,0.1,1.9,0.1c4.9,0,8.1-2.7,8.1-8.4
		C43.3,41,40.4,38.4,35.8,38.4L35.8,38.4z M35.8,38.4"/>
	<path class="st0" d="M67.7,29.2h-2v-9.5c0-0.1,0-0.1,0-0.2c0-0.4-0.1-0.7-0.4-1l-15.7-18c0,0,0,0,0,0c-0.1-0.1-0.2-0.2-0.3-0.3
		c0,0-0.1,0-0.1-0.1c-0.1-0.1-0.2-0.1-0.3-0.1c0,0-0.1,0-0.1,0c-0.1,0-0.2,0-0.4,0H9.7C8,0,6.5,1.4,6.5,3.2v26h-2
		c-2.5,0-4.6,2-4.6,4.6v23.8c0,2.5,2,4.6,4.6,4.6h2v16.3c0,1.8,1.4,3.2,3.2,3.2h52.8c1.8,0,3.2-1.4,3.2-3.2V62.1h2
		c2.5,0,4.6-2.1,4.6-4.6V33.8C72.3,31.2,70.2,29.2,67.7,29.2L67.7,29.2z M9.7,3.2h37.1v16.4c0,0.9,0.7,1.6,1.6,1.6h14.1v8H9.7V3.2z
		 M49,45.8c0,4.6-1.7,7.7-4,9.7c-2.5,2.1-6.3,3.1-11,3.1c-2.8,0-4.8-0.2-6.1-0.4V34.7c2-0.3,4.6-0.5,7.3-0.5c4.5,0,7.5,0.8,9.8,2.6
		C47.5,38.6,49,41.6,49,45.8L49,45.8z M7.3,58.3V34.7c1.7-0.3,4-0.5,7.3-0.5c3.3,0,5.7,0.6,7.3,1.9c1.5,1.2,2.5,3.2,2.5,5.5
		c0,2.3-0.8,4.3-2.2,5.7c-1.8,1.7-4.6,2.5-7.8,2.5c-0.7,0-1.3,0-1.8-0.1v8.5H7.3z M62.5,77.5H9.7V62.1h52.8V77.5z M67.2,38.8H58v5.5
		h8.6v4.4H58v9.6h-5.4V34.4h14.6V38.8z M67.2,38.8"/>
</g>
</svg>
