<?xml version="1.0" encoding="utf-8"?>
<!-- Generator: Adobe Illustrator 22.0.1, SVG Export Plug-In . SVG Version: 6.00 Build 0)  -->
<svg version="1.1" id="Capa_1" xmlns="http://www.w3.org/2000/svg" xmlns:xlink="http://www.w3.org/1999/xlink" x="0px" y="0px"
	 viewBox="0 0 72.3 81.6" style="enable-background:new 0 0 72.3 81.6;" xml:space="preserve">
<style type="text/css">
	.st0{fill:#3F51B5;}
</style>
<g>
	<path class="st0" d="M67.7,29.2h-2v-9.5c0-0.1,0-0.1,0-0.2c0-0.4-0.1-0.7-0.4-1l-15.7-18c0,0,0,0,0,0c-0.1-0.1-0.2-0.2-0.3-0.3
		c0,0-0.1,0-0.1-0.1c-0.1-0.1-0.2-0.1-0.3-0.1c0,0-0.1,0-0.1,0c-0.1,0-0.2,0-0.4,0H9.7C8,0,6.5,1.4,6.5,3.2v26h-2
		c-2.5,0-4.6,2-4.6,4.6v23.8c0,2.5,2,4.6,4.6,4.6h2v16.3c0,1.8,1.4,3.2,3.2,3.2h52.8c1.8,0,3.2-1.4,3.2-3.2V62.1h2
		c2.5,0,4.6-2.1,4.6-4.6V33.8C72.3,31.2,70.2,29.2,67.7,29.2L67.7,29.2z M9.7,3.2h37.1v16.4c0,0.9,0.7,1.6,1.6,1.6h14.1v8H9.7V3.2z
		 M45.6,52.5v4.6H30.4V32.7h5.6v19.8H45.6z M6.3,57.1l7.1-12.4L6.6,32.7h6.3l2.1,4.5c0.7,1.5,1.3,2.7,1.9,4.1H17
		c0.6-1.6,1.1-2.6,1.7-4.1l2.1-4.5H27l-6.9,11.9l7.3,12.5H21l-2.2-4.4c-0.9-1.7-1.5-3-2.2-4.4h-0.1c-0.5,1.4-1.1,2.7-1.9,4.4l-2,4.4
		H6.3z M62.5,77.5H9.7V62.1h52.8V77.5z M54.9,57.5c-2.8,0-5.5-0.7-6.9-1.5l1.1-4.6c1.5,0.8,3.8,1.5,6.1,1.5c2.5,0,3.9-1.1,3.9-2.6
		c0-1.5-1.2-2.4-4.1-3.4c-4.1-1.4-6.7-3.7-6.7-7.2c0-4.2,3.5-7.4,9.2-7.4c2.8,0,4.8,0.6,6.2,1.2L62.5,38c-1-0.5-2.7-1.2-5.1-1.2
		c-2.4,0-3.6,1.1-3.6,2.4c0,1.6,1.4,2.3,4.5,3.4c4.3,1.6,6.3,3.8,6.3,7.3C64.7,54,61.6,57.5,54.9,57.5L54.9,57.5z M54.9,57.5"/>
</g>
</svg>
