<?xml version="1.0" encoding="utf-8"?>
<!-- Generator: Adobe Illustrator 22.0.1, SVG Export Plug-In . SVG Version: 6.00 Build 0)  -->
<svg version="1.1" id="Capa_1" xmlns="http://www.w3.org/2000/svg" xmlns:xlink="http://www.w3.org/1999/xlink" x="0px" y="0px"
	 viewBox="0 0 544.8 491.1" style="enable-background:new 0 0 544.8 491.1;" xml:space="preserve">
<style type="text/css">
	.st0{fill:#3BB885;stroke:#3BB885;stroke-width:3;stroke-miterlimit:10;}
</style>
<path class="st0" d="M444.7,423.5c-12.5,0-24.3-4.9-33.5-13.9c-9-8.9-14-20.8-14-33.2s5-24.2,14-33.2c9-8.9,20.9-13.8,33.5-13.8
	c25.7,0,46.6,21.1,46.6,47.1C491.4,402.5,470.5,423.5,444.7,423.5z M444.7,346.5c-16.4,0-30.3,13.6-30.3,29.8s13.9,29.8,30.3,29.8
	c16.3,0,29.4-13.4,29.4-29.8C474.2,359.9,461,346.5,444.7,346.5z M176.6,423.5c-12.5,0-24.3-4.9-33.5-13.9c-9-8.9-14-20.8-14-33.2
	s5-24.2,14-33.2c9-8.9,20.9-13.8,33.5-13.8c25.7,0,46.6,21.1,46.6,47.1C223.2,402.5,202.2,423.5,176.6,423.5z M176.6,346.5
	c-16.4,0-30.3,13.6-30.3,29.8s13.9,29.8,30.3,29.8c16.3,0,29.4-13.4,29.4-29.8C206,359.9,192.7,346.5,176.6,346.5z M249.1,360
	c-4.7,0-8.7-3.9-8.7-8.7s3.9-8.7,8.7-8.7h92.4V51.5H78.8v83.7c0,4.7-3.9,8.7-8.7,8.7c-4.7,0-8.7-3.9-8.7-8.7V43
	c0-4.7,3.9-8.7,8.7-8.7h279.8c4.7,0,8.7,3.9,8.7,8.7v68h94.9c2,0,3.9,0.7,5.5,2l78.7,65.1c1.9,1.7,3.1,4.2,3.2,6.8L540,351.4
	c0,4.7-3.9,8.5-8.7,8.5h-22.3c-4.7,0-8.7-3.9-8.7-8.7s3.9-8.7,8.7-8.7h13.8l0.8-153.9L450.6,128h-91.7v214.8h24.4
	c4.7,0,8.7,3.9,8.7,8.7s-3.9,8.7-8.7,8.7H249.1V360z M70.3,360c-4.7,0-8.7-3.9-8.7-8.7v-40.2c0-4.7,3.9-8.7,8.7-8.7
	c4.7,0,8.7,3.9,8.7,8.7v31.7h24.4c4.7,0,8.7,3.9,8.7,8.7s-3.9,8.7-8.7,8.7H70.3V360z M14.7,283.2c-4.7,0-8.7-3.9-8.7-8.7
	s3.9-8.7,8.7-8.7H148c4.7,0,8.7,3.9,8.7,8.7s-3.9,8.7-8.7,8.7H14.7z M393.8,269.1c-4.7,0-8.7-3.9-8.7-8.7v-90.1
	c0-4.7,3.9-8.7,8.7-8.7h56.4c2.1,0,4.3,0.8,5.7,2.3l33.1,29.8c1.8,1.7,2.8,3.9,2.8,6.4v60.3c0,4.7-3.9,8.7-8.7,8.7H393.8z
	 M402.5,251.9h72.1V204l-27.9-25h-44.4v73H402.5z M37,232.6c-2.3,0-4.5-0.9-6.1-2.5c-1.7-1.7-2.5-3.8-2.5-6.2c0-4.7,3.9-8.5,8.7-8.5
	l133.4,0.7c2.3,0,4.5,0.9,6.1,2.5c1.7,1.7,2.5,3.8,2.5,6.2c-0.1,4.7-4,8.5-8.8,8.5L37,232.6z M59.5,182.7c-4.7,0-8.7-3.9-8.7-8.7
	s3.9-8.7,8.7-8.7h133.3c4.7,0,8.7,3.9,8.7,8.7s-3.9,8.7-8.7,8.7H59.5z"/>
</svg>
