<?xml version="1.0" encoding="utf-8"?>
<!-- Generator: Adobe Illustrator 19.2.1, SVG Export Plug-In . SVG Version: 6.00 Build 0)  -->
<svg version="1.1" id="Capa_1" xmlns="http://www.w3.org/2000/svg" xmlns:xlink="http://www.w3.org/1999/xlink" x="0px" y="0px"
	 viewBox="0 0 185.3 185.3" style="enable-background:new 0 0 185.3 185.3;" xml:space="preserve">
<style type="text/css">
	.st0{fill:#3BB885;}
</style>
<g>
	<g>
		<g>
			<path class="st0" d="M175.2,0H82.8c-0.1,0-0.1,0-0.1,0c-0.4,0-0.8,0.1-1.1,0.2c0,0-0.1,0-0.1,0c0,0,0,0,0,0l-22.2,9.9L36.9,0.3
				c0,0,0,0,0,0c0,0-0.1,0-0.1,0C36.4,0.1,36,0,35.6,0c-0.1,0-0.1,0-0.1,0H10.1C8.1,0,6.6,1.6,6.6,3.5v164.3c0,1.9,1.6,3.5,3.5,3.5
				h24.4l22.8,13.5c0,0,0,0,0,0c0,0,0,0,0,0c0.2,0.1,0.4,0.1,0.5,0.2c0.1,0,0.2,0.1,0.3,0.1c0.3,0.1,0.6,0.1,0.9,0.1
				c0.3,0,0.6,0,0.9-0.1c0.1,0,0.2-0.1,0.3-0.1c0.2-0.1,0.4-0.1,0.5-0.2c0,0,0,0,0,0c0,0,0,0,0,0l22.8-13.5h91.5
				c1.9,0,3.5-1.6,3.5-3.5V3.5C178.7,1.6,177.2,0,175.2,0z M13.6,7H32v157.3H13.6V7z M39,8.9l16.6,7.4v159.3L39,165.8V8.9z
				 M62.6,16.3l16.6-7.4v156.9l-16.6,9.9V16.3z M171.7,164.3H86.3V7h85.4L171.7,164.3L171.7,164.3z"/>
		</g>
		<g>
			<path class="st0" d="M126.2,120.7c1.2,0,2.4-0.7,3-1.7c2.7-4.5,26.1-44.3,26.1-59c0-16.1-13.1-29.1-29.1-29.1S97,43.9,97,60
				c0,14.7,23.4,54.5,26.1,59C123.8,120,124.9,120.7,126.2,120.7z M126.2,37.9c12.2,0,22.1,9.9,22.1,22.1c0,9.5-14,35.9-22.1,50.2
				C118,96,104,69.5,104,60C104,47.8,114,37.9,126.2,37.9z"/>
		</g>
		<g>
			<path class="st0" d="M138.4,59.6c0-6.8-5.5-12.3-12.3-12.3c-6.8,0-12.3,5.5-12.3,12.3c0,6.8,5.5,12.3,12.3,12.3
				C132.9,71.8,138.4,66.3,138.4,59.6z M120.9,59.6c0-2.9,2.4-5.3,5.3-5.3c2.9,0,5.3,2.4,5.3,5.3c0,2.9-2.4,5.3-5.3,5.3
				S120.9,62.5,120.9,59.6z"/>
		</g>
	</g>
</g>
</svg>
