<?xml version="1.0" encoding="utf-8"?>
<!-- Generator: Adobe Illustrator 19.2.1, SVG Export Plug-In . SVG Version: 6.00 Build 0)  -->
<svg version="1.1" id="Capa_1" xmlns="http://www.w3.org/2000/svg" xmlns:xlink="http://www.w3.org/1999/xlink" x="0px" y="0px"
	 viewBox="0 0 442 442" style="enable-background:new 0 0 442 442;" xml:space="preserve">
<style type="text/css">
	.st0{fill:#3BB885;}
</style>
<g>
	<path class="st0" d="M10,442c-4.4,0-8-3.6-8-8V12c0-4.4,3.6-8,8-8h422c4.4,0,8,3.6,8,8v422c0,4.4-3.6,8-8,8H10z M18,426h406V20H18
		V426z"/>
	<path class="st0" d="M221,311c-48.5,0-88-39.5-88-88c0-27.7,13.3-54.1,35.7-70.7l0.1-0.1c0.2-0.1,0.3-0.3,0.5-0.4
		c0.2-0.1,0.3-0.2,0.5-0.3l0.1-0.1c15-10.7,32.7-16.4,51.1-16.4c18.4,0,36.1,5.7,51.1,16.4l0.1,0.1c0.2,0.1,0.3,0.2,0.5,0.3
		c0.2,0.1,0.3,0.3,0.5,0.4l0.1,0.1c22.3,16.6,35.7,43,35.7,70.7C309,271.5,269.5,311,221,311z M155.4,252.7l1,2.1
		c10.5,21.3,30.8,36.1,54.3,39.5l2.3,0.3v-24.2l-1.6-0.3c-13.5-2.8-25.3-11.3-32.1-23.4l-0.8-1.4L155.4,252.7z M262.7,246.7
		c-6.9,12.1-18.6,20.6-32.1,23.4l-1.6,0.3v24.2l2.3-0.3c23.4-3.4,43.7-18.1,54.3-39.5l1-2.1l-23.1-7.5L262.7,246.7z M221,191
		c-17.6,0-32,14.4-32,32c0,17.6,14.4,32,32,32c17.6,0,32-14.4,32-32C253,205.4,238.6,191,221,191z M255.3,189.4l1.1,1.2
		c8.1,8.9,12.6,20.4,12.6,32.4c0,1.7-0.1,3.6-0.3,5.4l-0.2,1.6l23,7.5l0.4-2.3c0.7-4.1,1.1-8.2,1.1-12.2c0-19.6-7.7-37.9-21.8-51.6
		l-1.7-1.6L255.3,189.4z M170.8,171.4c-14.1,13.7-21.8,32-21.8,51.6c0,4,0.4,8.1,1.1,12.2l0.4,2.3l23-7.5l-0.2-1.6
		c-0.2-1.8-0.3-3.7-0.3-5.4c0-12,4.5-23.5,12.6-32.4l1.1-1.2l-14.2-19.6L170.8,171.4z M221,175c6.9,0,13.6,1.5,19.9,4.3l1.5,0.7
		l14.2-19.6l-2-1.1c-10.3-5.4-21.9-8.3-33.6-8.3c-11.7,0-23.3,2.9-33.6,8.3l-2,1.1l14.2,19.6l1.5-0.7C207.4,176.5,214.1,175,221,175
		z"/>
	<path class="st0" d="M60,392c-4.4,0-8-3.6-8-8v-33.3l-1.2-0.5c-9-3.8-14.8-12.4-14.8-22.2v-50c0-9.7,5.8-18.4,14.8-22.2l1.2-0.5
		v-64.7l-1.2-0.5c-9-3.8-14.8-12.4-14.8-22.2v-50c0-9.7,5.8-18.4,14.8-22.2l1.2-0.5V62c0-4.4,3.6-8,8-8h322c4.4,0,8,3.6,8,8v60
		c0,4.4-3.6,8-8,8s-8-3.6-8-8V70H68v25.3l1.2,0.5c9,3.8,14.8,12.4,14.8,22.2v50c0,9.7-5.8,18.4-14.8,22.2l-1.2,0.5v64.7l1.2,0.5
		c9,3.8,14.8,12.4,14.8,22.2v50c0,9.7-5.8,18.4-14.8,22.2l-1.2,0.5V376h306V156.1c0-4.4,3.6-8,8-8s8,3.6,8,8V384c0,4.4-3.6,8-8,8H60
		z M60,270c-4.4,0-8,3.6-8,8v50c0,4.4,3.6,8,8,8s8-3.6,8-8v-50C68,273.6,64.4,270,60,270z M60,110c-4.4,0-8,3.6-8,8v50
		c0,4.4,3.6,8,8,8s8-3.6,8-8v-50C68,113.6,64.4,110,60,110z"/>
</g>
</svg>
