<?xml version="1.0" encoding="utf-8"?>
<!-- Generator: Adobe Illustrator 19.2.1, SVG Export Plug-In . SVG Version: 6.00 Build 0)  -->
<svg version="1.1" id="Capa_1" xmlns="http://www.w3.org/2000/svg" xmlns:xlink="http://www.w3.org/1999/xlink" x="0px" y="0px"
	 viewBox="0 0 480 480" style="enable-background:new 0 0 480 480;" xml:space="preserve">
<style type="text/css">
	.st0{fill:#3BB885;}
</style>
<g>
	<g>
		<path class="st0" d="M304,304.8V232c0-13.2-10.8-24-24-24H56c-13.2,0-24,10.8-24,24v72.8C13.8,308.5,0,324.7,0,344v48v80
			c0,4.4,3.6,8,8,8h32c4.4,0,8-3.6,8-8v-24h240v24c0,4.4,3.6,8,8,8h32c4.4,0,8-3.6,8-8v-80v-48C336,324.7,322.2,308.5,304,304.8z
			 M48,232c0-4.4,3.6-8,8-8h224c4.4,0,8,3.6,8,8v72h-16v-32c0-13.2-10.8-24-24-24h-48c-13.2,0-24,10.8-24,24v32h-16v-32
			c0-13.2-10.8-24-24-24H88c-13.2,0-24,10.8-24,24v32H48V232z M256,272v32h-64v-32c0-4.4,3.6-8,8-8h48C252.4,264,256,267.6,256,272z
			 M144,272v32H80v-32c0-4.4,3.6-8,8-8h48C140.4,264,144,267.6,144,272z M320,464h-16v-24c0-4.4-3.6-8-8-8H40c-4.4,0-8,3.6-8,8v24
			H16v-64h304V464z M320,384H16v-40c0-13.2,10.8-24,24-24h32h80h32h80h32c13.2,0,24,10.8,24,24V384z"/>
	</g>
</g>
<g>
	<g>
		<path class="st0" d="M472,304H360c-4.4,0-8,3.6-8,8v64v56h16v-48h96v48h16v-56v-64C480,307.6,476.4,304,472,304z M464,368h-96v-48
			h96V368z"/>
	</g>
</g>
<g>
	<g>
		<rect x="400" y="336" class="st0" width="32" height="16"/>
	</g>
</g>
<g>
	<g>
		<path class="st0" d="M455.6,237.5l-16-48c-1.1-3.3-4.1-5.5-7.6-5.5h-32c-3.4,0-6.5,2.2-7.6,5.5l-16,48c-0.8,2.4-0.4,5.1,1.1,7.2
			s3.9,3.3,6.5,3.3h24v24h-16v16h48v-16h-16v-24h24c2.6,0,5-1.2,6.5-3.3C456,242.6,456.4,239.9,455.6,237.5z M395.1,232l10.7-32
			h20.5l10.7,32H395.1z"/>
	</g>
</g>
<g>
	<g>
		<path class="st0" d="M475.3,104.7l-232-104c-2.1-0.9-4.5-0.9-6.5,0l-232,104C1.8,106,0,108.8,0,112v96h16v-90.8L240,16.8
			l224,100.4V208h16v-96C480,108.8,478.2,106,475.3,104.7z"/>
	</g>
</g>
<g>
	<g>
		<path class="st0" d="M295.2,110.7l-15.8,2.7c0.4,2.2,0.6,4.4,0.6,6.7c0,22.1-17.9,40-40,40s-40-17.9-40-40s17.9-40,40-40
			c4.6,0,9.1,0.8,13.3,2.3l5.3-15.1c-6-2.1-12.3-3.2-18.7-3.2c-30.9,0-56,25.1-56,56s25.1,56,56,56s56-25.1,56-56
			C296,116.9,295.7,113.7,295.2,110.7z"/>
	</g>
</g>
<g>
	<g>
		<path class="st0" d="M290.3,66.3L240,116.7l-10.3-10.3l-11.3,11.3l16,16c1.6,1.6,3.6,2.3,5.7,2.3s4.1-0.8,5.7-2.3l56-56
			L290.3,66.3z"/>
	</g>
</g>
</svg>
