<?xml version="1.0" encoding="utf-8"?>
<!-- Generator: Adobe Illustrator 19.2.1, SVG Export Plug-In . SVG Version: 6.00 Build 0)  -->
<svg version="1.1" id="Capa_1" xmlns="http://www.w3.org/2000/svg" xmlns:xlink="http://www.w3.org/1999/xlink" x="0px" y="0px"
	 viewBox="0 0 512 512" style="enable-background:new 0 0 512 512;" xml:space="preserve">
<style type="text/css">
	.st0{fill:#FFFFFF;}
</style>
<g>
	<g>
		<path class="st0" d="M477.4,159.3C453.9,132.7,420.7,118,384,118c-45.3,0-79.4,26.1-103.3,55c9.1,13.9,16.1,27.3,21.3,38.1
			c18.3-26.4,45.8-53.1,81.9-53.1c51,0,88,41.2,88,98s-37,98-88,98c-72.9,0-108.7-103.3-109-104.3l-0.1-0.3
			C273,244,227.5,118,128,118c-36.7,0-69.9,14.7-93.4,41.3C12.3,184.6,0,218.9,0,256s12.3,71.4,34.6,96.7
			C58.1,379.3,91.3,394,128,394c45.7,0,79.6-25.4,103.2-54c-9.1-13.9-16.1-27.3-21.2-38.3c-18.1,26.1-45.4,52.2-82,52.2
			c-51,0-88-41.2-88-98s37-98,88-98c70.4,0,107.9,101.3,109.1,104.6C239.8,270.4,283.4,394,384,394c36.7,0,69.9-14.7,93.4-41.3
			c22.3-25.2,34.6-59.6,34.6-96.7S499.7,184.6,477.4,159.3z"/>
	</g>
</g>
</svg>
