<?xml version="1.0" encoding="utf-8"?>
<!-- Generator: Adobe Illustrator 19.2.1, SVG Export Plug-In . SVG Version: 6.00 Build 0)  -->
<svg version="1.1" id="Layer_1" xmlns="http://www.w3.org/2000/svg" xmlns:xlink="http://www.w3.org/1999/xlink" x="0px" y="0px"
	 viewBox="0 0 466.7 466.7" style="enable-background:new 0 0 466.7 466.7;" xml:space="preserve">
<style type="text/css">
	.st0{fill:#FFFFFF;}
</style>
<g>
	<path class="st0" d="M464,176.3c-7.4-22.7-28.4-38-52.3-38c-5.8,0-11.5,0.9-17,2.7c-14,4.5-25.3,14.2-32,27.3
		c-4.3,8.5-6.3,17.8-6,27.1l-41.2,13.4c-13.2-25.4-37.9-44-67.2-48.8v-43.3c23.1-6.5,40-27.8,40-52.9c0-30.3-24.7-55-55-55
		s-55,24.7-55,55c0,25.1,16.9,46.4,40,52.9V160c-29.3,4.8-54,23.4-67.2,48.8L110,195.4c0.4-9.3-1.6-18.6-6-27.1
		c-6.7-13.1-18-22.8-32-27.3c-5.5-1.8-11.2-2.7-17-2.7c-23.9,0-44.9,15.3-52.3,38c-4.5,14-3.4,28.9,3.3,42c6.7,13.1,18,22.8,32,27.3
		c5.5,1.8,11.2,2.7,17,2.7c18.7,0,35.7-9.4,45.7-24.4l41.2,13.4c-0.7,4.5-1.1,9.2-1.1,13.9c0,25.3,10.2,48.3,26.7,65l-25.5,35.1
		c-6-2.2-12.4-3.4-18.9-3.4c-17.6,0-34.2,8.5-44.5,22.7c-8.6,11.9-12.1,26.4-9.8,40.9c2.3,14.5,10.1,27.3,22,35.9
		c9.5,6.9,20.6,10.5,32.3,10.5c17.6,0,34.2-8.5,44.5-22.7c14.8-20.3,13.5-47.5-1.3-66.3l25.5-35.1c12.5,6.3,26.6,9.9,41.5,9.9
		s29-3.6,41.5-9.9l25.5,35.1c-14.8,18.8-16,46-1.3,66.3c10.3,14.2,27,22.7,44.5,22.7c11.7,0,22.8-3.6,32.3-10.5
		c11.9-8.6,19.7-21.4,22-35.9c2.3-14.5-1.2-29-9.8-40.9c-10.3-14.2-27-22.7-44.5-22.7c-6.5,0-12.9,1.1-18.9,3.4l-25.5-35.1
		c16.5-16.7,26.7-39.7,26.7-65c0-4.7-0.4-9.4-1-13.9l41.2-13.4c10,15,27,24.4,45.7,24.4c5.8,0,11.5-0.9,17-2.7
		c14-4.5,25.3-14.2,32-27.3C467.3,205.2,468.5,190.3,464,176.3z M78.8,201c-3.4,10.3-12.9,17.3-23.8,17.3c-2.6,0-5.2-0.4-7.7-1.2
		c-6.4-2.1-11.5-6.5-14.5-12.4c-3-5.9-3.6-12.7-1.5-19.1c3.4-10.3,12.9-17.3,23.8-17.3c2.6,0,5.2,0.4,7.7,1.2
		c6.4,2.1,11.5,6.5,14.6,12.4S80.9,194.7,78.8,201z M208.4,63.8c0-13.8,11.2-25,25-25s25,11.2,25,25s-11.2,25-25,25
		S208.4,77.5,208.4,63.8z M143.4,417.6c-4.7,6.5-12.3,10.3-20.3,10.3c-5.3,0-10.4-1.7-14.7-4.8c-5.4-3.9-9-9.7-10-16.3
		c-1-6.6,0.5-13.2,4.5-18.6c4.7-6.5,12.3-10.3,20.3-10.3c5.3,0,10.4,1.7,14.7,4.8C149,390.8,151.5,406.5,143.4,417.6z M170.9,251.3
		c0-34.5,28-62.5,62.5-62.5s62.5,28,62.5,62.5s-28,62.5-62.5,62.5S170.9,285.7,170.9,251.3z M363.8,388.3c3.9,5.4,5.5,12,4.5,18.6
		c-1,6.6-4.6,12.4-10,16.3c-4.3,3.1-9.4,4.8-14.7,4.8c-8,0-15.6-3.9-20.3-10.3c-8.1-11.2-5.6-26.8,5.5-34.9
		c4.3-3.1,9.4-4.8,14.7-4.8C351.5,377.9,359.1,381.8,363.8,388.3z M433.9,204.7c-3,5.9-8.2,10.4-14.6,12.4c-2.5,0.8-5.1,1.2-7.7,1.2
		c-10.9,0-20.4-6.9-23.8-17.3c-2.1-6.4-1.5-13.1,1.5-19.1s8.2-10.4,14.6-12.4c2.5-0.8,5.1-1.2,7.7-1.2c10.9,0,20.4,6.9,23.8,17.3
		C437.5,191.9,437,198.7,433.9,204.7z"/>
</g>
</svg>
