<?xml version="1.0" encoding="utf-8"?>
<!-- Generator: Adobe Illustrator 19.2.1, SVG Export Plug-In . SVG Version: 6.00 Build 0)  -->
<svg version="1.1" id="Capa_1" xmlns="http://www.w3.org/2000/svg" xmlns:xlink="http://www.w3.org/1999/xlink" x="0px" y="0px"
	 viewBox="0 0 363 363" style="enable-background:new 0 0 363 363;" xml:space="preserve">
<style type="text/css">
	.st0{fill:#FFFFFF;}
</style>
<path class="st0" d="M219.1,334.7c-1.4,0-2.9-0.6-4-1.7l-40.3-37H46.7C24.3,296,6,278,6,255.9V154.6C6,132.2,24.3,114,46.7,114H144
	V50.3c0-22.2,18.3-40.3,40.9-40.3h137.9C345,10,363,28.1,363,50.3v101.3c0,22.3-18,40.4-40.2,40.4H206.1c-2.3,0-4.1,0-5.7,0
	c-0.8,0-1.6,0-2.3,0c-1.4,0-2,0-2.3,0.1l-0.7,0.1l-0.6,0.4c-0.8,0.6-2.2,1.8-4.8,4.1c-0.4,0.4-2.4,2.1-2.4,2.1l-33,30.1
	c-1.1,1-2.6,1.6-4.1,1.6c-0.9,0-1.7-0.2-2.4-0.5c-2.3-1-3.8-3.2-3.8-5.5V126H46.7C30.9,126,18,138.8,18,154.6v101.3
	c0,15.5,12.9,28.1,28.7,28.1h130.4c1.3,0,2.7,0.6,4,1.8l31.9,29.4v-92.4c0-3.3,2.7-6,6-6s6,2.7,6,6v105.9c0,2.4-1.3,4.5-3.5,5.4
	C220.8,334.5,220,334.7,219.1,334.7z M184.9,22C169,22,156,34.7,156,50.3v160.5l23.1-20.9c0.4-0.4,0.8-0.7,1.2-1
	c0.5-0.4,0.9-0.7,1.3-1.1c7.4-6.9,9-7.8,17-7.8c0.6,0,1.3,0,2,0c1.5,0,3.3,0,5.4,0h116.7c15.6,0,28.2-12.8,28.2-28.4V50.3
	c0-15.8-12.4-28.3-28.2-28.3H184.9z M101.7,209c-3.3,0-6-2.7-6-6s2.7-6,6-6h0.7c3.3,0,6,2.7,6,6s-2.7,6-6,6H101.7z M70.4,209
	c-3.3,0-6-2.7-6-6s2.7-6,6-6h0.8c3.3,0,6,2.7,6,6s-2.7,6-6,6H70.4z M251.8,146.3c-3.3,0-5.8-2.6-5.8-6s2.5-6.1,5.8-6.1s6,2.7,6,6
	C257.8,143.6,255.1,146.3,251.8,146.3z M251.6,120c-3.3,0-6-2.6-6-5.8c-0.1-8.2,6.1-13.3,11.4-17.9l0.2-0.2
	c5.3-4.4,8.5-7.4,8.5-11.1c0-6.6-5.3-11.9-11.9-11.9s-11.9,5.3-11.9,11.9c0,3.3-2.7,6-6,6s-6-2.7-6-6c0-13.2,10.7-23.9,23.9-23.9
	c6.4,0,12.4,2.5,16.9,7s7,10.5,7,16.9c0,9.6-7.1,15.5-12.7,20.3l-0.4,0.3c-5.2,4.4-7.1,6.3-7.1,8.6c0,1.6-0.6,3.1-1.7,4.2
	C254.8,119.4,253.2,120,251.6,120L251.6,120z"/>
</svg>
