<?xml version="1.0" encoding="utf-8"?>
<!-- Generator: Adobe Illustrator 19.2.1, SVG Export Plug-In . SVG Version: 6.00 Build 0)  -->
<svg version="1.1" id="Capa_1" xmlns="http://www.w3.org/2000/svg" xmlns:xlink="http://www.w3.org/1999/xlink" x="0px" y="0px"
	 viewBox="0 0 92 92" style="enable-background:new 0 0 92 92;" xml:space="preserve">
<style type="text/css">
	.st0{fill:#3F51B5;}
</style>
<g>
	<g>
		<g>
			<path class="st0" d="M46,0C20.6,0,0,20.6,0,46c0,25.4,20.6,46,46,46c25.4,0,46-20.6,46-46C92,20.6,71.4,0,46,0z M46,82
				c-19.9,0-36-16.1-36-36c0-19.9,16.1-36,36-36c19.9,0,36,16.1,36,36C82,65.9,65.9,82,46,82z"/>
			<polygon class="st0" points="43.1,46.3 28.2,46.3 28.1,53.2 50.2,53.2 50.2,25.8 43.1,25.8 			"/>
		</g>
	</g>
</g>
</svg>
