<?xml version="1.0" encoding="utf-8"?>
<!-- Generator: Adobe Illustrator 19.2.1, SVG Export Plug-In . SVG Version: 6.00 Build 0)  -->
<svg version="1.1" id="Capa_1" xmlns="http://www.w3.org/2000/svg" xmlns:xlink="http://www.w3.org/1999/xlink" x="0px" y="0px"
	 viewBox="0 0 220 220" style="enable-background:new 0 0 220 220;" xml:space="preserve">
<style type="text/css">
	.st0{fill:#3F51B5;}
</style>
<g>
	<rect y="40.5" class="st0" width="58" height="165"/>
	<path class="st0" d="M206,65.5v-51h-88L85,47v18.5H72v140h148v-140H206z M105,55.7v-0.4l21.3-20.8h0.8h58.2h0.7v77h-0.7H105V55.7z
		 M117,188.5H94v-21h23V188.5z M117,150.5H94v-21h23V150.5z M157,188.5h-23v-21h23V188.5z M157,150.5h-23v-21h23V150.5z M197,188.5
		h-23v-21h23V188.5z M197,150.5h-23v-21h23V150.5z"/>
</g>
</svg>
