<?xml version="1.0" encoding="utf-8"?>
<!-- Generator: Adobe Illustrator 19.2.1, SVG Export Plug-In . SVG Version: 6.00 Build 0)  -->
<svg version="1.1" id="Capa_1" xmlns="http://www.w3.org/2000/svg" xmlns:xlink="http://www.w3.org/1999/xlink" x="0px" y="0px"
	 viewBox="0 0 27.9 27.9" style="enable-background:new 0 0 27.9 27.9;" xml:space="preserve">
<style type="text/css">
	.st0{fill:#3F51B5;}
</style>
<g>
	<g>
		<path class="st0" d="M2.2,5.3l10,7.9c0.5,0.4,1.1,0.5,1.7,0.5c0.6,0,1.2-0.1,1.7-0.5l10-7.9c0.8-0.6,0.6-1.2-0.4-1.2H13.9H2.6
			C1.6,4.2,1.4,4.7,2.2,5.3z"/>
		<path class="st0" d="M26.4,7.4l-11,8.3c-0.4,0.3-0.9,0.5-1.5,0.5c-0.5,0-1.1-0.1-1.5-0.5l-11-8.3C0.7,6.8,0,7.1,0,8.2v13.7
			c0,1,0.8,1.9,1.9,1.9h12.1H26c1,0,1.9-0.8,1.9-1.9V8.2C27.9,7.1,27.2,6.8,26.4,7.4z"/>
	</g>
</g>
</svg>
