<?xml version="1.0" encoding="utf-8"?>
<!-- Generator: Adobe Illustrator 22.0.1, SVG Export Plug-In . SVG Version: 6.00 Build 0)  -->
<svg version="1.1" id="Capa_1" xmlns="http://www.w3.org/2000/svg" xmlns:xlink="http://www.w3.org/1999/xlink" x="0px" y="0px"
	 viewBox="-49 141 512 512" style="enable-background:new -49 141 512 512;" xml:space="preserve">
<style type="text/css">
	.st0{fill:#3BB885;}
</style>
<path class="st0" d="M136.7,653V365H83.3v-77.2h53.4v-26.6c0-31,3.2-53.5,9.8-68.8c6.5-15.1,18.7-27.6,36.3-37.1
	c17.2-9.3,40.9-14.3,68.7-14.3c25.8,0,52.9,4.3,78.6,12.3l0.7,0.2l-13.3,68.6l-0.7-0.2c-15.1-3.6-29.9-5.5-44-5.5
	c-13.8,0-23.5,3.1-29.4,9.5c-5.9,6.3-8.9,18.8-8.9,37v24.9h71.9v77.2h-71.9V653H136.7z"/>
</svg>
