<?xml version="1.0" encoding="utf-8"?>
<!-- Generator: Adobe Illustrator 22.0.1, SVG Export Plug-In . SVG Version: 6.00 Build 0)  -->
<svg version="1.1" id="Capa_1" xmlns="http://www.w3.org/2000/svg" xmlns:xlink="http://www.w3.org/1999/xlink" x="0px" y="0px"
	 viewBox="-49 141 512 512" style="enable-background:new -49 141 512 512;" xml:space="preserve">
<style type="text/css">
	.st0{fill:#3BB885;}
</style>
<polygon class="st0" points="463,365 399,365 399,301 367,301 367,365 303,365 303,397 367,397 367,461 399,461 399,397 463,397 "/>
<path class="st0" d="M111,429h90.5c-13.2,37.2-48.8,64-90.5,64c-52.9,0-96-43.1-96-96s43.1-96,96-96c22.9,0,45,8.2,62.2,23.2
	l42-48.3C186.4,250.8,149.4,237,111,237c-88.2,0-160,71.8-160,160s71.8,160,160,160s160-71.8,160-160v-32H111V429z"/>
</svg>
