<?xml version="1.0" encoding="utf-8"?>
<!-- Generator: Adobe Illustrator 22.0.1, SVG Export Plug-In . SVG Version: 6.00 Build 0)  -->
<svg version="1.1" id="Layer_1" xmlns="http://www.w3.org/2000/svg" xmlns:xlink="http://www.w3.org/1999/xlink" x="0px" y="0px"
	 viewBox="-49 141 512 512" style="enable-background:new -49 141 512 512;" xml:space="preserve">
<style type="text/css">
	.st0{fill:#3BB885;}
</style>
<g>
	<path class="st0" d="M463,211.9c0-1.7-0.5-3.2-1.1-4.7c-0.2-1.8-1-3.5-2.2-4.9L407.2,141H6.8l-52.5,61.3c-1.2,1.4-2,3.1-2.2,4.9
		c-0.7,1.5-1.1,3-1.1,4.7v91.2h25.6V653h460.8V303.1H463V211.9z M14.7,158.1h384.7l36.6,42.7H-21.9L14.7,158.1z M420.3,635.9H-6.3
		V303.1h426.7V635.9z M445.9,286.1H-31.9v-68.3h477.8V286.1z M445.9,286.1"/>
	<path class="st0" d="M309.4,337.2H104.6v85.3h204.8V337.2z M292.3,405.5H121.7v-51.2h170.7V405.5z M292.3,405.5"/>
	<path class="st0" d="M335,465.2H79v119.5h256V465.2z M317.9,567.7H96.1v-85.3h221.8V567.7z M317.9,567.7"/>
	<path class="st0" d="M138.8,550.6h42.7c4.7,0,8.5-3.8,8.5-8.5c0-4.8-3.8-8.5-8.5-8.5h-42.7c-4.7,0-8.5,3.8-8.5,8.5
		C130.2,546.8,134,550.6,138.8,550.6L138.8,550.6z M138.8,550.6"/>
	<path class="st0" d="M181.4,516.5h93.8c4.7,0,8.5-3.8,8.5-8.5c0-4.7-3.8-8.5-8.5-8.5h-93.8c-4.7,0-8.5,3.8-8.5,8.5
		C172.9,512.7,176.7,516.5,181.4,516.5L181.4,516.5z M181.4,516.5"/>
	<path class="st0" d="M138.8,516.5c2.2,0,4.4-0.9,6-2.5c1.5-1.6,2.5-3.8,2.5-6.1c0-2.2-0.9-4.4-2.5-6c-3.3-3.2-8.9-3.2-12.1,0
		c-1.5,1.6-2.5,3.8-2.5,6c0,2.3,0.9,4.5,2.5,6.1C134.3,515.5,136.4,516.5,138.8,516.5L138.8,516.5z M138.8,516.5"/>
	<path class="st0" d="M218,536c-1.5,1.6-2.5,3.8-2.5,6.1c0,2.2,0.9,4.4,2.5,6c1.6,1.5,3.8,2.5,6.1,2.5c2.2,0,4.4-0.9,6-2.5
		c1.5-1.6,2.5-3.8,2.5-6c0-2.3-0.9-4.5-2.5-6.1C227,532.8,221.2,532.8,218,536L218,536z M218,536"/>
	<path class="st0" d="M275.2,533.5h-8.5c-4.7,0-8.5,3.8-8.5,8.5c0,4.7,3.8,8.5,8.5,8.5h8.5c4.7,0,8.5-3.8,8.5-8.5
		C283.8,537.3,280,533.5,275.2,533.5L275.2,533.5z M275.2,533.5"/>
</g>
</svg>
