<?xml version="1.0" encoding="utf-8"?>
<!-- Generator: Adobe Illustrator 22.0.1, SVG Export Plug-In . SVG Version: 6.00 Build 0)  -->
<svg version="1.1" id="Layer_1" xmlns="http://www.w3.org/2000/svg" xmlns:xlink="http://www.w3.org/1999/xlink" x="0px" y="0px"
	 viewBox="-49 141 512 512" style="enable-background:new -49 141 512 512;" xml:space="preserve">
<style type="text/css">
	.st0{fill:#FFFFFF;}
</style>
<path class="st0" d="M427.2,372.4l-13.3-53c3.6-0.8,6.3-4,6.3-7.8v-8.6c0-18.6-15.1-33.7-33.7-33.7h-60.4v-17.6
	c0-9.1-7.4-16.6-16.6-16.6H1.8c-9.1,0-16.6,7.4-16.6,16.6V397c0,4.4,3.6,8,8,8s8-3.6,8-8V251.6c0-0.3,0.2-0.5,0.5-0.5h307.8
	c0.3,0,0.5,0.2,0.5,0.5V397c0,4.4,3.6,8,8,8c4.4,0,8-3.6,8-8v-9.1h94.6c0,0,0,0,0,0c0,0,0,0,0,0c11.6,0,21.5,7.6,24.9,18.2h-24.9
	c-4.4,0-8,3.6-8,8v17.1c0,13.9,11.3,25.1,25.1,25.1h9.1v35.3h-21c-6.9-19.9-25.8-34.2-48-34.2s-41.1,14.3-48,34.2h-3.9v-60.4
	c0-4.4-3.6-8-8-8c-4.4,0-8,3.6-8,8v60.4H143.8c-6.9-19.9-25.8-34.2-48-34.2s-41.1,14.3-48,34.2H1.8c-0.3,0-0.5-0.2-0.5-0.5v-17.6H36
	c4.4,0,8-3.6,8-8c0-4.4-3.6-8-8-8h-77c-4.4,0-8,3.6-8,8c0,4.4,3.6,8,8,8h26.2v17.6c0,9.1,7.4,16.6,16.6,16.6h43.3c0,0.2,0,0.4,0,0.5
	c0,28,22.8,50.8,50.8,50.8s50.8-22.8,50.8-50.8c0-0.2,0-0.4,0-0.5h180.7c0,0.2,0,0.4,0,0.5c0,28,22.8,50.8,50.8,50.8
	c28,0,50.8-22.8,50.8-50.8c0-0.2,0-0.4,0-0.5H455c4.4,0,8-3.6,8-8v-85.5C463,393,447.4,375.4,427.2,372.4z M326.2,319.5h71.2
	l13.1,52.4h-84.3V319.5z M386.6,285.3c9.7,0,17.6,7.9,17.6,17.6v0.5h-78v-18.2H386.6z M95.8,542.9c-19.2,0-34.7-15.6-34.7-34.7
	c0-19.2,15.6-34.7,34.7-34.7s34.7,15.6,34.7,34.7C130.6,527.3,115,542.9,95.8,542.9z M378,542.9c-19.2,0-34.7-15.6-34.7-34.7
	c0-19.2,15.6-34.7,34.7-34.7c19.2,0,34.7,15.6,34.7,34.7C412.8,527.3,397.2,542.9,378,542.9z M437.9,440.3c-5,0-9.1-4.1-9.1-9.1
	v-9.1H447v18.2H437.9z"/>
<path class="st0" d="M95.8,491.6c-9.1,0-16.6,7.4-16.6,16.6s7.4,16.6,16.6,16.6s16.6-7.4,16.6-16.6S105,491.6,95.8,491.6z"/>
<path class="st0" d="M378,491.6c-9.1,0-16.6,7.4-16.6,16.6s7.4,16.6,16.6,16.6s16.6-7.4,16.6-16.6S387.2,491.6,378,491.6z"/>
<path class="st0" d="M156.2,465.4c0,4.4,3.6,8,8,8H284c4.4,0,8-3.6,8-8c0-4.4-3.6-8-8-8H164.2C159.8,457.4,156.2,461,156.2,465.4z"
	/>
<path class="st0" d="M-23.9,439.2H78.7c4.4,0,8-3.6,8-8c0-4.4-3.6-8-8-8H-23.9c-4.4,0-8,3.6-8,8C-31.9,435.6-28.3,439.2-23.9,439.2z
	"/>
<path class="st0" d="M218.4,314.4l-71.3,71.3l-37.1-37.1c-3.1-3.1-8.2-3.1-11.3,0c-3.1,3.1-3.1,8.2,0,11.3l42.8,42.8
	c1.6,1.6,3.6,2.3,5.7,2.3s4.1-0.8,5.7-2.3l77-77c3.1-3.1,3.1-8.2,0-11.3C226.6,311.2,221.6,311.2,218.4,314.4z"/>
</svg>
