<?xml version="1.0" encoding="utf-8"?>
<!-- Generator: Adobe Illustrator 22.0.1, SVG Export Plug-In . SVG Version: 6.00 Build 0)  -->
<svg version="1.1" id="Layer_1" xmlns="http://www.w3.org/2000/svg" xmlns:xlink="http://www.w3.org/1999/xlink" x="0px" y="0px"
	 viewBox="0 0 512 323.9" style="enable-background:new 0 0 512 323.9;" xml:space="preserve">
<style type="text/css">
	.st0{fill:#3BB885;}
</style>
<path class="st0" d="M476.2,137.3l-13.3-53c3.6-0.8,6.3-4,6.3-7.8v-8.6c0-18.6-15.1-33.7-33.7-33.7h-60.4V16.6
	c0-9.1-7.4-16.6-16.6-16.6H50.8c-9.1,0-16.6,7.4-16.6,16.6v145.3c0,4.4,3.6,8,8,8s8-3.6,8-8V16.5c0-0.3,0.2-0.5,0.5-0.5h307.8
	c0.3,0,0.5,0.2,0.5,0.5v145.4c0,4.4,3.6,8,8,8s8-3.6,8-8v-9.1h94.6l0,0l0,0c11.6,0,21.5,7.6,24.9,18.2h-24.9c-4.4,0-8,3.6-8,8v17.1
	c0,13.9,11.3,25.1,25.1,25.1h9.1v35.3h-21c-6.9-19.9-25.8-34.2-48-34.2s-41.1,14.3-48,34.2h-3.9v-60.4c0-4.4-3.6-8-8-8s-8,3.6-8,8
	v60.4H192.8c-6.9-19.9-25.8-34.2-48-34.2s-41.1,14.3-48,34.2h-46c-0.3,0-0.5-0.2-0.5-0.5v-17.6H85c4.4,0,8-3.6,8-8s-3.6-8-8-8H8
	c-4.4,0-8,3.6-8,8s3.6,8,8,8h26.2V256c0,9.1,7.4,16.6,16.6,16.6h43.3c0,0.2,0,0.4,0,0.5c0,28,22.8,50.8,50.8,50.8
	s50.8-22.8,50.8-50.8c0-0.2,0-0.4,0-0.5h180.7c0,0.2,0,0.4,0,0.5c0,28,22.8,50.8,50.8,50.8s50.8-22.8,50.8-50.8c0-0.2,0-0.4,0-0.5
	h26c4.4,0,8-3.6,8-8v-85.5C512,157.9,496.4,140.3,476.2,137.3z M375.2,84.4h71.2l13.1,52.4h-84.3V84.4z M435.6,50.2
	c9.7,0,17.6,7.9,17.6,17.6v0.5h-78V50.1h60.4V50.2z M144.8,307.8c-19.2,0-34.7-15.6-34.7-34.7c0-19.2,15.6-34.7,34.7-34.7
	s34.7,15.6,34.7,34.7C179.6,292.2,164,307.8,144.8,307.8z M427,307.8c-19.2,0-34.7-15.6-34.7-34.7c0-19.2,15.6-34.7,34.7-34.7
	c19.2,0,34.7,15.6,34.7,34.7C461.8,292.2,446.2,307.8,427,307.8z M486.9,205.2c-5,0-9.1-4.1-9.1-9.1V187H496v18.2H486.9z"/>
<path class="st0" d="M144.8,256.5c-9.1,0-16.6,7.4-16.6,16.6s7.4,16.6,16.6,16.6s16.6-7.4,16.6-16.6S154,256.5,144.8,256.5z"/>
<path class="st0" d="M427,256.5c-9.1,0-16.6,7.4-16.6,16.6s7.4,16.6,16.6,16.6s16.6-7.4,16.6-16.6S436.2,256.5,427,256.5z"/>
<path class="st0" d="M205.2,230.3c0,4.4,3.6,8,8,8H333c4.4,0,8-3.6,8-8s-3.6-8-8-8H213.2C208.8,222.3,205.2,225.9,205.2,230.3z"/>
<path class="st0" d="M25.1,204.1h102.6c4.4,0,8-3.6,8-8s-3.6-8-8-8H25.1c-4.4,0-8,3.6-8,8S20.7,204.1,25.1,204.1z"/>
<path class="st0" d="M267.4,79.3l-71.3,71.3L159,113.5c-3.1-3.1-8.2-3.1-11.3,0c-3.1,3.1-3.1,8.2,0,11.3l42.8,42.8
	c1.6,1.6,3.6,2.3,5.7,2.3s4.1-0.8,5.7-2.3l77-77c3.1-3.1,3.1-8.2,0-11.3C275.6,76.1,270.6,76.1,267.4,79.3z"/>
</svg>
