<?xml version="1.0" encoding="utf-8"?>
<!-- Generator: Adobe Illustrator 22.0.1, SVG Export Plug-In . SVG Version: 6.00 Build 0)  -->
<svg version="1.1" id="Режим_изоляции"
	 xmlns="http://www.w3.org/2000/svg" xmlns:xlink="http://www.w3.org/1999/xlink" x="0px" y="0px" viewBox="0 0 91.6 70.8"
	 style="enable-background:new 0 0 91.6 70.8;" xml:space="preserve">
<style type="text/css">
	.st0{fill:#52AE82;}
</style>
<path class="st0" d="M90.1,8.7l-7.2-7.2c-1-1-2.3-1.6-3.7-1.6c-1.4,0-2.7,0.5-3.7,1.6L33.3,43.7L16.2,26.6c-1-1-2.3-1.6-3.7-1.6
	c-1.4,0-2.7,0.5-3.7,1.6l-7.2,7.2c-1,1-1.6,2.3-1.6,3.7c0,1.4,0.5,2.7,1.6,3.7l28,28c1,1,2.3,1.6,3.7,1.6c1.4,0,2.7-0.5,3.7-1.6
	l53.1-53.1c1-1,1.6-2.3,1.6-3.7C91.6,11,91.1,9.8,90.1,8.7L90.1,8.7z M90.1,8.7"/>
</svg>
