<?xml version="1.0" encoding="utf-8"?>
<!-- Generator: Adobe Illustrator 22.0.1, SVG Export Plug-In . SVG Version: 6.00 Build 0)  -->
<svg version="1.1" id="Layer_1" xmlns="http://www.w3.org/2000/svg" xmlns:xlink="http://www.w3.org/1999/xlink" x="0px" y="0px"
	 viewBox="0 0 512 512" style="enable-background:new 0 0 512 512;" xml:space="preserve">
<style type="text/css">
	.st0{fill:#3F51B5;}
</style>
<g>
	<path class="st0" d="M437.3,0H74.7C68.8,0,64,4.8,64,10.7v480c0,5.9,4.8,10.7,10.7,10.7h10.7c0,5.9,4.8,10.7,10.7,10.7
		c5.9,0,10.7-4.8,10.7-10.7h298.7c0,5.9,4.8,10.7,10.7,10.7c5.9,0,10.7-4.8,10.7-10.7h10.7c5.9,0,10.7-4.8,10.7-10.7v-480
		C448,4.8,443.2,0,437.3,0z M85.3,480V373.3H96h64h64h21.3V480H85.3z M181.3,117.3h-64V96h64V117.3z M202.7,138.7h64h42.7h21.3H352
		h21.3H416h10.7v96H416V192H309.3v42.7H202.7v-85.3H160h-21.3H96v85.3H85.3v-96H96H202.7z M394.7,117.3h-21.3v-64h21.3V117.3z
		 M352,117.3h-21.3v-64H352V117.3z M309.3,117.3H288v-64h21.3V117.3z M394.7,234.7h-64v-21.3h64V234.7z M138.7,234.7h-21.4v-64h21.3
		L138.7,234.7L138.7,234.7z M181.3,234.7H160v-64h21.3V234.7z M138.7,352h-21.4v-64h21.3L138.7,352L138.7,352z M245.3,352v-21.3h64
		V352H245.3z M309.3,309.3h-64V288h64V309.3z M330.7,330.7v-21.3V288H352v64h-21.3V330.7z M394.7,352h-21.3v-64h21.3V352z
		 M373.3,266.7H352h-21.3h-21.3H224v42.7v21.3V352h-64v-85.3H96V352H85.3v-96H96h42.7H160h42.7h106.7H416h10.7v96H416v-85.3H373.3z
		 M426.7,21.3v96H416V32h-42.7H352h-21.3h-21.3h-42.7v85.3h-64V74.6H96v42.7H85.3v-96L426.7,21.3L426.7,21.3z M266.7,480V373.3h42.7
		h21.3H352h21.3H416h10.7V480H266.7z"/>
	<path class="st0" d="M224,405.3c-5.9,0-10.7,4.8-10.7,10.7v21.3c0,5.9,4.8,10.7,10.7,10.7s10.7-4.8,10.7-10.7V416
		C234.7,410.1,229.9,405.3,224,405.3z"/>
	<path class="st0" d="M288,405.3c-5.9,0-10.7,4.8-10.7,10.7v21.3c0,5.9,4.8,10.7,10.7,10.7s10.7-4.8,10.7-10.7V416
		C298.7,410.1,293.9,405.3,288,405.3z"/>
</g>
</svg>
