<?xml version="1.0" encoding="utf-8"?>
<!-- Generator: Adobe Illustrator 22.0.1, SVG Export Plug-In . SVG Version: 6.00 Build 0)  -->
<svg version="1.1" id="Capa_1" xmlns="http://www.w3.org/2000/svg" xmlns:xlink="http://www.w3.org/1999/xlink" x="0px" y="0px"
	 viewBox="0 0 382 382" style="enable-background:new 0 0 382 382;" xml:space="preserve">
<style type="text/css">
	.st0{fill:#3F51B5;}
</style>
<path class="st0" d="M374,79.6h-77c0.3-7.3,0-14.6-1.8-21.7c-6.3-25.2-24.7-45.1-49.4-53.3l-2.2-0.7C235.9,1.3,227.9,0,218.5,0
	c-24.9,0-48.1,12.2-62.2,32.7l-136,195.2c-2.1,2.7-4,5.4-5.8,8.3l-1,1.4l0.1,0.1C5,252,0,268.7,0,286.6c0,52.7,42.8,95.5,95.5,95.5
	H183h16c4.4,0,8-3.6,8-8c0-4.4-3.6-8-8-8h-1.7l19.5-31.8h14.1c4.4,0,8-3.6,8-8s-3.6-8-8-8h-4.4l19.5-31.8h16.8c4.4,0,8-3.6,8-8
	s-3.6-8-8-8h-7l19.5-31.8h11.5c4.4,0,8-3.6,8-8s-3.6-8-8-8h-1.7l19.5-31.8h14.1c4.4,0,8-3.6,8-8s-3.6-8-8-8H314l19.5-31.8h8.8
	c4.4,0,8-3.6,8-8c0-4.1-3.1-7.4-7.1-7.8l19.6-32H374c4.4,0,8-3.6,8-8C382,83.1,378.4,79.6,374,79.6z M169.5,41.7
	c11.1-16.2,29.5-25.8,50.3-25.8c6.4,0,12.8,1,18.8,3.1l2.2,0.7c19.4,6.5,34,22.2,38.9,42c3.9,15.5,1.3,32.3-7.2,45.8L174.4,264
	c-3.4-40.7-37.3-73-78.9-73c-12.3,0-24,2.4-34.7,6.6L169.5,41.7z M178.6,366.1H95.5c-43.9,0-79.6-35.7-79.6-79.6
	c0-15.7,4.7-30.3,12.6-42.7l2.8-4c14.5-19.9,37.8-32.9,64.2-32.9c35.1,0,63.7,28.6,63.7,63.7s-28.6,63.7-63.7,63.7
	c-26.3,0-47.8-21.4-47.8-47.8s21.4-47.8,47.8-47.8c2.1,0,4.2,0.2,6.2,0.6L91.1,255c-15.5,2.1-27.4,15.5-27.4,31.5
	c0,17.5,14.3,31.8,31.8,31.8c26.3,0,47.8-21.4,47.8-47.8c0-26.3-21.4-47.8-47.8-47.8c-35.1,0-63.7,28.6-63.7,63.7
	s28.6,63.7,63.7,63.7c30.9,0,57.4-17.9,70.6-43.7l0.3,0.2L286.2,116c3.9-6.4,6.5-13.3,8.4-20.5H344L178.6,366.1z M102.1,267.1
	l14.1-20.7c6.8,5.8,11.1,14.5,11.1,24.2c0,17.5-14.3,31.8-31.8,31.8c-8.8,0-15.9-7.1-15.9-15.9s7.1-15.9,15.9-15.9
	C98.1,270.6,100.6,269.3,102.1,267.1z"/>
</svg>
