<?xml version="1.0" encoding="utf-8"?>
<!-- Generator: Adobe Illustrator 22.0.1, SVG Export Plug-In . SVG Version: 6.00 Build 0)  -->
<svg version="1.1" id="Capa_1" xmlns="http://www.w3.org/2000/svg" xmlns:xlink="http://www.w3.org/1999/xlink" x="0px" y="0px"
	 viewBox="0 0 345.8 230.5" style="enable-background:new 0 0 345.8 230.5;" xml:space="preserve">
<style type="text/css">
	.st0{fill:#3F51B5;}
</style>
<path class="st0" d="M109.5,0H17.3C7.8,0,0,7.7,0,17.3v195.9c0,9.5,7.7,17.3,17.3,17.3h92.2c9.5,0,17.3-7.7,17.3-17.3V17.3
	C126.8,7.7,119,0,109.5,0z M115.3,213.2c0,3.2-2.6,5.8-5.8,5.8H17.3c-3.2,0-5.8-2.6-5.8-5.8V17.3c0-3.2,2.6-5.8,5.8-5.8h92.2
	c3.2,0,5.8,2.6,5.8,5.8V213.2z"/>
<path class="st0" d="M63.4,126.8c-22.3,0-40.3,18.1-40.3,40.3c0,22.3,18.1,40.3,40.3,40.3c22.3,0,40.3-18.1,40.3-40.3
	S85.7,126.8,63.4,126.8z M63.4,195.9c-15.9,0-28.8-12.9-28.8-28.8s12.9-28.8,28.8-28.8s28.8,12.9,28.8,28.8S79.3,195.9,63.4,195.9z"
	/>
<path class="st0" d="M63.4,23.1c-12.7,0-23.1,10.3-23.1,23.1c0,12.7,10.3,23.1,23.1,23.1S86.5,59,86.5,46.2
	C86.4,33.4,76.1,23.1,63.4,23.1z M63.4,57.6c-6.4,0-11.5-5.2-11.5-11.5c0-6.4,5.2-11.5,11.5-11.5c6.3,0,11.5,5.2,11.5,11.5
	C74.9,52.5,69.8,57.6,63.4,57.6z"/>
<path class="st0" d="M328.5,0h-92.2C226.8,0,219,7.7,219,17.3v195.9c0,9.5,7.7,17.3,17.3,17.3h92.2c9.5,0,17.3-7.7,17.3-17.3V17.3
	C345.8,7.7,338,0,328.5,0z M334.2,213.2c0,3.2-2.6,5.8-5.8,5.8h-92.2c-3.2,0-5.8-2.6-5.8-5.8V17.3c0-3.2,2.6-5.8,5.8-5.8h92.2
	c3.2,0,5.8,2.6,5.8,5.8V213.2z"/>
<path class="st0" d="M282.4,126.8c-22.3,0-40.3,18.1-40.3,40.3s18.1,40.3,40.3,40.3s40.3-18.1,40.3-40.3
	C322.7,144.9,304.6,126.8,282.4,126.8z M282.4,195.9c-15.9,0-28.8-12.9-28.8-28.8s12.9-28.8,28.8-28.8s28.8,12.9,28.8,28.8
	S298.3,195.9,282.4,195.9z"/>
<path class="st0" d="M282.4,23.1c-12.7,0-23.1,10.3-23.1,23.1c0,12.7,10.3,23.1,23.1,23.1s23.1-10.3,23.1-23.1
	C305.4,33.4,295.1,23.1,282.4,23.1z M282.4,57.6c-6.4,0-11.5-5.2-11.5-11.5c0-6.4,5.2-11.5,11.5-11.5s11.5,5.2,11.5,11.5
	C293.9,52.5,288.7,57.6,282.4,57.6z"/>
<path class="st0" d="M201.7,115.3h-57.6c-3.2,0-5.8,2.6-5.8,5.8v103.7c0,3.2,2.6,5.8,5.8,5.8h57.6c3.2,0,5.8-2.6,5.8-5.8V121
	C207.5,117.8,204.9,115.3,201.7,115.3z M195.9,219h-46.1v-92.2h46.1V219z"/>
<rect x="161.4" y="138.3" class="st0" width="23.1" height="11.5"/>
<rect x="167.1" y="184.4" class="st0" width="11.5" height="23.1"/>
<ellipse transform="matrix(2.392321e-03 -1 1 2.392321e-03 -103.8512 230.1001)" class="st0" cx="63.4" cy="167.1" rx="5.8" ry="5.8"/>
<circle class="st0" cx="282.4" cy="167.1" r="5.8"/>
<rect x="167.1" y="161.4" class="st0" width="11.5" height="11.5"/>
</svg>
