<?xml version="1.0" encoding="utf-8"?>
<!-- Generator: Adobe Illustrator 22.0.1, SVG Export Plug-In . SVG Version: 6.00 Build 0)  -->
<svg version="1.1" id="Capa_1" xmlns="http://www.w3.org/2000/svg" xmlns:xlink="http://www.w3.org/1999/xlink" x="0px" y="0px"
	 viewBox="0 0 366.7 348.4" style="enable-background:new 0 0 366.7 348.4;" xml:space="preserve">
<style type="text/css">
	.st0{fill:#3F51B5;}
</style>
<g>
	<path class="st0" d="M363.4,104.6L363.4,104.6l-162-83.9c0.1-0.8,0.2-1.6,0.3-2.4c0-10.1-8.2-18.3-18.3-18.3s-18.3,8.2-18.3,18.3
		c0,0.8,0.1,1.6,0.3,2.4l-162,83.8v0.1c-2,1-3.3,3.1-3.3,5.4v232.2c0,3.4,2.7,6.1,6.1,6.1h354.5c3.4,0,6.1-2.7,6.1-6.1V110
		C366.7,107.7,365.4,105.7,363.4,104.6z M170.8,31.7c7,6.6,18,6.6,25,0l139.6,72.2H31.2L170.8,31.7z M183.4,12.2
		c3.4,0,6.1,2.8,6.1,6.2c0,0.9-0.2,1.9-0.6,2.7c-1.8,3-5.8,4-8.8,2.2c-0.9-0.5-1.6-1.2-2.1-2.1c-0.4-0.9-0.7-1.8-0.7-2.8
		C177.2,15,180,12.2,183.4,12.2L183.4,12.2z M354.5,336.1H12.2v-220h342.3V336.1z"/>
	<path class="st0" d="M30.6,323.9h305.6c3.4,0,6.1-2.7,6.1-6.1V134.5c0-3.4-2.7-6.1-6.1-6.1H30.6c-3.4,0-6.1,2.7-6.1,6.1v183.4
		C24.4,321.2,27.2,323.9,30.6,323.9z M36.7,311.7V307c4.8-3.6,13.1-10.8,28.2-24.4l10.6,9.2c2.4,2.1,6.1,2,8.3-0.3l7.9-7.9l7.9,7.9
		c2.1,2.1,5.3,2.4,7.7,0.8l17.8-11.9l11.2,11.2c1.1,1.1,2.7,1.8,4.3,1.8h36.7v-12.2h-34.1l-15.3-15.3l25.7-25.7l14.2,9.4
		c1.8,1.2,4.2,1.4,6.1,0.4l9.5-4.7l9.5,4.7c0.8,0.4,1.8,0.6,2.7,0.6c1.3,0,2.6-0.4,3.7-1.2l13.2-9.9L228,255
		c1.1,1.1,2.7,1.8,4.3,1.8h48.9v-12.2h-46.4L221.2,231l10.8-13.2l13.7,18.2c1.2,1.5,3,2.4,4.9,2.4H330v73.3H36.7z M116.3,271.6
		l-11.6,7.8l-8.7-8.7c-2.4-2.4-6.3-2.4-8.6,0l-8.2,8.2l-5.2-4.5c6.8-6.1,14.5-13.1,23.6-21.4L116.3,271.6z M162.4,231.3l21-21
		l20.4,20.4l-8.8,6.6l-8.8-4.5c-1.7-0.9-3.7-0.9-5.5,0l-9.1,4.5L162.4,231.3z M330,140.6v85.6h-76.4l-16.5-22
		c-1.1-1.5-2.9-2.4-4.8-2.4c-1.9,0-3.7,0.8-4.9,2.2l-14.9,18.3l-24.9-24.9c-2.4-2.4-6.3-2.4-8.6,0l-59.8,59.8l-17.1-17.1
		c-2.3-2.3-6-2.4-8.4-0.2c-17.5,15.9-43.2,39.1-57,51.3V140.6H330z"/>
	<path class="st0" d="M311.7,171.1c0-10.1-8.2-18.3-18.3-18.3V165c3.4,0,6.1,2.7,6.1,6.1s-2.7,6.1-6.1,6.1h-36.7v12.2h36.7
		C303.5,189.5,311.7,181.3,311.7,171.1z"/>
	<path class="st0" d="M97.8,195.6c10.1,0,18.3-8.2,18.3-18.3c0-10.1-8.2-18.3-18.3-18.3s-18.3,8.2-18.3,18.3S87.7,195.6,97.8,195.6z
		 M97.8,171.1c3.4,0,6.1,2.7,6.1,6.1s-2.7,6.1-6.1,6.1s-6.1-2.7-6.1-6.1C91.7,173.9,94.4,171.1,97.8,171.1z"/>
</g>
</svg>
