<?xml version="1.0" encoding="utf-8"?>
<!-- Generator: Adobe Illustrator 22.0.1, SVG Export Plug-In . SVG Version: 6.00 Build 0)  -->
<svg version="1.1" id="Слой_1" xmlns="http://www.w3.org/2000/svg" xmlns:xlink="http://www.w3.org/1999/xlink" x="0px" y="0px"
	 viewBox="0 0 98.1 85.9" style="enable-background:new 0 0 98.1 85.9;" xml:space="preserve">
<style type="text/css">
	.st0{fill:#3F51B5;}
</style>
<g>
	<path class="st0" d="M98.1,60.2c0-4.4-3.5-7.9-7.9-7.9s-7.9,3.5-7.9,7.9c0,3.1,1.8,5.8,4.4,7.1c-0.4,0.3-0.7,0.9-0.7,1.4
		c0,1,0.8,1.8,1.8,1.8h0.8c-0.8,6.6-6.4,11.7-13.2,11.7c-2.4,0-4.5-0.3-6.4-0.8c1.9-2.7,3.1-6.5,3.3-10.9h0.9c1,0,1.8-0.8,1.8-1.8
		c0-0.6-0.3-1.2-0.8-1.5c2.5-1.3,4.2-4,4.2-7c0-4.4-3.5-7.9-7.9-7.9s-7.9,3.5-7.9,7.9c0,3.1,1.8,5.8,4.4,7.1
		c-0.4,0.3-0.7,0.9-0.7,1.4c0,1,0.8,1.8,1.8,1.8h0.6C68.3,74.7,67,78,65.4,80c-1.5-0.8-2.8-1.9-3.9-3.2c-3.7-4.2-5.7-11.1-5.8-20.4
		c0.9-0.1,1.7-0.9,1.7-1.8c0-1-0.8-1.8-1.7-1.8V29.3c0-5.5,2.1-6.2,4.2-6.2c1.3,0,2.4,1.1,2.4,2.4c0,1,0.8,1.8,1.8,1.8
		c1,0,1.8-0.8,1.8-1.8c0-3.4-2.7-6.1-6.1-6.1c-2.4,0-4.3,0.8-5.7,2.3c-1.4,1.6-2.2,4-2.2,7.2V29v23.7h-1.2v-29
		c1.9-0.7,3.2-2.5,3.2-4.6s-1.3-3.9-3.2-4.6V1.8C50.9,0.8,50,0,49,0s-1.8,0.8-1.8,1.8v12.6C45.4,15.2,44,17,44,19.1s1.3,3.9,3.2,4.6
		v29.1H46V29.1V29c0-3.2-0.8-5.6-2.2-7.2c-1.4-1.5-3.3-2.3-5.7-2.3c-3.4,0-6.1,2.7-6.1,6.1c0,1,0.8,1.8,1.8,1.8s1.8-0.8,1.8-1.8
		c0-1.3,1.1-2.4,2.4-2.4c2.1,0,4.2,0.7,4.2,6.2v23.5c-1,0.1-1.7,0.9-1.7,1.8c0,1,0.7,1.8,1.7,1.8c-0.1,9.3-2,16.2-5.8,20.4
		c-1.1,1.3-2.4,2.3-3.9,3.2c-0.4-0.4-0.6-0.9-0.9-1.3c-1.3-2.2-2.1-5.1-2.3-8.2h0.6c1,0,1.8-0.8,1.8-1.8c0-0.6-0.3-1.1-0.7-1.4
		c2.6-1.3,4.4-4,4.4-7.1c0-4.4-3.5-7.9-7.9-7.9s-7.9,3.5-7.9,7.9c0,3,1.7,5.7,4.2,7c-0.5,0.3-0.8,0.9-0.8,1.5c0,1,0.8,1.8,1.8,1.8
		h0.9c0.2,4.3,1.5,8.1,3.3,10.9c-1.9,0.5-4,0.8-6.4,0.8c-6.8,0-12.4-5.1-13.2-11.7h0.8c1,0,1.8-0.8,1.8-1.8c0-0.6-0.3-1.1-0.7-1.4
		c2.6-1.3,4.4-4,4.4-7.1c0-4.4-3.5-7.9-7.9-7.9s-7.9,3.5-7.9,7.9c0,3,1.7,5.7,4.2,7c-0.5,0.3-0.8,0.9-0.8,1.5c0,1,0.8,1.8,1.8,1.8
		h0.7c0.8,8.6,8,15.3,16.8,15.3c3.4,0,6.5-0.5,9.2-1.6c1.4,1,2.9,1.6,4.5,1.6c4.6,0,8.1-2.4,10.5-7c0.8-1.6,1.5-3.4,2-5.4
		c0.6,2.1,1.2,3.9,2,5.4c2.4,4.7,5.9,7,10.5,7c1.6,0,3.2-0.6,4.5-1.6c2.7,1,5.8,1.6,9.2,1.6c8.8,0,16-6.7,16.8-15.3h0.7
		c1,0,1.8-0.8,1.8-1.8c0-0.6-0.3-1.2-0.8-1.5C96.3,65.9,98.1,63.3,98.1,60.2L98.1,60.2z M70.4,56c2.3,0,4.3,1.9,4.3,4.3
		c0,2.3-1.9,4.3-4.3,4.3c-2.3,0-4.3-1.9-4.3-4.3C66.2,57.9,68.1,56,70.4,56L70.4,56z M49,17.8c0.7,0,1.3,0.6,1.3,1.3
		c0,0.7-0.6,1.3-1.3,1.3s-1.3-0.6-1.3-1.3S48.3,17.8,49,17.8L49,17.8z M27.6,56c2.3,0,4.3,1.9,4.3,4.3c0,2.3-1.9,4.3-4.3,4.3
		c-2.3,0-4.3-1.9-4.3-4.3C23.4,57.9,25.3,56,27.6,56L27.6,56z M7.9,56c2.3,0,4.3,1.9,4.3,4.3c0,2.3-1.9,4.3-4.3,4.3
		c-2.3,0-4.3-1.9-4.3-4.3C3.6,57.9,5.6,56,7.9,56L7.9,56z M43.8,77.2c-1.8,3.4-4.1,5-7.3,5c-0.2,0-0.3,0-0.5,0
		c1.2-0.8,2.3-1.8,3.3-3c2.2-2.5,3.8-5.6,4.9-9.5c1.1-3.8,1.7-8.2,1.7-13.3h1.2C47.1,65.9,46,72.9,43.8,77.2L43.8,77.2z M61.6,82.2
		c-3.2,0-5.5-1.6-7.3-5c-2.2-4.3-3.4-11.3-3.4-20.8h1.2c0.1,5.1,0.6,9.6,1.7,13.3c1.1,3.8,2.8,7,4.9,9.5c1,1.1,2.1,2.1,3.3,3
		C61.9,82.2,61.8,82.2,61.6,82.2L61.6,82.2z M90.2,64.5c-2.3,0-4.3-1.9-4.3-4.3c0-2.3,1.9-4.3,4.3-4.3c2.3,0,4.3,1.9,4.3,4.3
		C94.4,62.6,92.5,64.5,90.2,64.5L90.2,64.5z"/>
</g>
</svg>
