<?xml version="1.0" encoding="utf-8"?>
<!-- Generator: Adobe Illustrator 22.0.1, SVG Export Plug-In . SVG Version: 6.00 Build 0)  -->
<svg version="1.1" id="Layer_1" xmlns="http://www.w3.org/2000/svg" xmlns:xlink="http://www.w3.org/1999/xlink" x="0px" y="0px"
	 viewBox="0 0 512 512" style="enable-background:new 0 0 512 512;" xml:space="preserve">
<style type="text/css">
	.st0{fill:#3F51B5;}
</style>
<path class="st0" d="M358.4,0H153.6c-4.7,0-8.5,3.8-8.5,8.5v93.9c0,4.7,3.8,8.5,8.5,8.5h76.8V273c0,37.2-4.9,60.2-10.6,86.7
	c-7,33-15,70.4-15,143.7c0,4.7,3.8,8.5,8.5,8.5h85.3c4.7,0,8.5-3.8,8.5-8.5c0-73.3-8-110.7-15-143.7c-5.7-26.6-10.6-49.5-10.6-86.7
	V110.9h76.8c4.7,0,8.5-3.8,8.5-8.5V8.5C366.9,3.8,363.1,0,358.4,0z M275.5,363.4c6.6,30.8,14,65.6,14.6,131.6h-68.2
	c0.6-65.9,8-100.7,14.6-131.6c5.6-26.4,11-51.3,11-90.3V110.9h17.1V273C264.5,312.1,269.9,337,275.5,363.4z M349.9,93.9H162.1V17.1
	h187.7v76.8H349.9z"/>
</svg>
