<?xml version="1.0" encoding="utf-8"?>
<!-- Generator: Adobe Illustrator 22.0.1, SVG Export Plug-In . SVG Version: 6.00 Build 0)  -->
<svg version="1.1" id="Capa_1" xmlns="http://www.w3.org/2000/svg" xmlns:xlink="http://www.w3.org/1999/xlink" x="0px" y="0px"
	 viewBox="0 0 217.4 317.3" style="enable-background:new 0 0 217.4 317.3;" xml:space="preserve">
<style type="text/css">
	.st0{fill:#3F51B5;}
</style>
<path class="st0" d="M161.2,106.4c48,0,55.9-95.1,56.2-99.2c0.1-3.4-2.5-6.4-5.9-6.6c-55-3-89.3,5.1-102.7,23.9
	C95.4,5.5,61-2.4,6.1,0.6c-3.4,0.2-6,2.9-6,6.3c0.3,4,8.2,99.2,56.2,99.2c13.5-1,26.3-6.6,36.3-15.9c7.2,11,10.8,24,10.3,37.2
	c-0.6,7-0.7,13.9-0.4,20.9H33c-6.2,0-11.3,5.1-11.3,11.3v25.6c0.1,6.2,5.1,11.1,11.3,11.1h2.3L45,305.9c0,6.2,5.1,11.3,11.3,11.3
	l0,0h105c6,0.1,11-4.7,11.2-10.7l9.9-110.2h2.2c6.2,0,11.3-5.1,11.3-11.3l0,0v-25.5c0-6.2-5.1-11.2-11.3-11.2h-69.5
	c-1.1-19.6,2.7-39.1,11.1-56.9C135.8,100.2,148.1,105.5,161.2,106.4L161.2,106.4z M49.8,36.9c-3.3-1-6.9,0.9-7.8,4.3
	c-1,3.3,0.9,6.9,4.3,7.8c15.6,4.5,31.6,23,38.3,31.6c-7.7,7.4-17.7,12-28.3,13c-27.8,0-39.8-53.6-43-81c49.4-1.9,79.5,5.8,87.1,22.1
	c5.7,12.3-1.9,27.6-7.3,36.2C84.7,60.6,67.8,42.1,49.8,36.9L49.8,36.9z M160,304.7H57.4l-9.7-108.3h122L160,304.7z M183.3,161v22.8
	H34.2V161H183.3z M109.9,96.2c-2.1-5.4-4.9-10.4-8.5-15c2.8-4,5.2-8.2,7.3-12.6c2.2,4.6,4.8,9,7.8,13.2
	C113.8,86.4,111.6,91.2,109.9,96.2z M117.1,34.8c7.6-16.3,37.9-24.1,87.1-22.1c-3.2,27.5-15.2,81-43,81c-8.4,0-18.1-4.6-29.1-13.6
	c4.6-8.5,16.4-27.1,31.6-31c3.4-0.9,5.4-4.3,4.5-7.7s-4.3-5.4-7.7-4.5c-17.4,4.5-30.3,21.9-37,32.8
	C118.2,60.9,111.6,46.4,117.1,34.8L117.1,34.8z"/>
</svg>
