<?xml version="1.0" encoding="utf-8"?>
<!-- Generator: Adobe Illustrator 22.0.1, SVG Export Plug-In . SVG Version: 6.00 Build 0)  -->
<svg version="1.1" id="Capa_1" xmlns="http://www.w3.org/2000/svg" xmlns:xlink="http://www.w3.org/1999/xlink" x="0px" y="0px"
	 viewBox="0 0 265.6 198.1" style="enable-background:new 0 0 265.6 198.1;" xml:space="preserve">
<style type="text/css">
	.st0{fill:#3F51B5;}
</style>
<path class="st0" d="M56.9,198.1c-3.5,0-6.3-2.8-6.3-6.3c0-22.1,18-40,40-40h84.3c22.1,0,40,18,40,40c0,3.5-2.8,6.3-6.3,6.3H56.9z
	 M201.9,185.5l-1-2.8c-3.9-10.9-14.3-18.3-25.9-18.3H90.7c-11.6,0-22,7.3-25.9,18.3l-1,2.8H201.9z"/>
<path class="st0" d="M6.3,46.3C2.8,46.3,0,43.5,0,40V6.3C0,2.8,2.8,0,6.3,0h253c3.5,0,6.3,2.8,6.3,6.3V40c0,3.5-2.8,6.3-6.3,6.3H6.3
	z M253,33.7V12.6H12.6v21.1H253z"/>
<path class="st0" d="M124.4,164.4c-3.1,0-5.8-2.3-6.2-5.4L101.3,40.9c-0.2-1.7,0.2-3.3,1.2-4.7c1-1.3,2.5-2.2,4.2-2.5
	c0.3,0,0.6-0.1,0.9-0.1c3.1,0,5.8,2.3,6.3,5.4L130,151.7h5.9L152,39c0.4-3.1,3.1-5.4,6.2-5.4c0.3,0,0.6,0,0.9,0.1
	c3.4,0.5,5.8,3.7,5.4,7.1l-17,118.2c-0.4,3.1-3.1,5.4-6.2,5.4H124.4z"/>
</svg>
