<?xml version="1.0" encoding="utf-8"?>
<!-- Generator: Adobe Illustrator 22.0.1, SVG Export Plug-In . SVG Version: 6.00 Build 0)  -->
<svg version="1.1" id="Layer_1" xmlns="http://www.w3.org/2000/svg" xmlns:xlink="http://www.w3.org/1999/xlink" x="0px" y="0px"
	 viewBox="0 0 512 512" style="enable-background:new 0 0 512 512;" xml:space="preserve">
<style type="text/css">
	.st0{fill:#3F51B5;}
</style>
<path class="st0" d="M480,149.3h-10.7V96c0-29.4-23.9-53.3-53.3-53.3H96c-29.4,0-53.3,23.9-53.3,53.3v53.3H32c-17.6,0-32,14.4-32,32
	v213.3c0,17.6,14.4,32,32,32h10.7v32c0,5.9,4.8,10.7,10.7,10.7h85.3c5.9,0,10.7-4.8,10.7-10.7v-32h213.3v32
	c0,5.9,4.8,10.7,10.7,10.7h85.3c5.9,0,10.7-4.8,10.7-10.7v-32H480c17.6,0,32-14.4,32-32V181.3C512,163.7,497.6,149.3,480,149.3z
	 M64,96c0-17.6,14.4-32,32-32h320c17.6,0,32,14.4,32,32v53.3h-10.7c-17.6,0-32,14.4-32,32V256H106.7v-74.7c0-17.6-14.4-32-32-32H64
	V96z M106.7,277.3h298.7V320H106.7V277.3z M128,448H64v-21.3h64V448z M448,448h-64v-21.3h64V448z M490.7,394.7
	c0,5.9-4.8,10.7-10.7,10.7h-21.3h-85.3H138.7H53.3H32c-5.9,0-10.7-4.8-10.7-10.7V181.3c0-5.9,4.8-10.7,10.7-10.7h42.7
	c5.9,0,10.7,4.8,10.7,10.7v85.3v64c0,5.9,4.8,10.7,10.7,10.7h320c5.9,0,10.7-4.8,10.7-10.7v-64v-85.3c0-5.9,4.8-10.7,10.7-10.7H480
	c5.9,0,10.7,4.8,10.7,10.7V394.7z"/>
</svg>
