<?xml version="1.0" encoding="utf-8"?>
<!-- Generator: Adobe Illustrator 22.0.1, SVG Export Plug-In . SVG Version: 6.00 Build 0)  -->
<svg version="1.1" id="Capa_1" xmlns="http://www.w3.org/2000/svg" xmlns:xlink="http://www.w3.org/1999/xlink" x="0px" y="0px"
	 viewBox="0 0 512 512" style="enable-background:new 0 0 512 512;" xml:space="preserve">
<style type="text/css">
	.st0{fill:#3F51B5;}
</style>
<path class="st0" d="M373.3,256h-9.6l19.4-193.7c12.8-4.2,22.2-16.1,22.2-30.3c0-17.6-14.4-32-32-32H138.7c-17.6,0-32,14.4-32,32
	c0,14.2,9.4,26.1,22.2,30.3L148.2,256h-9.6c-17.6,0-32,14.4-32,32c0,13.9,8.9,25.6,21.3,30v183.3c0,5.9,4.8,10.7,10.7,10.7
	s10.7-4.8,10.7-10.7V384h213.3v117.3c0,5.9,4.8,10.7,10.7,10.7s10.7-4.8,10.7-10.7V318c12.4-4.4,21.3-16.1,21.3-30
	C405.3,270.4,391,256,373.3,256z M315.2,256l9.6-192h36.8l-19.2,192H315.2z M218.1,256l-9.6-192h36.8v192H218.1z M266.7,64h36.8
	l-9.6,192h-27.2V64z M138.7,21.3h234.7c5.9,0,10.7,4.8,10.7,10.7s-4.8,10.7-10.7,10.7H138.7c-5.9,0-10.7-4.8-10.7-10.7
	S132.8,21.3,138.7,21.3z M150.4,64h36.8l9.6,192h-27.2L150.4,64z M149.3,362.7V320h213.3v42.7H149.3z M373.3,298.7H138.7
	c-5.9,0-10.7-4.8-10.7-10.7c0-5.9,4.8-10.7,10.7-10.7h234.7c5.9,0,10.7,4.8,10.7,10.7C384,293.9,379.2,298.7,373.3,298.7z"/>
</svg>
