<?xml version="1.0" encoding="utf-8"?>
<!-- Generator: Adobe Illustrator 22.0.1, SVG Export Plug-In . SVG Version: 6.00 Build 0)  -->
<svg version="1.1" id="Layer_1" xmlns="http://www.w3.org/2000/svg" xmlns:xlink="http://www.w3.org/1999/xlink" x="0px" y="0px"
	 viewBox="0 0 462.8 580.9" style="enable-background:new 0 0 462.8 580.9;" xml:space="preserve">
<style type="text/css">
	.st0{fill:#3F51B5;}
</style>
<path class="st0" d="M452.7,0H10.1C4.5,0,0,4.5,0,10.1v342c0,5.6,4.5,10.1,10.1,10.1h60.3c0.7,0,1.3-0.1,2-0.2
	c4.6-0.9,8.1-5,8.1-9.9c0-5.5-4.5-10.1-10.1-10.1H20.1v-60.4h422.5V342H130.8c-5.4,0-9.8,4.2-10,9.5c0,0.1,0,0.2,0,0.3
	c0,0.2,0,0.3,0,0.5c0.2,4.7,3.6,8.6,8.1,9.5c0.6,0.1,1.3,0.2,2,0.2h321.9c5.5,0,10-4.5,10-10.1V9.9C462.7,4.5,458.2,0,452.7,0z
	 M221.3,261.5H20.1V20.1h201.2V261.5z M241.4,261.5V20.1h201.2v241.4H241.4z"/>
<path class="st0" d="M452.7,341.8h-10.1l0,0H10.1c-5.6,0-10.1,4.5-10.1,10.1v218.9c0,5.5,4.5,10.1,10.1,10.1h442.6
	c5.5,0,10-4.5,10-10.1v-219C462.7,346.3,458.2,341.8,452.7,341.8z M221.3,560.7H20.1V442.3h201.2V560.7z M221.3,422.3H20.1v-60.4
	h201.2V422.3z M442.6,422.3l-70.1-0.1c-0.4,0-0.9,0-1.3,0.1h-19.1c5.5,0,10.1,4.5,10.1,10.1c0,5.1-3.9,9.4-8.9,10l89.3,0.1v118.4
	H241.4V442.5h110.7c0.4,0,0.8,0,1.2-0.1h19.2c-5.5,0-10.1-4.5-10.1-10.1c0-5.1,3.8-9.3,8.7-10H241.4v-60.4h201.2V422.3L442.6,422.3z
	 M120.7,352.4c0-0.2,0-0.4,0-0.5s0-0.2,0-0.3c0.2-5.4,4.6-9.7,10-9.7h-30.1c2.6,0,5.2,1.1,7.1,3s3,4.5,3,7.1s-1.1,5.2-3,7.1
	s-4.5,2.9-7.1,2.9h30.2C125.4,361.9,121,357.7,120.7,352.4z"/>
<path class="st0" d="M267.3,387.9c-7.9,0-14.4,6.4-14.4,14.4s6.4,14.4,14.4,14.4c7.9,0,14.4-6.4,14.4-14.4S275.2,387.9,267.3,387.9z
	"/>
<path class="st0" d="M195.4,387.9c-7.9,0-14.4,6.4-14.4,14.4s6.4,14.4,14.4,14.4s14.4-6.4,14.4-14.4S203.4,387.9,195.4,387.9z"/>
<path class="st0" d="M191.1,110.8c-11.1,0-20.1,9-20.1,20.1s9,20.1,20.1,20.1s20.1-9,20.1-20.1S202.2,110.8,191.1,110.8z"/>
<path class="st0" d="M271.6,110.8c-11.1,0-20.1,9-20.1,20.1s9,20.1,20.1,20.1s20.1-9,20.1-20.1S282.7,110.8,271.6,110.8z"/>
<g>
	<path class="st0" d="M412.4,40.2H311.8c-5.5,0-10.1,4.5-10.1,10.1v181c0,5.6,4.5,10.1,10.1,10.1h100.6c5.6,0,10.1-4.5,10.1-10.1
		v-181C422.5,44.7,418,40.2,412.4,40.2z M402.4,221.3h-80.5V60.4h80.5V221.3z"/>
</g>
<g>
	<path class="st0" d="M150.9,40.2H50.3c-5.5,0-10,4.5-10,10.1v181c0,5.6,4.5,10.1,10,10.1h100.6c5.5,0,10.1-4.5,10.1-10.1v-48.6l0,0
		V50.3C161,44.7,156.4,40.2,150.9,40.2z M140.8,221.3H60.3V60.4h80.5V221.3z"/>
</g>
</svg>
