<?xml version="1.0" encoding="utf-8"?>
<!-- Generator: Adobe Illustrator 22.0.1, SVG Export Plug-In . SVG Version: 6.00 Build 0)  -->
<svg version="1.1" id="Capa_1" xmlns="http://www.w3.org/2000/svg" xmlns:xlink="http://www.w3.org/1999/xlink" x="0px" y="0px"
	 viewBox="0 0 430.2 430.2" style="enable-background:new 0 0 430.2 430.2;" xml:space="preserve">
<style type="text/css">
	.st0{fill:#3F51B5;}
</style>
<path class="st0" d="M421.3,53.8H9c-5,0-9-4-9-9V9c0-5,4-9,9-9h412.3c5,0,9,4,9,9v35.9C430.2,49.8,426.2,53.8,421.3,53.8z
	 M17.9,35.9h394.4V18H17.9V35.9z"/>
<path class="st0" d="M376.5,394.4H53.8c-14.4,0.4-26.5-10.9-26.9-25.4c0-0.5,0-1,0-1.5V71.7h17.9v295.8c-0.4,4.5,2.9,8.5,7.4,9
	c0.5,0.1,1.1,0.1,1.6,0h322.7c4.5,0.4,8.5-2.9,9-7.4c0.1-0.5,0.1-1.1,0-1.6V71.7h17.9v295.8c0.4,14.4-10.9,26.5-25.4,26.9
	C377.5,394.4,377,394.4,376.5,394.4z"/>
<path class="st0" d="M98.6,430.2H62.7c-5,0-9-4-9-9v-35.9c0-5,4-9,9-9h35.9c5,0,9,4,9,9v35.9C107.6,426.2,103.5,430.2,98.6,430.2z
	 M71.7,412.3h17.9v-17.9H71.7V412.3z"/>
<path class="st0" d="M367.5,430.2h-35.9c-5,0-9-4-9-9v-35.9c0-5,4-9,9-9h35.9c5,0,9,4,9,9v35.9C376.5,426.2,372.4,430.2,367.5,430.2
	z M340.6,412.3h17.9v-17.9h-17.9V412.3z"/>
<path class="st0" d="M35.9,206.2h358.5v17.9H35.9V206.2z"/>
<path class="st0" d="M358.5,188.2h-17.9V89.6h-251v98.6H71.7V80.7c0-5,4-9,9-9h268.9c5,0,9,4,9,9v107.5H358.5z"/>
<path class="st0" d="M358.5,358.5h-17.9v-98.6h-251v98.6H71.7V251c0-5,4-9,9-9h268.9c5,0,9,4,9,9v107.5H358.5z"/>
<path class="st0" d="M197.2,134.4H233v17.9h-35.9L197.2,134.4L197.2,134.4z"/>
<path class="st0" d="M197.2,304.7H233v17.9h-35.9L197.2,304.7L197.2,304.7z"/>
</svg>
