<?xml version="1.0" encoding="utf-8"?>
<!-- Generator: Adobe Illustrator 22.0.1, SVG Export Plug-In . SVG Version: 6.00 Build 0)  -->
<svg version="1.1" id="Layer_1" xmlns="http://www.w3.org/2000/svg" xmlns:xlink="http://www.w3.org/1999/xlink" x="0px" y="0px"
	 viewBox="0 0 378.3 529.5" style="enable-background:new 0 0 378.3 529.5;" xml:space="preserve">
<style type="text/css">
	.st0{fill:#3F51B5;}
</style>
<path class="st0" d="M289.2,66.8c2.9,0,5.8-1.2,7.9-3.3c2.1-2.1,3.3-4.9,3.3-7.9c0-2.9-1.2-5.8-3.3-7.9c-2.1-2.1-4.9-3.3-7.9-3.3
	s-5.8,1.2-7.9,3.3s-3.3,4.9-3.3,7.9c0,2.9,1.2,5.8,3.3,7.9C283.4,65.6,286.3,66.8,289.2,66.8z"/>
<path class="st0" d="M367.1,0h-356C5,0,0,5,0,11.1v44.5v384.9V485c0,6.1,5,11.1,11.1,11.1h11.1c0,18.4,15,33.4,33.4,33.4
	s33.4-15,33.4-33.4h200.3c0,18.4,15,33.4,33.4,33.4s33.4-15,33.4-33.4h11.1c6.1,0,11.1-5,11.1-11.1v-44.5V55.6V11.1
	C378.2,5,373.3,0,367.1,0z M22.2,22.3H356v22.3h-33.4c-6.1,0-11.1,5-11.1,11.1s5,11.1,11.1,11.1H356v362.6H200.2V66.8h55.6
	c6.1,0,11.1-5,11.1-11.1s-5-11.1-11.1-11.1H22.2V22.3z M22.2,429.4v-22.3h33.4c6.1,0,11.1-5,11.1-11.1s-5-11.1-11.1-11.1H22.2V66.8
	H178v362.6L22.2,429.4L22.2,429.4z M55.6,507.2c-6.1,0-11.1-5-11.1-11.1h22.3C66.7,502.3,61.7,507.2,55.6,507.2z M322.6,507.2
	c-6.1,0-11.1-5-11.1-11.1h22.3C333.7,502.3,328.7,507.2,322.6,507.2z M356,473.9h-14.1h-38.5H74.8H36.3H22.2v-22.3H356V473.9z"/>
<path class="st0" d="M233.7,181.4c-6.1,0-11.1,5-11.1,11.1V237c0,6.1,5,11.1,11.1,11.1s11.1-5,11.1-11.1v-44.5
	C244.8,186.4,239.8,181.4,233.7,181.4z"/>
<path class="st0" d="M144.7,178.1c-6.1,0-11.1,5-11.1,11.1v44.5c0,6.1,5,11.1,11.1,11.1s11.1-5,11.1-11.1v-44.5
	C155.8,183,150.8,178.1,144.7,178.1z"/>
<path class="st0" d="M89,384.9c-2.9,0-5.8,1.2-7.9,3.3s-3.3,4.9-3.3,7.9s1.2,5.8,3.3,7.9c2.1,2.1,4.9,3.3,7.9,3.3s5.8-1.2,7.9-3.3
	s3.3-4.9,3.3-7.9s-1.2-5.8-3.3-7.9C94.8,386.1,91.9,384.9,89,384.9z"/>
</svg>
