<?xml version="1.0" encoding="utf-8"?>
<!-- Generator: Adobe Illustrator 19.2.1, SVG Export Plug-In . SVG Version: 6.00 Build 0)  -->
<svg version="1.1" id="Capa_1" xmlns="http://www.w3.org/2000/svg" xmlns:xlink="http://www.w3.org/1999/xlink" x="0px" y="0px"
	 viewBox="0 0 485 485" style="enable-background:new 0 0 485 485;" xml:space="preserve">
<style type="text/css">
	.st0{fill:#FFFFFF;}
</style>
<g>
	<g>
		<path class="st0" d="M483.8,46.3H181.6c-0.6,0-1.2,0.5-1.2,1.2v28.3c0,0.6,0.5,1.2,1.2,1.2h302.2c0.6,0,1.2-0.5,1.2-1.2V47.5
			C485,46.8,484.5,46.3,483.8,46.3z"/>
		<circle class="st0" cx="71.5" cy="253.4" r="37.9"/>
		<circle class="st0" cx="71.5" cy="419.5" r="38.1"/>
		<path class="st0" d="M181.6,128.1h142.8c0.6,0,1.2-0.5,1.2-1.2V98.6c0-0.6-0.5-1.2-1.2-1.2H181.6c-0.6,0-1.2,0.5-1.2,1.2v28.3
			C180.5,127.7,181,128.1,181.6,128.1z"/>
		<path class="st0" d="M483.8,212.4H181.6c-0.6,0-1.2,0.5-1.2,1.2v28.3c0,0.6,0.5,1.2,1.2,1.2h302.2c0.6,0,1.2-0.5,1.2-1.2v-28.3
			C485,212.9,484.5,212.4,483.8,212.4z"/>
		<path class="st0" d="M181.6,294.4h142.8c0.6,0,1.2-0.5,1.2-1.2v-28.3c0-0.6-0.5-1.2-1.2-1.2H181.6c-0.6,0-1.2,0.5-1.2,1.2v28.3
			C180.5,293.8,181,294.4,181.6,294.4z"/>
		<path class="st0" d="M483.8,378.5H181.6c-0.6,0-1.2,0.5-1.2,1.2V408c0,0.6,0.5,1.2,1.2,1.2h302.2c0.6,0,1.2-0.5,1.2-1.2v-28.3
			C485,379,484.5,378.5,483.8,378.5z"/>
		<path class="st0" d="M324.4,429.9H181.6c-0.6,0-1.2,0.5-1.2,1.2v28.3c0,0.6,0.5,1.2,1.2,1.2h142.8c0.6,0,1.2-0.5,1.2-1.2v-28.3
			C325.6,430.4,325.1,429.9,324.4,429.9z"/>
		<polygon class="st0" points="53.4,86.6 27.3,60.3 0,87.4 26.2,113.7 53.3,140.9 80.5,113.8 143,51.8 115.9,24.5 		"/>
	</g>
</g>
</svg>
