<?xml version="1.0" encoding="utf-8"?>
<!-- Generator: Adobe Illustrator 22.0.1, SVG Export Plug-In . SVG Version: 6.00 Build 0)  -->
<svg version="1.1" id="Слой_1" xmlns="http://www.w3.org/2000/svg" xmlns:xlink="http://www.w3.org/1999/xlink" x="0px" y="0px"
	 viewBox="0 0 600 600" style="enable-background:new 0 0 600 600;" xml:space="preserve">
<style type="text/css">
	.st0{fill:#FFFFFF;}
	.st1{fill:#D52B1E;}
	.st2{fill:#0039A6;}
	.st3{fill:none;}
	.st4{fill:#AEAEAE;}
</style>
<path class="st0" d="M600,300H0c0-35.1,6-68.7,17.1-100C58.3,83.5,169.4,0,300,0s241.7,83.5,282.9,200C594,231.3,600,264.9,600,300z
	"/>
<path class="st1" d="M600,300c0,35.1-6,68.7-17.1,100C541.7,516.5,430.6,600,300,600S58.3,516.5,17.1,400C6,368.7,0,335.1,0,300H600
	z"/>
<path class="st2" d="M600,300c0,35.1-6,68.7-17.1,100H17.1C6,368.7,0,335.1,0,300s6-68.7,17.1-100h565.9
	C594,231.3,600,264.9,600,300z"/>
<path class="st3" d="M600,300c0,35.1-6,68.7-17.1,100C541.7,516.5,430.6,600,300,600S58.3,516.5,17.1,400C6,368.7,0,335.1,0,300
	s6-68.7,17.1-100C58.3,83.5,169.4,0,300,0s241.7,83.5,282.9,200C594,231.3,600,264.9,600,300z"/>
<g>
	<path class="st4" d="M300,600c-80.1,0-155.5-31.2-212.1-87.9S0,380.1,0,300S31.2,144.5,87.9,87.9S219.9,0,300,0
		s155.5,31.2,212.1,87.9S600,219.9,600,300s-31.2,155.5-87.9,212.1S380.1,600,300,600z M300,20.4C145.8,20.4,20.4,145.8,20.4,300
		S145.8,579.6,300,579.6S579.6,454.2,579.6,300S454.2,20.4,300,20.4z"/>
</g>
</svg>
