<?xml version="1.0" encoding="utf-8"?>
<!-- Generator: Adobe Illustrator 22.0.1, SVG Export Plug-In . SVG Version: 6.00 Build 0)  -->
<svg version="1.1" id="Слой_1" xmlns="http://www.w3.org/2000/svg" xmlns:xlink="http://www.w3.org/1999/xlink" x="0px" y="0px"
	 viewBox="0 0 600 600" style="enable-background:new 0 0 600 600;" xml:space="preserve">
<style type="text/css">
	.st0{fill:none;}
	.st1{fill:#00247D;}
	.st2{fill:#FFFFFF;}
	.st3{fill:none;stroke:#FFFFFF;stroke-width:10;}
	.st4{fill:#CF142B;}
	.st5{fill:#AEAEAE;}
</style>
<path class="st0" d="M600,300c0,35.1-6,68.7-17.1,100C541.7,516.5,430.6,600,300,600S58.3,516.5,17.1,400C6,368.7,0,335.1,0,300
	s6-68.7,17.1-100C58.3,83.5,169.4,0,300,0s241.7,83.5,282.9,200C594,231.3,600,264.9,600,300z"/>
<path class="st1" d="M600,300c0,35.1-6.1,68.7-17,100c-4.2,11.8-9,23.3-14.6,34.3C519.1,532.5,417.4,600,300,600
	S80.9,532.5,31.7,434.3c-5.6-11-10.4-22.4-14.6-34.3c-11-31.3-17-64.9-17-100s6.1-68.7,17-100c4.2-11.8,9-23.3,14.6-34.3
	C80.9,67.5,182.6,0,300,0s219.1,67.5,268.3,165.7c5.6,11,10.4,22.4,14.6,34.3C593.9,231.3,600,264.9,600,300z"/>
<g>
	<polygon class="st2" points="55,480.9 8.3,387.6 183.3,300 8.3,212.4 55,119.1 300,241.7 545,119.1 591.7,212.4 416.7,300 
		591.7,387.6 545,480.9 300,358.3 	"/>
</g>
<path class="st3" d="M300,0v300v300 M0,300h300h300"/>
<g>
	<path class="st4" d="M600,300c0,17.7-1.6,35.3-4.5,52.2H352.2v243.3c-16.9,3-34.4,4.5-52.2,4.5s-35.3-1.6-52.2-4.5V352.2H4.5
		C1.6,335.3,0,317.7,0,300s1.6-35.3,4.5-52.2h243.3V4.7C264.7,1.6,282.3,0,300,0s35.3,1.6,52.2,4.7v243.1h243.3
		C598.4,264.7,600,282.3,600,300z"/>
</g>
<path class="st0" d="M600,300c0,17.7-1.6,35.3-4.5,52.2c-3,16.3-7.1,32.3-12.5,47.8c-4.2,11.8-9,23.3-14.6,34.3
	C526.6,517.6,447,578.8,352.2,595.5c-16.9,3-34.4,4.5-52.2,4.5s-35.3-1.6-52.2-4.5C153,578.8,73.4,517.6,31.7,434.3
	c-5.6-11-10.4-22.4-14.6-34.3c-5.4-15.5-9.6-31.5-12.5-47.8C1.6,335.3,0,317.7,0,300s1.6-35.3,4.5-52.2c3-16.3,7.1-32.3,12.5-47.8
	c4.2-11.8,9-23.3,14.6-34.3C73.4,82.4,153,21.2,247.8,4.7C264.7,1.6,282.3,0,300,0s35.3,1.6,52.2,4.7
	c94.8,16.5,174.4,77.7,216.2,161c5.6,11,10.4,22.4,14.6,34.3c5.4,15.5,9.6,31.5,12.5,47.8C598.4,264.7,600,282.3,600,300z"/>
<g>
	<path class="st5" d="M300,600c-80.1,0-155.5-31.2-212.1-87.9S0,380.1,0,300S31.2,144.5,87.9,87.9S219.9,0,300,0
		s155.5,31.2,212.1,87.9S600,219.9,600,300s-31.2,155.5-87.9,212.1S380.1,600,300,600z M300,20.4C145.8,20.4,20.4,145.8,20.4,300
		S145.8,579.6,300,579.6S579.6,454.2,579.6,300S454.2,20.4,300,20.4z"/>
</g>
</svg>
