<?xml version="1.0" encoding="utf-8"?>
<!-- Generator: Adobe Illustrator 22.0.1, SVG Export Plug-In . SVG Version: 6.00 Build 0)  -->
<svg version="1.1" id="Layer_1" xmlns="http://www.w3.org/2000/svg" xmlns:xlink="http://www.w3.org/1999/xlink" x="0px" y="0px"
	 viewBox="0 0 512 512" style="enable-background:new 0 0 512 512;" xml:space="preserve">
<style type="text/css">
	.st0{fill:#3F51B5;}
</style>
<g>
	<g>
		<path class="st0" d="M256,510c-67.7,0-131.5-26.4-179.6-74.4C28.4,387.7,2,323.9,2,256c0-67.7,26.4-131.5,74.4-179.6
			C124.3,28.4,188.1,2,256,2c67.9,0,131.7,26.4,179.6,74.4c48,47.9,74.4,111.7,74.4,179.6c0,67.8-26.4,131.6-74.4,179.6
			C387.7,483.6,323.9,510,256,510z M199.1,27.8c-26.5,6.6-51.4,17.6-74,32.9l-0.9,0.6v52.5c0,16.6-8.3,31.9-22.3,40.9l-24.5,15.9
			c-3.4,2.2-6.2,5-8.5,8.3l-48.1,70.6l0,0.6c-0.1,2-0.1,4-0.1,6c0,17.8,2,35.7,6.1,53.2l0.4,1.6h22.6c8.8,0,17,4.5,21.8,12
			l29.3,45.7l0,0.1c0.1,0.2,0.4,0.5,29.6,27.3c6.2,5.6,9.3,14,8.3,22.4l-4.8,39l1.1,0.7c36.4,21.9,78.2,33.5,120.8,33.5
			c129.6,0,235.2-105.4,235.3-235c0-13.7-1.2-27.5-3.5-40.9l-0.4-2l-8.5,1.7c-1,0.1-1.8,0.8-2,1.8l-2.3,9.1
			c-1.7,6.9-6.8,12.4-13.4,14.8c-2.3,0.8-4.7,1.2-7.1,1.2c-4.6,0-9-1.5-12.6-4.2L427.3,227h-0.5c-0.1,0-0.3,0-0.4,0
			c-0.4,0-0.8,0.1-1.2,0.3l-16.7,8.7c-0.4,0.2-0.7,0.4-0.9,0.6c-0.9,0.9-0.9,2.3,0,3.2c0.2,0.2,0.5,0.5,1.1,0.6l0.7,0.2
			c6.4,2.4,11.3,7.8,13.1,14.5c1.7,6.7,0,13.8-4.6,19l-10.6,12.2c-3.9,4.6-9.7,7.2-15.9,7.2c-4.1,0-8-1.2-11.4-3.4l-29.1-18.8h-0.3
			c-0.1,0-0.3,0-0.4,0c-0.2,0-0.4,0-0.6,0.1c-0.9,0.2-1.6,0.9-1.7,1.9l-2.2,13.6v0.2c0,0.7,0.2,1.3,0.7,1.7l15,14.1
			c7.5,7.1,8.9,18.4,3.2,27l-23.9,36.4c-0.3,0.3-0.5,0.8-0.5,1.4l-2.1,52.7c-0.2,5.4-2.4,10.5-6.3,14.2l-32.4,31.8
			c-3.9,3.8-9.3,6-14.8,6c-3.6,0-7.3-1-10.6-2.9l-21-12.3c-5.1-3-8.7-7.9-10-13.7l-9.7-44.2l-9.5-25.4l-0.3-0.3
			c-0.2-0.2-0.7-0.7-1.6-0.8l-42.4-3.7c-6.8-0.5-13-4.4-16.4-10.4l-24.1-41.6c-2.4-4.1-3.4-8.9-2.7-13.7l6.1-40.3
			c0.8-5.5,3.7-10.4,8.1-13.7l37-27.9c3.6-2.7,8.2-4.2,12.8-4.2c2.8,0,5.5,0.5,8.1,1.6l36.2,15.1l50.2,5.4h0.1c0.2,0,0.4,0,0.6-0.1
			h0.2l33.6-24.1l0.1-0.1c0.8-0.8,0.9-1.9,0.4-2.8l-3.2-7l-0.3-0.3c-0.2-0.2-0.8-0.7-1.6-0.8l-92.5-5.1c-3.3-0.2-6.5-1.1-9.3-2.7
			c-7.4-4.3-11.5-12.6-10.4-21c1.1-8.5,7.2-15.4,15.4-17.6l28.3-7.6l0.5-0.5l34-32c3.4-3.2,7.8-5.2,12.3-5.7l51.5-5.3l0.3-0.2
			c1-0.5,1.3-1.2,1.4-1.7c4.9-20.4,12.3-51,13-53.4l0.8-1.6l-1.7-0.9c-16.1-8.8-33.5-15.7-51.5-20.5l-1.2-0.3l-11,12.9
			c-2.5,3-5.7,5.2-9.2,6.6l-27.2,10.9l-0.1,0c-0.8,0.4-1.4,0.9-1.9,1.4l-42.2,49.3c-6.7,7.8-15.3,8.4-17.8,8.4l-0.3,0
			c-7,0-13.7-3.1-18.3-8.4c-4.9-5.6-6.8-13-5.4-20.2c0.4-1.5,1.6-5.9,2.5-7.5l19.1-36c0.5-1,0.7-2.2,0.5-3.3l0-0.1l-3-14.8
			L199.1,27.8z M282.8,453.6c0.4,0.3,0.8,0.4,1.3,0.4c0.6,0,1.2-0.2,1.6-0.7l32.2-31.6c0.5-0.4,0.9-1,0.9-1.8l2.1-52.7
			c0.2-3.9,1.4-7.6,3.5-10.8l24.2-36.8c0.7-0.9,0.6-2.2-0.2-3l-14.9-14c-5.1-4.8-7.5-11.9-6.4-18.8l2.2-13.5
			c1.1-7,5.7-12.9,12.2-15.9c2.7-1.2,5.6-1.8,8.5-1.8c4,0,8,1.2,11.5,3.4l29.1,18.8h0.6c0.8,0,1.4-0.2,1.8-0.7l0.1-0.1l10.6-12.2
			c0.5-0.6,0.6-1.2,0.6-1.6c0-1-0.7-1.9-1.7-2.1l-0.6-0.2c-7.8-3-13.1-10.1-13.6-18.5c-0.5-8.4,3.8-16.1,11.2-20l17-8.9
			c3-1.6,6.4-2.4,9.8-2.4c4.6,0,9.1,1.5,12.7,4.2l14.2,10.6h0.4c0.1,0,0.3,0,0.4,0c0.2,0,0.4,0,0.6-0.1c0.9-0.2,1.6-0.9,1.7-1.8
			l2.3-9.1c1.9-7.9,8.4-14.1,16.4-15.6l8-1.5l-0.6-2.1c-14.9-53.2-48.4-99.8-94.2-131.1l-2.4-1.6l-12,49.6
			c-2.1,8.7-9.5,15.2-18.5,16.2l-51,5.3c-0.1,0-0.3,0-0.5,0.1h-0.3l-34.6,32.5c-2.5,2.4-5.6,4.1-9,5l-27.9,7.5h-1.6v3.2l1.3,1.3h0.9
			l92.4,5.1c7.9,0.4,14.9,5.1,18.1,12.4l3.1,6.8c4.1,9.1,1.2,19.9-6.9,25.7l-32.9,23.6c-3.6,2.6-7.9,4-12.3,4c0,0,0,0,0,0
			c-0.7,0-1.5,0-2.2-0.1l-49.7-5.4c-2.2-0.2-4.1-0.7-5.8-1.4l-35.8-14.9c-0.3-0.2-0.7-0.3-1.1-0.3c-0.5,0-1,0.2-1.4,0.5l-37,27.9
			l-0.1,0.1c-0.2,0.2-0.6,0.7-0.7,1.4l-6,39.9c-0.1,0.4-0.1,0.7-0.1,1.1v0.2l24.5,42.3l0.2,0.2c0.2,0.2,0.7,0.7,1.6,0.8l42.4,3.7
			c8,0.6,15.1,6,17.9,13.6l9.3,24.9c0.4,1.3,6.5,28.9,10.5,47l0.1,0.6l0.3,0.3c0.3,0.4,0.6,0.6,0.9,0.7L282.8,453.6z M33.5,332.2
			c15.1,44.2,42.9,82.6,80.4,111l2.8,2.1l3.6-29.6c0.3-2.3-0.5-4.5-2.1-6.1l-28.6-26.1c-1.7-1.6-3.2-3.4-4.4-5.2L56,332.9
			c-1.4-2.1-3.6-3.3-6.1-3.3H32.6L33.5,332.2z M102.1,78.2c-36.9,32-62.7,73.9-74.4,121.1l3.6,1.6l22.2-32.6
			c3.6-5.4,8.3-9.9,13.7-13.4L91.7,139c8.6-5.6,13.7-15,13.7-25.2V75.3L102.1,78.2z M201.2,90.2c-0.5,0.9-1.8,4.4,0.2,6.8l0.1,0.1
			l0.1,0.1c1.4,1.4,2.8,1.7,3.8,1.7c0.1,0,0.2,0,0.3,0c1.4,0,2.8-0.7,3.7-1.8l42.2-49.3c2.5-2.9,5.7-5.2,9.3-6.7l27.1-10.9
			c0.4-0.1,0.9-0.4,3.9-3.7l2.5-2.8l-3.7-0.5c-11.7-1.7-23.4-2.5-34.7-2.5c-11.2,0-22.8,0.8-34.4,2.5l-2.1,0.3l3,14.7
			c1.1,5.4,0.3,11.1-2.3,16.1L201.2,90.2L201.2,90.2z"/>
	</g>
</g>
</svg>
