<?xml version="1.0" encoding="utf-8"?>
<!-- Generator: Adobe Illustrator 22.0.1, SVG Export Plug-In . SVG Version: 6.00 Build 0)  -->
<svg version="1.1" id="Слой_1" xmlns="http://www.w3.org/2000/svg" xmlns:xlink="http://www.w3.org/1999/xlink" x="0px" y="0px"
	 viewBox="0 0 17.6 12" style="enable-background:new 0 0 17.6 12;" xml:space="preserve">
<style type="text/css">
	.st0{fill:#FFFFFF;}
</style>
<g>
	<path class="st0" d="M8.8,0C4.8,0,1.4,2.5,0,6c1.4,3.5,4.8,6,8.8,6c4,0,7.4-2.5,8.8-6C16.2,2.5,12.8,0,8.8,0L8.8,0z M8.8,10
		c-2.2,0-4-1.8-4-4c0-2.2,1.8-4,4-4c2.2,0,4,1.8,4,4C12.8,8.2,11,10,8.8,10L8.8,10z M8.8,3.6c-1.4,0-2.4,1-2.4,2.4
		c0,1.4,1,2.4,2.4,2.4c1.4,0,2.4-1,2.4-2.4C11.2,4.6,10.2,3.6,8.8,3.6L8.8,3.6z M8.8,3.6"/>
</g>
</svg>
