<?xml version="1.0" encoding="utf-8"?>
<!-- Generator: Adobe Illustrator 22.0.1, SVG Export Plug-In . SVG Version: 6.00 Build 0)  -->
<svg version="1.1" id="Слой_1" xmlns="http://www.w3.org/2000/svg" xmlns:xlink="http://www.w3.org/1999/xlink" x="0px" y="0px"
	 viewBox="0 0 60 63.1" style="enable-background:new 0 0 60 63.1;" xml:space="preserve">
<style type="text/css">
	.st0{fill:#26415B;}
	.st1{display:none;}
	.st2{display:inline;}
</style>
<path class="st0" d="M60,2.1V0H0v2.1v0v61h3.9l2.4-3.8l26.4-41.4c2.3-3.9,5.4-7.3,9.1-9.8c1.5-1,3.1-2,4.7-2.7
	c0.8-0.4,1.6-0.8,2.4-1.1c1.9-0.7,3.8-1.3,5.8-1.6c1.7-0.3,3.3-0.5,5.1-0.5C59.9,2.1,59.9,2.1,60,2.1L60,2.1L60,2.1z"/>
<g id="Слой_2" class="st1">
	<path class="st2" d="M60,2.1L60,2.1c-0.1,0-0.1,0-0.2,0c-1.7,0-3.4,0.2-5.1,0.5c-2,0.4-3.9,0.9-5.8,1.6c-0.8,0.3-1.6,0.7-2.4,1.1
		C44.8,6.1,43.3,7,41.8,8c-3.7,2.6-6.8,5.9-9.1,9.8L6.3,59.3l-2.4,3.8H0v-61H60z"/>
	<rect x="0" class="st2" width="60" height="2.1"/>
</g>
</svg>
