<?xml version="1.0" encoding="utf-8"?>
<!-- Generator: Adobe Illustrator 22.0.1, SVG Export Plug-In . SVG Version: 6.00 Build 0)  -->
<svg version="1.1" id="Слой_1" xmlns="http://www.w3.org/2000/svg" xmlns:xlink="http://www.w3.org/1999/xlink" x="0px" y="0px"
	 viewBox="0 0 556 85" style="enable-background:new 0 0 556 85;" xml:space="preserve">
<style type="text/css">
	.st0{fill:#26415B;}
	.st1{display:none;}
	.st2{display:inline;}
</style>
<path class="st0" d="M556,2.8V0H0.1v2.8l0,0V85h482.1l3.2-5.1l34.7-55.8c3-5.3,7.1-9.8,12-13.2c2-1.3,4.1-2.7,6.2-3.6
	c1.1-0.5,2.1-1.1,3.2-1.5c2.5-0.9,5-1.8,7.6-2.2c2.2-0.4,4.3-0.6,6.6-0.6C555.9,2.8,555.9,2.8,556,2.8L556,2.8L556,2.8z"/>
<g id="Слой_2_1_" class="st1">
	<path class="st2" d="M555.4,23.6L555.4,23.6c-0.1,0-0.1,0-0.2,0c-1.7,0-3.4,0.2-5.1,0.5c-2,0.4-3.9,0.9-5.8,1.6
		c-0.8,0.3-1.6,0.7-2.4,1.1c-1.7,0.8-3.2,1.7-4.7,2.7c-3.7,2.6-6.8,5.9-9.1,9.8l-26.4,41.5l-2.4,3.8h-3.9v-61
		C495.4,23.6,555.4,23.6,555.4,23.6z"/>
	<rect x="495.4" y="21.5" class="st2" width="60" height="2.1"/>
</g>
<image style="display:none;overflow:visible;" width="569" height="87" xlink:href="9FBA11EC.jpg"  transform="matrix(0.977 0 0 0.977 9.556893e-02 0)">
</image>
</svg>
