<?xml version="1.0" encoding="utf-8"?>
<!-- Generator: Adobe Illustrator 22.0.1, SVG Export Plug-In . SVG Version: 6.00 Build 0)  -->
<svg version="1.1" id="Слой_1" xmlns="http://www.w3.org/2000/svg" xmlns:xlink="http://www.w3.org/1999/xlink" x="0px" y="0px"
	 viewBox="0 0 315.2 134.9" style="enable-background:new 0 0 315.2 134.9;" xml:space="preserve">
<style type="text/css">
	.st0{fill:#26415B;}
</style>
<path class="st0" d="M292,94.1c-3.6,0-6.3-1-8.3-2.9c-1.9-2-2.9-4.7-2.9-8.3c0-3.7,1.1-6.6,3.2-8.7c2.1-2.1,4.7-3.2,7.8-3.2
	c3.2,0,5.7,1,7.4,2.8c1.7,1.9,2.6,4.5,2.6,7.8v2.5h-15v0.5c0.3,3.6,2.6,5.5,6.8,5.5c2.3,0,4.4-0.5,6.2-1.4v4
	C297.8,93.6,295.2,94.1,292,94.1z M291.8,74.8c-1.3,0-2.4,0.5-3.3,1.6c-0.9,1-1.4,2.3-1.6,3.8l-0.1,0.6h9.5v-0.5
	C296.3,75.7,293.8,74.8,291.8,74.8z"/>
<path class="st0" d="M269.7,94.1c-3.4,0-6.2-1-8.2-3.1c-2.1-2-3.1-4.7-3.1-7.9c0-3.7,1.1-6.7,3.4-8.9c2.2-2.2,5.3-3.2,9.1-3.2
	c2.4,0,4.2,0.3,5.4,0.9v4.8c-1.4-0.8-2.9-1.2-4.5-1.2c-2.2,0-3.9,0.6-5.2,1.9s-1.9,3.1-1.9,5.3c0,2.2,0.6,3.9,1.9,5.1
	c1.2,1.3,2.9,1.9,5.1,1.9c1.6,0,3.2-0.4,4.7-1.3v4.5C274.6,93.7,272.4,94.1,269.7,94.1z"/>
<path class="st0" d="M247,93.6v-22h6.1v22H247z M250.1,66.9c-1.1,0-1.9-0.3-2.6-0.9c-0.7-0.6-1-1.4-1-2.3c0-0.9,0.3-1.7,1-2.2
	c0.7-0.6,1.5-0.9,2.6-0.9s2,0.3,2.6,0.9c0.7,0.6,1,1.3,1,2.2s-0.3,1.7-1,2.3C252.1,66.6,251.2,66.9,250.1,66.9z"/>
<polygon class="st0" points="227.7,93.6 220.3,71.6 226.4,71.6 231.6,88.2 231.7,88.2 237,71.6 242.9,71.6 235.1,93.6 "/>
<path class="st0" d="M201.2,93.6v-22h6.1v4.3c0,0,1.2-4.7,6.7-4.7c0.5,0,1.5,0,1.8,0.1v5.4c-0.7-0.3-2.1-0.4-3-0.4
	c-1.7,0-3,0.6-4,1.9c-0.9,1.2-1.4,2.9-1.4,4.9v10.5L201.2,93.6L201.2,93.6z"/>
<path class="st0" d="M186.4,94.1c-3.6,0-6.3-1-8.3-2.9c-1.9-2-2.9-4.7-2.9-8.3c0-3.7,1.1-6.6,3.2-8.7s4.7-3.2,7.8-3.2
	c3.2,0,5.7,1,7.4,2.8c1.7,1.9,2.6,4.5,2.6,7.8v2.5h-15v0.5c0.3,3.6,2.6,5.5,6.8,5.5c2.3,0,4.4-0.5,6.2-1.4v4
	C192.2,93.6,189.6,94.1,186.4,94.1z M186.1,74.8c-1.3,0-2.4,0.5-3.3,1.6c-0.9,1-1.4,2.3-1.6,3.8l-0.1,0.6h9.5v-0.5
	C190.6,75.7,188.2,74.8,186.1,74.8z"/>
<path class="st0" d="M161.1,94.1c-2.3,0-4.5-0.3-6.5-1v-4.5c0.9,0.5,1.9,0.9,2.8,1.2c1.2,0.4,2.4,0.5,3.4,0.5c1.3,0,2.4-0.2,3.2-0.6
	c1.1-0.5,1.4-1.4,1.4-2s-0.2-1.1-0.7-1.5c-0.4-0.3-0.8-0.6-1.4-0.9c-0.5-0.2-1.1-0.4-1.8-0.6c-0.6-0.2-1.2-0.4-1.7-0.6
	c-0.9-0.3-1.7-0.7-2.4-1.1c-0.6-0.4-1.2-0.8-1.6-1.3s-0.8-1-1-1.7c-0.2-0.6-0.3-1.4-0.3-2.3c0-1.2,0.3-2.2,0.8-3.1s1.2-1.6,2.1-2.1
	c0.9-0.6,1.9-1,3.1-1.2c1.2-0.3,2.4-0.4,3.7-0.4c1,0,2,0.1,3,0.2c0.9,0.1,1.8,0.3,2.7,0.6V76c-0.7-0.4-1.5-0.6-2.3-0.8
	c-1.1-0.3-2.1-0.4-3.1-0.4c-0.5,0-1,0-1.4,0.1c-0.5,0.1-0.9,0.2-1.2,0.4c-0.4,0.2-0.7,0.4-0.9,0.8c-0.2,0.3-0.4,0.7-0.4,1.1
	c0,0.5,0.2,1,0.5,1.4c0.3,0.3,0.7,0.6,1.2,0.9c0.5,0.2,1,0.4,1.5,0.6s1.1,0.3,1.6,0.5c0.9,0.3,1.8,0.7,2.5,1.1s1.3,0.8,1.8,1.3
	s0.9,1,1.1,1.7c0.3,0.6,0.4,1.4,0.4,2.3c0,1.3-0.3,2.3-0.8,3.2c-0.5,0.9-1.3,1.6-2.2,2.2c-0.9,0.6-2,1-3.2,1.3
	C163.7,94,162.4,94.1,161.1,94.1z"/>
<polygon class="st0" points="300.1,54.7 292.7,32.7 298.8,32.7 303.9,49.3 304.1,49.3 309.3,32.7 315.2,32.7 307.5,54.7 "/>
<path class="st0" d="M281.9,54.7v-22h6.1v22H281.9z M285,28c-1.1,0-1.9-0.3-2.6-0.9c-0.7-0.6-1-1.4-1-2.3c0-0.9,0.3-1.7,1-2.2
	c0.7-0.6,1.5-0.9,2.6-0.9c1.1,0,2,0.3,2.6,0.9c0.7,0.6,1,1.3,1,2.2s-0.3,1.7-1,2.3C286.9,27.8,286.1,28,285,28z"/>
<path class="st0" d="M272.7,55.2c-4.7,0-7-2.4-7-7.3v-11H262v-4.2h3.7v-5.1l6.1-1.7v6.8h5.2v4.2h-5.2v9.8c0,3.4,1.8,4.1,3.4,4.1
	c0.6,0,1.2-0.1,1.8-0.4v4.2C275.9,55,274.5,55.2,272.7,55.2z"/>
<path class="st0" d="M252.8,54.7l-7.3-11.4l6.9-10.6h7.1L251.6,43l8.5,11.7H252.8z M238.5,54.7V21.6h6.1v21.7v0.5v10.9H238.5z"/>
<path class="st0" d="M223.5,55.2c-3.6,0-6.3-1-8.3-2.9c-1.9-2-2.9-4.7-2.9-8.3c0-3.7,1.1-6.6,3.2-8.7c2.1-2.1,4.7-3.2,7.8-3.2
	c3.2,0,5.7,1,7.4,2.8c1.7,1.9,2.6,4.5,2.6,7.8v2.5h-15v0.5c0.3,3.6,2.6,5.5,6.8,5.5c2.3,0,4.4-0.5,6.2-1.4v4
	C229.3,54.7,226.7,55.2,223.5,55.2z M223.2,35.9c-1.3,0-2.4,0.5-3.3,1.6c-0.9,1-1.4,2.3-1.6,3.8l-0.1,0.6h9.5v-0.5
	C227.7,36.9,225.3,35.9,223.2,35.9z"/>
<path class="st0" d="M180.3,54.7V36.9h-3.9v-4.2h3.9v-3.4c0-2.5,0.8-4.5,2.4-6s3.8-2.3,6.6-2.3c1.2,0,2.2,0.1,3.1,0.3v4.4
	c-0.7-0.2-1.4-0.3-2.1-0.3c-1.8,0-3.9,0.7-3.9,4.2v2.9h5.3v4.2h-5.3v18H180.3z"/>
<path class="st0" d="M197.9,54.7V36.9H194v-4.2h3.9v-3.4c0-2.5,0.8-4.5,2.4-6s3.8-2.3,6.6-2.3c1.2,0,2.2,0.1,3.1,0.3v4.4
	c-0.7-0.2-1.4-0.3-2.1-0.3c-1.8,0-3.9,0.7-3.9,4.2v2.9h5.3v4.2H204v18H197.9z"/>
<polygon class="st0" points="154.6,54.7 154.6,23.5 172.2,23.5 172.2,28.4 160.9,28.4 160.9,36.6 171.4,36.6 171.4,41.4 160.9,41.4 
	160.9,49.8 172.9,49.8 172.9,54.7 "/>
<path id="_x33_" class="st0" d="M79.9,47.8c-1.4,0-2.7,0.1-3.9,0.2c-2,0.2-3.9,0.6-5.5,1.2c-3.6,1.2-6.4,3.3-8.6,6
	c-1.1,1.4-2.1,3-3.1,4.8l0,0c-1,2-2,4.2-2.8,6.7l-1,2.7h47c10.8,0,19.6-8.8,19.6-19.6v-2L79.9,47.8L79.9,47.8z"/>
<path id="_x32_" class="st0" d="M53.6,72.9l-0.5,1.3c0,0-1,2.6-2.4,6.2l0,0c-1.3,3.3-3,7.5-4.5,11.3l-1.1,2.7h48
	c10.8,0,19.6-8.8,19.6-19.6v-2H53.6V72.9z"/>
<path id="_x31_" class="st0" d="M59.3,22.7c-0.2,0-0.4,0-0.6,0c-1.7,0-3.4,0.2-5.1,0.5c-2,0.4-3.9,0.9-5.8,1.6
	c-0.8,0.3-1.6,0.7-2.4,1.1c-1.7,0.8-3.3,1.7-4.7,2.7c-3.7,2.6-6.8,5.9-9.1,9.8L5.3,79.8l-0.1,0.1l-3,4.7c1.3,4.8,3,9.3,5.2,13.6
	c0.3,0.5,0.5,1,0.8,1.4c0.2,0.4,0.5,0.8,0.7,1.2c0.1,0.1,0.1,0.3,0.2,0.4c0.1,0.2,0.3,0.5,0.4,0.7s0.2,0.3,0.3,0.5
	c0.2,0.3,0.3,0.5,0.5,0.8c0.1,0.1,0.2,0.3,0.3,0.4c0.8,1.2,1.5,2.3,2.3,3.4c0.3,0.4,0.6,0.8,0.8,1.1c0.3,0.4,0.6,0.8,0.9,1.2
	c0.3,0.4,0.6,0.8,0.9,1.1c0.3,0.3,0.6,0.7,0.9,1c0.2,0.2,0.4,0.5,0.6,0.7c1.2-0.3,2.3-0.6,3.4-1c0.3-0.1,0.6-0.2,0.8-0.3
	c0.1,0,0.2-0.1,0.3-0.1l0,0c2.5-0.9,4.8-2,6.9-3.3c6-3.7,10.4-9,13.3-15.8l5.2-13.2l7.3-18.5c0.2-0.6,0.5-1.1,0.7-1.7l0,0
	c0.9-1.8,2-3.5,3.2-5.1l0,0c2.5-3,5.6-5.4,9.2-6.9l0,0c1.8-0.8,3.8-1.4,5.8-1.7c1.3-0.2,2.6-0.3,4-0.3h44c1.6,0,3.1-0.2,4.6-0.5
	c0.1,0,0.2-0.1,0.3-0.1c0,0,0,0,0.1,0c1.3-0.3,2.5-0.8,3.7-1.4c0,0,0,0,0.1,0h0.1c6.6-3.4,10.8-10.1,10.8-17.5v-2L59.3,22.7
	L59.3,22.7z"/>
<path id="circle" class="st0" d="M130.1,42.2c-2.9-7.2-7-13.8-12.1-19.5C105.6,8.8,87.6,0,67.5,0C30.2,0,0,30.2,0,67.5
	c0,5.9,0.8,11.6,2.2,17.1c1.3,4.8,3,9.3,5.2,13.6c0.3,0.5,0.5,1,0.8,1.4c0.2,0.4,0.5,0.8,0.7,1.2c0.1,0.1,0.1,0.3,0.2,0.4
	c0.2,0.4,0.5,0.8,0.7,1.2c0.3,0.4,0.5,0.8,0.8,1.2c0.8,1.2,1.5,2.3,2.3,3.4c0.3,0.4,0.6,0.8,0.8,1.1c0.3,0.4,0.6,0.8,0.9,1.2
	c12.4,15.6,31.5,25.6,52.9,25.6c37.3,0,67.5-30.2,67.5-67.5C135.1,58.5,133.3,50,130.1,42.2z M67.6,131c-18.2,0-34.7-7.7-46.3-20
	c-8-8.5-13.7-19.2-16-31.1c-0.8-4-1.2-8.1-1.2-12.3c0-35.1,28.4-63.5,63.5-63.5c17.6,0,33.5,7.2,45,18.7c5.9,5.9,10.6,13,13.8,20.9
	c3,7.4,4.6,15.4,4.6,23.9C131,102.5,102.6,131,67.6,131z"/>
</svg>
