<?xml version="1.0" encoding="utf-8"?>
<!-- Generator: Adobe Illustrator 22.0.1, SVG Export Plug-In . SVG Version: 6.00 Build 0)  -->
<svg version="1.1" id="Слой_1" xmlns="http://www.w3.org/2000/svg" xmlns:xlink="http://www.w3.org/1999/xlink" x="0px" y="0px"
	 viewBox="0 0 409.6 409.6" style="enable-background:new 0 0 409.6 409.6;" xml:space="preserve">
<style type="text/css">
	.st0{fill:#3F51B5;}
</style>
<g id="Слой_2_1_">
	<g>
		<g>
			<path class="st0" d="M345.6,58.5l-19.1-0.1l0,0h-0.1V45.7c0-3.5-2.9-6.4-6.4-6.4h-19.2V26.5c0-3.5-2.9-6.4-6.4-6.4h-159
				C134.6,9.4,125.6,1,114.7,1S94.8,9.4,94,20.1H64.4c-3.5,0-6.4,2.9-6.4,6.4v326c0,3.5,2.9,6.4,6.4,6.4h12.8V378
				c0,3.5,2.9,6.4,6.4,6.4h12.8v19.2c0,3.5,2.9,6.4,6.4,6.4h242.9c3.5,0,6.4-2.9,6.4-6.4V64.9C352,61.4,349.2,58.5,345.6,58.5
				L345.6,58.5z M114.7,13.7c3.9,0,7.1,2.7,7.8,6.4h-15.6C107.6,16.5,110.8,13.7,114.7,13.7L114.7,13.7z M70.8,346.1V32.9h23.1v46.3
				c0,11.4,9.3,20.8,20.8,20.8c11.4,0,20.8-9.3,20.8-20.8V50.5c0-3.5-2.9-6.4-6.4-6.4s-6.4,2.9-6.4,6.4v28.7c0,4.4-3.6,8-8,8
				s-8-3.6-8-8V32.9h181.4v313.2H70.8z M90,371.7v-12.8h204.5c3.5,0,6.4-2.9,6.4-6.4V52.1h12.8v319.6H90z M109.1,397.2v-12.8H320
				c3.5,0,6.4-2.9,6.4-6.4V71.2c0,0,0,0,0.1,0l12.7,0.1v326L109.1,397.2L109.1,397.2z"/>
		</g>
		<path class="st0" d="M224.2,141.6h-89.5c-3.5,0-6.4,2.9-6.4,6.4s2.9,6.4,6.4,6.4h89.5c3.5,0,6.4-2.9,6.4-6.4
			S227.7,141.6,224.2,141.6L224.2,141.6z"/>
		<path class="st0" d="M224.2,167.1h-89.5c-3.5,0-6.4,2.9-6.4,6.4s2.9,6.4,6.4,6.4h89.5c3.5,0,6.4-2.9,6.4-6.4
			C230.6,170,227.7,167.1,224.2,167.1L224.2,167.1z"/>
		<path class="st0" d="M198.6,192.7h-38.3c-3.5,0-6.4,2.9-6.4,6.4s2.9,6.4,6.4,6.4h38.3c3.5,0,6.4-2.9,6.4-6.4
			C205,195.6,202.1,192.7,198.6,192.7L198.6,192.7z"/>
	</g>
</g>
</svg>
