<?xml version="1.0" encoding="utf-8"?>
<!-- Generator: Adobe Illustrator 22.0.1, SVG Export Plug-In . SVG Version: 6.00 Build 0)  -->
<svg version="1.1" xmlns="http://www.w3.org/2000/svg" xmlns:xlink="http://www.w3.org/1999/xlink" x="0px" y="0px"
	 viewBox="0 0 409.6 409.6" style="enable-background:new 0 0 409.6 409.6;" xml:space="preserve">
<style type="text/css">
	.st0{fill:#3F51B5;}
	.st1{fill:none;stroke:#3F51B5;stroke-width:12;stroke-miterlimit:10;}
	.st2{display:none;}
	.st3{display:inline;}
</style>
<g id="Слой_1">
	<path class="st0" d="M109.3,101.6h139.9c3.3,0,6-2.7,6-6c0-3.3-2.7-6-6-6H109.3c-3.3,0-6,2.7-6,6C103.3,98.9,106,101.6,109.3,101.6
		z"/>
	<path class="st0" d="M109.3,134.4h139.9c3.3,0,6-2.7,6-6s-2.7-6-6-6H109.3c-3.3,0-6,2.7-6,6S106,134.4,109.3,134.4z"/>
	<path class="st0" d="M109.3,167.1h196.3c3.3,0,6-2.7,6-6s-2.7-6-6-6H109.3c-3.3,0-6,2.7-6,6S106,167.1,109.3,167.1z"/>
	<path class="st0" d="M107.9,199.9h196.3c3.3,0,6-2.7,6-6s-2.7-6-6-6H107.9c-3.3,0-6,2.7-6,6S104.6,199.9,107.9,199.9z"/>
	<path class="st0" d="M267.4,283.8l-21.1-21.9c-2.4-2.4-6.2-2.4-8.6,0c-2.4,2.4-2.4,6.2,0,8.6l21.1,21.9c2.4,2.4,6.2,2.4,8.6,0
		C269.8,290,269.8,286.2,267.4,283.8z"/>
	<path class="st0" d="M290.5,252.3l-31.6,31.6c-2.4,2.4-2.4,6.2,0,8.6c2.4,2.4,6.2,2.4,8.6,0l31.6-31.6c2.4-2.4,2.4-6.2,0-8.6
		C296.7,249.9,292.9,249.9,290.5,252.3z"/>
	<path class="st0" d="M16.7,68.6L16.7,68.6c-0.9-6.4-1.6-18.2,4.1-25.6c3.7-4.8,9.6-7.2,18.1-7.2c1.3,0.1,2.8,0.1,4.1,0.5
		c8,2.1,14.2,11.6,18.6,28.5c0.3,1.3,0.6,2.5,0.9,3.8H16.7z M391.3,367.7c-3.7,4.8-9.8,7.2-18.4,7.2H137.5c0.1-0.1,0.2-0.2,0.3-0.4
		c4.4-6,6.3-13.4,6.8-20.7c0.2-3.9,0.1-7.8-0.4-11.7h251.4C396.4,348.5,397.1,360.3,391.3,367.7z M406.3,334.5
		c-0.7-2.7-3.1-4.5-5.9-4.5h-51c-4.6-32.1-4.3-77.3-4.1-121c0.1-12.8,0.1-122.5,0.1-135.2V66c0-1.6,0-4.7,0-4.7h-12.1
		c0.1,14.7,0,132.9-0.1,147.7c-0.2,43.4-0.5,88.2,3.9,121.1c0,0-200.1,0-200.3,0c-3.9,0-6.8,3.8-5.9,7.6c0.1,0.3,6.7,26.8-9,34.8
		l-13.2,2.5c-3.4-0.1-6.3-1.4-8.9-4.1C81,351.8,81.4,275.9,81.8,209c0.3-52.4,0.6-102.9-6.3-137.9C73,58.9,69.7,46,62,35.9h240.8
		c13,0,27.8,13.4,30.5,25.4h12.1c-0.8-12.8-8.3-19.3-12-23.5c-6.9-8-19.3-14-30.6-14H39.3c-12.5,0-21.9,4-28,11.9
		C-0.6,51.1,5.6,75.2,5.8,76.2c0.7,2.7,3.1,4.5,5.9,4.5h53.2c5.4,34.4,5.1,83.2,4.9,128.2c-0.4,76-0.8,147.8,21.6,170.3
		c5.1,5.1,11.2,7.7,18,7.7h263.6c12.5,0,21.9-4,28-11.9C412.8,359.7,406.6,335.6,406.3,334.5z"/>
	<circle class="st1" cx="266.8" cy="267.7" r="47.1"/>
</g>
<g id="Слой_2" class="st2">
	<g class="st3">
		<g>
			<path class="st0" d="M345.6,58.5l-19.1-0.1h0c0,0-0.1,0-0.1,0V45.7c0-3.5-2.9-6.4-6.4-6.4h-19.2V26.5c0-3.5-2.9-6.4-6.4-6.4
				H135.4C134.6,9.4,125.6,1,114.7,1C103.8,1,94.8,9.4,94,20.1H64.4c-3.5,0-6.4,2.9-6.4,6.4v326c0,3.5,2.9,6.4,6.4,6.4h12.8V378
				c0,3.5,2.9,6.4,6.4,6.4h12.8v19.2c0,3.5,2.9,6.4,6.4,6.4h242.9c3.5,0,6.4-2.9,6.4-6.4V64.9C352,61.4,349.2,58.5,345.6,58.5
				L345.6,58.5z M114.7,13.7c3.9,0,7.1,2.7,7.8,6.4h-15.6C107.6,16.5,110.8,13.7,114.7,13.7L114.7,13.7z M70.8,346.1V32.9h23.1v46.3
				c0,11.4,9.3,20.8,20.8,20.8c11.4,0,20.8-9.3,20.8-20.8V50.5c0-3.5-2.9-6.4-6.4-6.4c-3.5,0-6.4,2.9-6.4,6.4v28.7c0,4.4-3.6,8-8,8
				c-4.4,0-8-3.6-8-8V32.9h181.4v313.2H70.8z M90,371.7v-12.8h204.5c3.5,0,6.4-2.9,6.4-6.4V52.1h12.8v319.6H90z M109.1,397.2v-12.8
				H320c3.5,0,6.4-2.9,6.4-6.4V71.2c0,0,0,0,0.1,0l12.7,0.1v326H109.1z M109.1,397.2"/>
		</g>
		<path class="st0" d="M224.2,141.6h-89.5c-3.5,0-6.4,2.9-6.4,6.4s2.9,6.4,6.4,6.4h89.5c3.5,0,6.4-2.9,6.4-6.4
			S227.7,141.6,224.2,141.6L224.2,141.6z M224.2,141.6"/>
		<path class="st0" d="M224.2,167.1h-89.5c-3.5,0-6.4,2.9-6.4,6.4c0,3.5,2.9,6.4,6.4,6.4h89.5c3.5,0,6.4-2.9,6.4-6.4
			C230.6,170,227.7,167.1,224.2,167.1L224.2,167.1z M224.2,167.1"/>
		<path class="st0" d="M198.6,192.7h-38.3c-3.5,0-6.4,2.9-6.4,6.4c0,3.5,2.9,6.4,6.4,6.4h38.3c3.5,0,6.4-2.9,6.4-6.4
			C205,195.6,202.1,192.7,198.6,192.7L198.6,192.7z M198.6,192.7"/>
	</g>
</g>
</svg>
