<?xml version="1.0" encoding="utf-8"?>
<!-- Generator: Adobe Illustrator 22.0.1, SVG Export Plug-In . SVG Version: 6.00 Build 0)  -->
<svg version="1.1" id="Слой_1" xmlns="http://www.w3.org/2000/svg" xmlns:xlink="http://www.w3.org/1999/xlink" x="0px" y="0px"
	 viewBox="0 0 409.6 409.6" style="enable-background:new 0 0 409.6 409.6;" xml:space="preserve">
<style type="text/css">
	.st0{fill:#3F51B5;}
</style>
<g>
	<path class="st0" d="M375.5,0H34.1C16.3,0,1.3,14.8,0,34.1v177.5c0,3.8,3.1,6.8,6.8,6.8c3.8,0,6.8-3.1,6.8-6.8l0-177
		c0.7-10.3,8.6-20.9,20.5-20.9h341.3c11.3,0,20.5,9.2,20.5,20.5v245.8c0,11.7-8.8,20.5-20.5,20.5H34.1c-11.7,0-20.5-8.8-20.5-20.5
		v-34.1h361.8c2.1,0,4.2-1,5.5-2.7c1.3-1.7,1.7-3.9,1.1-6c-13.8-48.4-38.8-83.9-39.5-84.8c-2.5-4.4-7-7.7-12.3-9.2
		c-5.3-1.5-11-0.8-15.5,1.7c-2.1,1.2-4,2.9-5.6,4.8c-3.2-3.4-7.2-5.9-11.8-7.2c-6.4-1.7-13.1-0.8-18.8,2.5c-4.4,2.5-7.8,6.2-10,10.7
		c-2.1-1.3-4.4-2.3-6.8-3c-6.4-1.7-13.1-0.8-18.8,2.5c-4.1,2.4-7.4,5.8-9.5,9.9l-40.8-56.8c-12.9-17.6-26.2-12.7-31.3-9.7
		c-5.8,3.4-9.7,8.7-10.8,15.1c-1.1,5.8,0.2,12.1,3.6,17.9l51.7,83.6c2,3.2,6.2,4.2,9.4,2.2c3.2-2,4.2-6.2,2.2-9.4l-51.6-83.4
		c-1.7-2.9-2.3-5.9-1.8-8.5c0.4-2.4,1.9-4.4,4.2-5.7c1.9-1.1,6.4-3.7,13.4,5.9l52.7,73.3c2.1,3,6.2,3.7,9.3,1.8c3.1-2,4-6,2.2-9.1
		c-1.5-2.6-1.9-5.6-1.1-8.5c0.8-2.9,2.6-5.3,5.2-6.8c2.6-1.5,5.6-1.9,8.5-1.1c2.9,0.8,5.3,2.6,6.8,5.2l4.5,7.8v0
		c1.9,3.3,6.1,4.4,9.3,2.5c3.3-1.9,4.4-6.1,2.5-9.3l0,0c-1.5-2.6-1.9-5.6-1.1-8.4c0.8-2.9,2.6-5.3,5.2-6.8c2.6-1.5,5.6-1.9,8.4-1.1
		c2.9,0.8,5.3,2.6,6.8,5.2l6.7,11.7c1.9,3.3,6.1,4.4,9.3,2.5c3.3-1.9,4.4-6.1,2.5-9.3v0c-0.8-1.4-1-3.3-0.5-5c0.5-1.8,1.6-3.2,3-4
		c1.4-0.8,3.2-0.9,5-0.4c1.8,0.5,3.3,1.6,4.4,3.4c0.2,0.3,21.7,30.9,35.2,72.5H6.8c-3.8,0-6.8,3.1-6.8,6.8v41C0,299,15,314,34.1,314
		h341.3c19.1,0,34.1-15,34.1-34.1V34.1C409.6,15.3,394.3,0,375.5,0L375.5,0z M375.5,0"/>
	<path class="st0" d="M146.5,82.3L127.2,63c-2.7-2.7-7-2.7-9.7,0c-2.7,2.7-2.7,7,0,9.7l19.3,19.3c1.3,1.3,3.1,2,4.8,2
		c1.8,0,3.5-0.7,4.8-2C149.2,89.3,149.2,84.9,146.5,82.3L146.5,82.3z M146.5,82.3"/>
	<path class="st0" d="M266.2,368.6h-20.5v-34.1c0-3.8-3.1-6.8-6.8-6.8c-3.8,0-6.8,3.1-6.8,6.8v41c0,3.8,3.1,6.8,6.8,6.8h27.3
		c7.7,0,15.7,6.2,18.9,13.7H124.4c3.3-7.4,11.3-13.7,18.9-13.7h68.3c3.8,0,6.8-3.1,6.8-6.8c0-3.8-3.1-6.8-6.8-6.8h-34.1v-34.1
		c0-3.8-3.1-6.8-6.8-6.8c-3.8,0-6.8,3.1-6.8,6.8v34.1h-20.5c-17.5,0-34.1,16.6-34.1,34.1c0,3.8,3.1,6.8,6.8,6.8h177.5
		c3.8,0,6.8-3.1,6.8-6.8C300.4,385.2,283.8,368.6,266.2,368.6L266.2,368.6z M266.2,368.6"/>
	<path class="st0" d="M136.9,140.2l-19.3,19.3c-2.7,2.7-2.7,7,0,9.7c1.3,1.3,3.1,2,4.8,2c1.7,0,3.5-0.7,4.8-2l19.3-19.3
		c2.7-2.7,2.7-7,0-9.7C143.9,137.5,139.5,137.5,136.9,140.2L136.9,140.2z M136.9,140.2"/>
	<path class="st0" d="M191.1,273.1c0,7.5,6.1,13.7,13.7,13.7c7.5,0,13.7-6.1,13.7-13.7c0-7.5-6.1-13.7-13.7-13.7
		C197.3,259.4,191.1,265.5,191.1,273.1L191.1,273.1z M191.1,273.1"/>
	<path class="st0" d="M204.4,91.9l19.3-19.3c2.7-2.7,2.7-7,0-9.7c-2.7-2.7-7-2.7-9.7,0l-19.3,19.3c-2.7,2.7-2.7,7,0,9.7
		c1.3,1.3,3.1,2,4.8,2C201.4,93.9,203.1,93.3,204.4,91.9L204.4,91.9z M204.4,91.9"/>
	<path class="st0" d="M177.5,75.1V47.8c0-3.8-3.1-6.8-6.8-6.8c-3.8,0-6.8,3.1-6.8,6.8v27.3c0,3.8,3.1,6.8,6.8,6.8
		C174.4,81.9,177.5,78.9,177.5,75.1L177.5,75.1z M177.5,75.1"/>
	<path class="st0" d="M95.6,116.1c0,3.8,3.1,6.8,6.8,6.8h27.3c3.8,0,6.8-3.1,6.8-6.8c0-3.8-3.1-6.8-6.8-6.8h-27.3
		C98.6,109.2,95.6,112.3,95.6,116.1L95.6,116.1z M95.6,116.1"/>
</g>
</svg>
