<?xml version="1.0" encoding="utf-8"?>
<!-- Generator: Adobe Illustrator 19.2.1, SVG Export Plug-In . SVG Version: 6.00 Build 0)  -->
<svg version="1.1" id="Capa_1" xmlns="http://www.w3.org/2000/svg" xmlns:xlink="http://www.w3.org/1999/xlink" x="0px" y="0px"
	 viewBox="0 0 512.5 512.5" style="enable-background:new 0 0 512.5 512.5;" xml:space="preserve">
<style type="text/css">
	.st0{fill:#3BB885;}
</style>
<g>
	<g>
		<g>
			<path class="st0" d="M154.2,28.1c31.7-14.3,66.6-21.8,101.3-21.8h0.7c25.7,0.1,51.1,4,75.5,11.9l-5.9,17
				c-22.5-7.2-45.9-10.8-69.6-10.9h-0.7c-32.1,0-64.2,6.9-93.5,20L154.2,28.1z"/>
			<path class="st0" d="M255.8,504.8c-66.5-0.1-129-26.1-175.9-73.2S7.1,321.9,7.2,255.4c-0.1-35.4,7.5-70.8,22.2-103l16.2,7.9
				c-13.4,29.7-20.5,62.4-20.4,95c-0.1,26.3,4.4,52.3,13.1,77.1c32.5,92.3,120.1,154.4,217.9,154.4c26.1,0,51.9-4.4,76.7-13.2
				c58.2-20.5,104.9-62.4,131.6-118c25.7-53.5,29.8-113.6,11.8-169.9l17-5.9c7.9,24.7,11.9,50.4,11.9,76.4
				c-0.1,66.4-26.1,128.9-73.1,175.8s-109.5,72.8-175.9,72.8H255.8z"/>
			<path class="st0" d="M98,63.1c4.9-4.1,10.1-8,15.3-11.6l9.9,15c-4.6,3.2-9,6.6-13.4,10.2L98,63.1z"/>
			<path class="st0" d="M448.4,128.5l-24-21.2c-7.5,8.6-14.5,17.6-20.8,27.1l26.6,17.8C435.7,143.9,441.8,136,448.4,128.5z"/>
			<path class="st0" d="M53,111.5c3.7-5.2,7.6-10.3,11.7-15.2l13.5,11.9c-3.6,4.3-7,8.8-10.2,13.3L53,111.5z"/>
			<path class="st0" d="M254.8,244l88.4-88.4V87.7l68-68l26.9,53.8l53.7,26.9l-68,68H356l-88.4,88.4L254.8,244z M361.2,95.2v55.2
				h55.2l45-45L424.6,87l-18.3-36.9L361.2,95.2z"/>
			<path class="st0" d="M256.2,424.3c-93.2,0-169-75.8-169-169s75.8-169,169-169h0.1c11.9,0,23.7,1.3,35.3,3.8l-4.6,17.4
				c-10.1-2.1-20.4-3.2-30.8-3.2h-0.1c-83.3,0-151,67.7-151,151s67.7,151,151,151s151-67.7,151-151c0-10.4-1.1-20.7-3.2-30.9
				l17.4-4.6c2.5,11.6,3.8,23.5,3.8,35.5C425.2,348.5,349.4,424.3,256.2,424.3z"/>
			<path class="st0" d="M256.2,344.3c-49.1,0-89-39.9-89-89s39.9-89,88.9-89c1.8,0,3.6,0.1,5.4,0.3l-2.5,17.8
				c-0.9-0.1-1.8-0.1-2.6-0.1h-0.2c-39.1,0-71,31.9-71,71s31.9,71,71,71s71-31.9,71-71v-0.2c0-0.9-0.1-1.8-0.1-2.6l17.8-2.5
				c0.2,1.8,0.3,3.6,0.3,5.4C345.2,304.5,305.3,344.3,256.2,344.3z"/>
		</g>
	</g>
</g>
</svg>
